{"glyphs":{"0":{"ha":694,"x_min":72,"x_max":654,"o":"m 529 678 q 465 896 529 896 q 391 838 436 896 q 303 694 346 781 q 231 498 261 608 q 201 294 201 388 q 286 135 201 135 q 384 224 326 135 q 485 443 442 313 q 529 678 529 574 m 601 394 q 574 317 601 394 q 458 133 547 240 q 284 25 369 25 q 135 103 199 25 q 72 279 72 182 q 134 619 72 447 q 290 901 196 792 q 471 1010 383 1010 q 606 927 558 1010 q 654 697 654 844 q 601 394 654 549 z "},"1":{"ha":436,"x_min":94,"x_max":376,"o":"m 376 904 q 306 476 376 756 q 271 339 290 421 q 239 208 251 257 q 211 108 226 158 q 157 10 183 10 q 116 38 138 10 q 94 95 94 65 q 124 239 94 125 q 192 550 154 353 q 243 965 229 747 q 275 1008 247 1008 q 341 969 306 1008 q 376 904 376 931 z "},"2":{"ha":807,"x_min":57,"x_max":708,"o":"m 322 160 q 375 168 322 160 q 510 188 429 176 q 630 199 592 199 q 688 192 668 199 q 708 167 708 186 q 499 78 708 128 q 193 29 290 29 q 103 67 150 29 q 57 147 57 106 q 190 281 57 181 q 436 494 315 372 q 531 623 493 553 q 569 752 569 693 q 543 844 569 811 q 471 878 517 878 q 385 850 425 878 q 319 795 344 822 q 288 768 294 768 q 232 789 264 768 q 200 831 200 810 q 285 944 200 882 q 468 1007 371 1007 q 630 938 565 1007 q 694 768 694 869 q 181 139 694 468 q 322 160 214 143 z "},"3":{"ha":793,"x_min":47,"x_max":746,"o":"m 456 513 q 657 450 582 496 q 732 328 732 404 q 644 179 732 253 q 430 64 556 106 q 176 22 304 22 q 47 69 47 22 q 130 102 47 82 q 311 145 213 122 q 492 219 410 168 q 575 336 575 269 q 525 395 575 372 q 414 428 475 418 q 253 483 253 451 q 257 500 253 494 q 328 554 268 519 q 449 622 388 589 q 563 710 511 656 q 614 819 614 764 q 543 885 614 885 q 399 840 486 885 q 299 794 311 794 q 256 824 288 794 q 224 869 224 854 q 337 956 224 911 q 538 1000 450 1000 q 685 940 625 1000 q 746 803 746 881 q 658 647 746 726 q 456 513 571 567 z "},"4":{"ha":765,"x_min":100,"x_max":707,"o":"m 613 739 q 671 706 635 739 q 707 646 707 674 q 626 252 707 521 q 500 -17 546 -17 q 470 3 485 -17 q 456 47 456 24 q 468 113 456 69 q 503 226 481 156 q 542 358 526 297 q 290 299 410 299 q 155 347 210 299 q 100 479 100 394 q 147 634 100 540 q 253 808 193 728 q 371 947 313 888 q 452 1006 429 1006 q 497 989 475 1006 q 518 952 518 972 q 444 845 518 932 q 297 653 371 758 q 224 485 224 547 q 301 408 224 408 q 466 444 368 408 q 567 482 564 481 q 583 694 583 594 q 613 739 583 739 z "},"5":{"ha":746,"x_min":40,"x_max":819,"o":"m 617 994 q 819 951 819 994 q 581 883 819 921 q 448 860 475 867 q 384 787 421 854 q 347 690 347 719 q 376 627 347 660 q 448 563 406 594 q 533 499 490 532 q 633 344 633 419 q 522 128 633 228 q 289 28 411 28 q 117 93 193 28 q 40 222 40 158 q 63 263 40 263 q 103 231 71 263 q 267 136 197 136 q 420 201 338 136 q 503 332 503 267 q 400 463 503 392 q 316 523 358 492 q 244 597 274 554 q 214 697 214 640 q 278 856 214 753 q 383 969 342 960 q 617 994 469 994 z "},"6":{"ha":772,"x_min":65,"x_max":682,"o":"m 682 357 q 547 134 682 240 q 265 28 413 28 q 122 87 178 28 q 65 247 65 146 q 131 488 65 347 q 282 738 197 628 q 445 924 367 847 q 552 1000 524 1000 q 608 985 581 1000 q 636 956 636 971 q 589 892 636 942 q 324 581 401 693 q 580 499 478 567 q 682 357 682 432 m 278 140 q 458 206 369 140 q 546 346 546 271 q 472 443 546 399 q 274 503 397 488 q 189 235 189 354 q 213 164 189 188 q 278 140 238 140 z "},"7":{"ha":640,"x_min":138,"x_max":675,"o":"m 138 951 q 252 982 138 965 q 477 999 367 999 q 617 979 588 999 q 658 922 640 961 q 675 857 675 882 q 662 801 675 832 q 624 726 649 769 q 574 642 599 682 q 517 549 550 603 q 453 444 483 496 q 351 260 422 392 q 245 73 279 128 q 193 18 211 18 q 158 44 175 18 q 142 94 142 69 q 244 315 142 140 q 451 658 347 489 q 554 856 554 826 q 508 881 554 881 q 359 865 461 881 q 229 850 257 850 q 169 888 201 850 q 138 951 138 926 z "},"8":{"ha":836,"x_min":126,"x_max":836,"o":"m 617 1013 q 671 1013 617 1013 q 781 968 725 1013 q 836 849 836 924 q 764 694 836 775 q 563 510 692 613 q 692 301 692 388 q 631 169 692 233 q 485 67 571 104 q 331 31 400 31 q 194 81 261 31 q 126 196 126 132 q 194 338 126 260 q 383 515 263 417 q 147 722 182 671 q 128 774 128 750 q 135 823 128 799 q 156 847 143 847 q 190 824 168 847 q 231 783 213 801 q 292 731 250 765 q 389 654 335 696 q 472 588 443 613 q 596 689 554 653 q 676 771 638 725 q 714 847 714 817 q 644 900 714 900 q 483 866 574 900 q 374 832 393 832 q 324 853 354 832 q 294 893 294 874 q 401 974 294 935 q 617 1013 508 1013 m 567 319 q 475 440 567 358 q 360 347 400 381 q 285 271 319 313 q 250 203 250 229 q 274 157 250 178 q 328 136 299 136 q 485 192 404 136 q 567 319 567 249 z "},"9":{"ha":678,"x_min":96,"x_max":653,"o":"m 653 707 q 617 588 653 679 q 560 431 582 496 q 513 247 539 365 q 472 67 488 128 q 438 7 456 7 q 390 118 390 7 q 465 472 390 229 q 288 394 364 394 q 153 454 211 394 q 96 592 96 514 q 150 769 96 669 q 291 938 204 868 q 456 1008 378 1008 q 575 956 533 1008 q 617 850 617 904 q 607 765 617 796 q 653 707 653 757 m 497 728 l 510 821 q 495 872 510 851 q 454 892 481 892 q 293 775 381 892 q 206 576 206 658 q 230 521 206 542 q 280 500 254 500 q 322 504 306 500 q 356 517 339 508 q 385 535 372 526 q 415 560 399 543 q 440 586 431 576 q 466 617 450 596 q 489 646 482 638 q 529 703 515 682 q 497 728 497 707 z "},"\u0000":{"ha":0,"x_min":0,"x_max":0,"o":""},"\r":{"ha":557,"x_min":0,"x_max":0,"o":""}," ":{"ha":557,"x_min":0,"x_max":0,"o":""},"!":{"ha":515,"x_min":94,"x_max":415,"o":"m 118 169 q 130 184 118 169 q 165 199 142 199 q 222 131 189 199 q 256 31 256 64 q 242 8 256 21 q 215 -4 228 -4 q 138 40 181 -4 q 94 112 94 83 q 118 169 94 140 m 297 1125 q 369 1092 324 1125 q 415 1039 415 1058 q 355 624 415 921 q 258 326 294 326 q 217 349 236 326 q 197 397 197 372 q 215 497 196 406 q 254 755 233 589 q 275 1089 275 921 q 297 1125 275 1125 z "},"\"":{"ha":460,"x_min":83,"x_max":435,"o":"m 363 1175 q 406 1152 378 1175 q 435 1115 435 1129 q 414 905 435 1042 q 365 768 393 768 q 335 785 351 768 q 318 813 318 803 q 331 940 318 824 q 343 1149 343 1057 q 363 1175 343 1175 m 108 1149 q 125 1175 108 1175 q 171 1152 142 1175 q 200 1115 200 1129 q 178 906 200 1043 q 131 768 157 768 q 99 785 115 768 q 83 813 83 803 q 96 940 83 824 q 108 1149 108 1057 z "},"#":{"ha":911,"x_min":75,"x_max":922,"o":"m 203 204 q 121 194 135 194 q 91 218 107 194 q 75 263 75 242 q 233 324 75 297 q 308 636 292 558 q 201 621 221 621 q 167 644 182 621 q 151 689 151 668 q 333 754 151 728 q 361 945 361 897 q 366 1002 361 993 q 390 1011 371 1011 q 446 978 410 1011 q 482 904 482 944 q 463 771 482 864 q 647 785 586 782 q 669 947 669 903 q 674 1001 669 992 q 699 1011 679 1011 q 755 978 719 1011 q 790 907 790 944 q 775 790 790 869 q 835 792 800 792 q 922 751 922 792 q 754 694 922 717 q 671 364 725 569 q 759 365 707 365 q 828 356 811 365 q 846 325 846 346 q 800 291 846 304 q 643 264 754 278 l 621 179 q 532 -11 571 -11 q 501 13 514 -11 q 488 65 488 38 q 524 249 483 85 q 425 236 472 242 q 322 222 354 228 q 247 -1 271 28 q 196 17 222 -26 q 179 79 179 43 q 203 204 176 88 m 626 678 q 438 654 511 664 q 356 340 419 578 q 551 357 446 350 q 626 678 603 564 z "},"$":{"ha":742,"x_min":32,"x_max":703,"o":"m 613 942 q 678 902 653 942 q 703 824 703 863 q 683 801 703 801 q 654 808 675 801 q 614 814 633 814 q 553 808 594 814 q 461 503 497 631 q 614 374 558 433 q 669 249 669 314 q 562 82 671 149 q 317 8 453 15 q 254 -99 279 -99 q 232 -86 240 -99 q 235 14 217 -61 q 90 94 149 32 q 32 208 32 157 q 61 260 32 260 q 106 229 76 260 q 176 166 135 199 q 263 129 217 133 q 350 436 274 174 q 208 549 258 500 q 158 642 158 599 q 170 726 158 686 q 199 782 182 765 q 490 924 286 869 q 539 1047 518 1010 q 587 1083 560 1083 q 614 1033 614 1082 q 594 942 614 1000 l 613 942 m 356 135 q 492 177 439 146 q 546 254 546 208 q 426 385 546 300 q 356 135 385 236 m 275 667 q 383 557 275 633 q 447 782 394 596 q 324 725 374 757 q 275 667 275 693 z "},"%":{"ha":1236,"x_min":133,"x_max":1125,"o":"m 968 560 q 1080 490 1035 560 q 1125 333 1125 419 q 1040 114 1125 214 q 858 14 956 14 q 756 74 800 14 q 713 208 713 135 q 794 449 713 338 q 968 560 875 560 m 879 124 q 968 187 919 124 q 1017 315 1017 250 q 999 415 1017 379 q 960 451 982 451 q 871 374 919 451 q 822 218 822 297 q 838 151 822 179 q 879 124 853 124 m 713 942 q 758 960 713 942 q 873 1017 803 978 q 959 1056 943 1056 q 997 1018 975 1056 q 1016 950 1019 981 q 967 851 1013 919 q 818 644 922 783 q 565 293 714 504 q 375 31 417 82 q 319 -19 333 -21 q 290 5 304 -17 q 276 43 275 26 q 304 103 278 60 q 390 231 331 146 q 506 397 449 317 q 844 879 619 558 q 586 810 711 800 q 538 818 571 810 q 547 742 547 775 q 463 522 547 622 q 281 421 378 421 q 177 481 221 421 q 133 615 133 542 q 215 856 133 744 q 390 967 296 967 q 451 950 422 967 q 566 910 510 914 q 713 942 622 906 m 300 531 q 390 594 340 531 q 439 722 439 657 q 422 822 439 786 q 382 858 404 858 q 293 781 342 858 q 244 625 244 704 q 260 559 244 588 q 300 531 275 531 z "},"&":{"ha":978,"x_min":21,"x_max":908,"o":"m 790 126 q 883 119 858 126 q 908 93 908 113 q 774 28 908 28 q 510 149 640 28 q 181 13 288 13 q 74 65 126 13 q 21 174 21 117 q 265 431 21 232 q 276 440 272 438 q 287 449 281 443 q 299 458 293 454 q 249 685 249 581 q 325 868 249 790 q 518 946 401 946 q 645 892 607 946 q 683 774 683 839 q 429 431 683 650 q 515 288 465 353 q 664 393 572 326 q 861 522 843 522 q 904 476 904 522 q 813 369 904 450 q 596 204 721 289 q 790 126 689 126 m 490 840 q 405 792 439 840 q 371 676 371 743 q 392 536 371 608 q 560 763 560 685 q 542 818 560 796 q 490 840 525 840 m 160 194 q 151 182 160 194 q 143 155 143 169 q 154 131 143 140 q 182 121 165 121 q 431 233 254 121 q 346 360 388 286 q 160 194 176 218 z "},"'":{"ha":201,"x_min":85,"x_max":214,"o":"m 117 1149 q 134 1175 117 1175 q 183 1152 151 1175 q 214 1115 214 1129 q 186 906 214 1051 q 132 768 158 761 q 101 786 118 768 q 85 814 85 804 q 101 942 85 824 q 117 1149 117 1060 z "},"(":{"ha":674,"x_min":111,"x_max":765,"o":"m 694 1215 q 708 1215 694 1215 q 744 1195 722 1215 q 765 1155 765 1175 q 726 1101 765 1135 q 628 1026 686 1068 q 500 918 569 985 q 372 776 431 851 q 274 592 314 701 q 235 380 235 482 q 263 209 235 278 q 334 99 292 140 q 426 23 376 57 q 519 -31 476 -11 q 618 -108 618 -78 q 578 -137 618 -137 q 433 -103 511 -137 q 282 -8 356 -69 q 160 155 208 53 q 111 388 111 257 q 163 656 111 519 q 289 891 214 793 q 447 1065 364 989 q 598 1178 531 1140 q 694 1215 665 1215 z "},")":{"ha":700,"x_min":-44,"x_max":592,"o":"m 592 793 q 553 531 592 660 q 456 306 515 403 q 324 127 396 210 q 185 -8 253 44 q -12 -121 40 -121 q -44 -97 -44 -121 q 86 42 -44 -72 q 331 322 215 153 q 425 517 388 406 q 463 728 463 629 q 440 890 463 828 q 384 988 417 953 q 318 1047 351 1022 q 262 1094 285 1072 q 239 1136 239 1115 q 317 1196 239 1196 q 501 1076 410 1196 q 592 793 592 957 z "},"*":{"ha":496,"x_min":140,"x_max":529,"o":"m 529 1008 q 476 970 529 1000 q 376 921 424 940 q 427 887 394 906 q 481 856 460 868 q 501 835 501 843 q 491 819 501 828 q 468 811 481 811 q 419 833 456 811 q 351 883 383 856 q 331 787 346 839 q 306 735 317 735 q 284 745 294 735 q 274 764 274 756 q 280 794 274 772 q 295 843 286 815 q 307 886 304 871 q 235 838 285 865 q 174 810 186 810 q 151 820 163 810 q 140 842 140 831 q 165 860 140 849 q 231 889 190 871 q 296 922 272 907 q 203 978 256 938 q 151 1036 151 1019 q 165 1053 151 1053 q 244 1026 232 1053 q 274 989 250 1015 q 315 954 299 963 l 315 1081 q 333 1101 315 1101 q 367 1083 347 1101 q 388 1053 388 1065 q 363 953 388 1042 q 414 991 385 967 q 461 1030 443 1015 q 490 1044 479 1044 q 515 1033 500 1044 q 529 1008 529 1021 z "},"+":{"ha":833,"x_min":76,"x_max":842,"o":"m 842 503 q 492 407 842 442 q 431 128 440 158 q 406 97 421 97 q 364 124 386 97 q 342 173 342 151 q 346 219 342 194 q 359 294 350 243 q 376 397 368 344 q 163 389 257 389 q 103 417 129 389 q 76 474 76 444 q 115 503 76 503 q 392 508 321 503 q 417 760 404 613 q 444 801 418 801 q 510 763 471 801 q 550 695 550 724 q 517 517 550 667 q 746 533 714 533 q 842 503 842 533 z "},",":{"ha":317,"x_min":10,"x_max":242,"o":"m 242 36 q 167 -148 242 -51 q 38 -244 92 -244 q 10 -225 10 -244 q 39 -175 10 -210 q 126 -1 126 -71 q 109 35 126 21 q 74 63 92 50 q 56 94 56 75 q 79 141 56 113 q 129 169 103 169 q 208 128 174 169 q 242 36 242 88 z "},"-":{"ha":638,"x_min":74,"x_max":586,"o":"m 586 456 q 541 419 586 433 q 323 371 496 406 q 134 336 150 336 q 96 360 118 336 q 74 403 74 383 q 231 462 74 433 q 503 490 388 490 q 586 456 586 490 z "},".":{"ha":329,"x_min":78,"x_max":246,"o":"m 201 -8 q 122 37 167 -8 q 78 112 78 82 q 102 172 78 142 q 152 201 126 201 q 212 133 178 201 q 246 31 246 65 q 231 6 246 19 q 201 -8 215 -8 z "},"/":{"ha":492,"x_min":21,"x_max":572,"o":"m 279 301 q 237 199 279 301 q 148 -6 194 96 q 85 -107 101 -107 q 45 -77 69 -107 q 21 -28 21 -47 q 460 1065 21 49 q 464 1076 461 1069 q 468 1085 467 1082 q 472 1093 469 1089 q 476 1099 474 1097 q 481 1103 478 1100 q 497 1106 485 1106 q 541 1064 510 1106 q 572 991 572 1022 q 537 877 572 960 q 433 651 501 794 q 279 301 364 507 z "},":":{"ha":342,"x_min":54,"x_max":319,"o":"m 281 467 q 204 524 249 467 q 160 613 160 581 q 180 678 160 646 q 219 711 200 711 q 287 632 254 711 q 319 522 319 553 q 281 467 319 467 m 174 -10 q 98 46 142 -10 q 54 135 54 101 q 74 201 54 168 q 114 233 93 233 q 180 155 147 233 q 213 31 213 76 q 201 3 213 15 q 174 -10 190 -10 z "},";":{"ha":425,"x_min":6,"x_max":336,"o":"m 238 11 q 163 -174 238 -76 q 33 -271 88 -271 q 6 -250 6 -271 q 35 -201 6 -236 q 122 -26 122 -97 q 104 10 122 -4 q 69 37 86 25 q 51 67 51 49 q 75 115 51 86 q 125 144 99 144 q 203 103 169 144 q 238 11 238 63 m 296 467 q 220 524 264 467 q 176 613 176 581 q 197 678 176 646 q 236 711 217 711 q 303 632 269 711 q 336 522 336 553 q 324 479 336 492 q 296 467 313 467 z "},"<":{"ha":749,"x_min":113,"x_max":749,"o":"m 682 753 q 730 730 711 753 q 749 693 749 707 q 742 672 749 679 q 651 632 732 663 q 415 526 569 601 q 261 422 261 451 q 361 344 261 399 q 562 238 461 290 q 663 164 663 185 q 612 135 663 135 q 441 184 561 135 q 217 300 321 233 q 113 406 113 367 q 128 462 113 428 q 160 510 143 496 q 422 661 231 569 q 682 753 613 753 z "},"=":{"ha":876,"x_min":79,"x_max":829,"o":"m 79 333 q 343 388 79 357 q 699 418 607 418 q 792 383 792 418 q 468 289 792 332 q 132 260 235 260 q 97 288 114 261 q 79 333 79 315 m 124 606 q 340 657 125 635 q 692 679 554 679 q 829 636 829 679 q 769 599 829 613 q 481 558 708 585 q 178 532 253 532 q 142 559 160 532 q 124 606 124 586 z "},">":{"ha":779,"x_min":119,"x_max":703,"o":"m 183 732 q 215 754 183 754 q 443 681 310 753 q 658 528 576 608 q 703 446 703 483 q 485 274 703 393 q 458 258 468 264 q 161 133 238 133 q 119 162 119 133 q 231 256 119 190 q 455 383 343 322 q 567 458 567 443 q 454 551 567 488 q 269 636 342 615 q 213 680 243 644 q 183 732 183 715 z "},"?":{"ha":719,"x_min":188,"x_max":690,"o":"m 308 -4 q 231 40 275 -4 q 188 113 188 83 q 211 170 188 142 q 258 199 235 199 q 315 131 282 199 q 349 31 349 64 q 335 8 349 21 q 308 -4 321 -4 m 358 881 l 361 844 q 344 820 361 828 q 313 813 326 813 q 274 844 300 813 q 247 899 247 876 q 315 1035 247 975 q 474 1094 383 1094 q 627 1038 564 1094 q 690 883 690 981 q 652 764 690 826 q 567 656 614 701 q 394 436 428 518 q 347 343 360 354 q 325 332 335 332 q 290 421 290 332 q 334 543 290 478 q 430 658 378 608 q 526 767 482 707 q 569 874 569 828 q 540 947 569 919 q 467 974 510 974 q 391 947 424 974 q 358 881 358 921 z "},"@":{"ha":1340,"x_min":60,"x_max":1268,"o":"m 843 1014 q 1153 890 1038 1014 q 1268 574 1268 767 q 1231 394 1268 483 q 1138 241 1194 306 q 1014 137 1082 176 q 894 97 946 97 q 812 126 843 97 q 771 199 781 154 q 561 68 647 68 q 438 122 499 68 q 376 233 376 175 q 413 377 376 292 q 505 540 450 463 q 632 671 560 617 q 767 725 704 725 q 881 665 829 725 q 932 556 932 604 q 903 464 932 507 q 924 422 924 440 q 901 347 924 404 q 878 264 878 289 q 889 223 878 239 q 923 207 900 207 q 984 235 946 207 q 1058 310 1022 264 q 1121 426 1094 357 q 1147 565 1147 494 q 1072 809 1147 715 q 853 903 996 903 q 584 834 710 903 q 373 659 458 765 q 237 425 288 553 q 186 170 186 297 q 262 -39 186 43 q 474 -121 338 -121 q 774 -71 632 -121 q 833 -54 821 -54 q 851 -74 851 -54 q 722 -180 851 -131 q 475 -229 593 -229 q 178 -110 297 -229 q 60 176 60 8 q 117 458 60 313 q 273 728 174 604 q 523 933 372 853 q 843 1014 674 1014 m 776 619 q 655 545 725 619 q 535 378 585 471 q 486 231 486 285 q 507 188 486 206 q 553 171 528 171 q 702 260 615 171 q 817 471 789 350 q 840 492 821 490 l 840 501 q 819 585 836 551 q 776 619 803 619 z "},"A":{"ha":844,"x_min":58,"x_max":783,"o":"m 783 504 q 661 443 783 478 q 672 197 672 299 q 628 22 672 22 q 590 51 604 22 q 568 153 576 81 q 547 414 558 286 q 433 384 485 397 q 278 342 382 371 q 133 22 156 22 q 85 49 111 22 q 60 107 60 76 q 139 304 60 121 l 129 304 q 80 322 101 304 q 58 367 58 340 q 196 439 58 394 q 232 529 218 489 q 321 746 264 608 q 393 922 378 883 q 447 987 408 960 q 521 1014 485 1014 q 598 876 564 1014 q 653 536 632 739 q 721 540 692 540 q 783 504 783 540 m 329 475 q 538 519 428 501 q 489 876 513 757 q 329 475 426 733 z "},"B":{"ha":885,"x_min":8,"x_max":799,"o":"m 799 353 q 714 194 799 271 q 494 70 629 117 q 219 24 360 24 q 73 69 138 24 q 8 155 8 115 q 32 194 8 194 q 87 165 38 194 q 190 133 136 135 q 153 169 171 143 q 136 219 136 196 q 169 351 136 243 q 275 853 272 678 l 264 853 q 213 884 239 853 q 186 935 186 915 q 245 976 186 958 q 388 993 304 993 q 688 940 582 993 q 793 788 793 888 q 723 636 793 704 q 518 526 653 568 l 531 525 q 723 468 647 518 q 799 353 799 418 m 668 781 q 622 852 668 826 q 509 878 575 878 q 349 861 443 878 q 388 781 388 819 q 339 551 388 743 q 443 599 372 572 q 555 647 514 626 q 615 684 596 668 q 651 726 633 700 q 668 781 668 753 m 678 358 q 581 428 678 400 q 389 457 485 457 q 324 496 351 457 q 213 133 239 161 q 419 169 311 136 q 603 254 528 201 q 678 358 678 307 z "},"C":{"ha":832,"x_min":90,"x_max":765,"o":"m 653 997 q 727 951 689 997 q 765 876 765 906 q 755 846 765 846 q 715 856 744 846 q 663 867 686 867 q 531 811 608 867 q 385 674 454 756 q 268 487 317 592 q 219 306 219 382 q 259 194 219 229 q 363 158 299 158 q 494 177 426 158 q 606 219 563 196 q 728 279 717 279 q 751 248 751 279 q 688 165 751 217 q 529 71 624 113 q 360 29 435 29 q 176 113 263 29 q 90 299 90 197 q 176 594 90 429 q 395 878 261 758 q 653 997 529 997 z "},"D":{"ha":896,"x_min":111,"x_max":850,"o":"m 210 1001 q 488 933 340 1001 q 743 745 636 865 q 850 496 850 625 q 733 297 850 411 q 461 101 615 182 q 206 19 307 19 q 145 65 179 19 q 111 156 111 110 q 192 492 111 203 q 279 872 272 781 q 208 919 235 890 q 182 975 182 949 q 210 1001 182 1001 m 722 511 q 619 698 722 597 q 381 843 517 799 q 388 784 388 818 q 363 657 388 750 q 275 346 339 564 q 232 144 249 254 q 447 228 328 157 q 644 382 565 300 q 722 511 722 464 z "},"E":{"ha":813,"x_min":88,"x_max":840,"o":"m 289 463 q 214 175 214 225 q 224 148 214 158 q 251 138 235 138 q 604 189 411 138 q 676 206 667 206 q 697 176 697 206 q 544 74 697 126 q 247 21 390 21 q 135 58 183 21 q 88 153 88 96 q 128 347 88 210 q 211 640 169 485 q 253 903 253 796 q 258 935 253 918 q 561 986 282 986 q 840 946 840 986 q 781 908 840 918 q 648 891 731 899 q 532 880 565 883 q 371 854 499 876 l 371 850 q 319 565 371 756 q 376 564 328 564 q 504 571 424 564 q 626 578 585 578 q 667 558 667 578 q 553 486 667 510 q 289 463 439 463 z "},"F":{"ha":726,"x_min":78,"x_max":818,"o":"m 274 435 l 271 435 q 244 324 268 421 q 213 197 219 226 q 201 149 206 167 q 190 108 196 131 q 180 72 185 85 q 171 46 175 58 q 154 22 163 22 q 107 62 136 22 q 78 126 78 101 q 158 474 78 151 q 240 903 238 796 q 250 936 240 924 q 333 978 264 965 q 534 990 401 990 q 742 976 667 990 q 818 938 818 963 q 794 914 818 921 q 753 903 771 907 q 706 897 735 900 q 651 891 676 893 q 587 885 626 889 q 514 877 547 881 q 424 867 481 874 q 350 858 367 860 q 351 846 351 854 q 297 546 351 781 q 483 550 383 542 q 604 558 582 558 q 657 536 657 558 q 537 464 657 493 q 274 435 417 435 z "},"G":{"ha":849,"x_min":64,"x_max":743,"o":"m 640 867 q 447 771 553 867 q 265 531 340 675 q 190 264 190 388 q 222 178 190 214 q 297 143 254 143 q 453 216 364 143 q 619 404 543 289 q 504 383 542 383 q 440 403 467 383 q 414 442 414 424 q 474 477 414 464 q 624 490 533 490 q 705 448 674 490 q 736 349 736 406 q 667 85 736 293 q 562 -124 597 -124 q 526 -83 526 -124 q 547 22 526 -44 q 589 159 567 89 q 625 274 611 229 q 471 91 557 158 q 303 24 385 24 q 143 99 222 24 q 64 265 64 175 q 153 578 64 406 q 376 873 242 750 q 629 996 511 996 q 706 949 668 996 q 743 874 743 903 q 728 846 743 846 q 697 856 724 846 q 640 867 671 867 z "},"H":{"ha":931,"x_min":92,"x_max":865,"o":"m 167 24 q 121 60 150 24 q 92 131 92 97 q 153 403 92 164 q 122 427 135 410 q 108 467 108 444 q 181 507 108 485 q 274 958 274 871 q 280 991 274 982 q 305 1000 286 1000 q 355 957 324 1000 q 386 860 386 914 q 318 539 386 807 q 678 588 501 576 q 749 958 749 876 q 776 1000 749 1000 q 832 957 800 1000 q 864 867 864 914 q 801 585 864 821 q 865 547 865 575 q 779 500 865 518 q 719 273 735 336 q 693 172 703 210 q 672 97 683 135 q 638 24 653 24 q 592 56 618 24 q 567 124 567 89 q 650 481 567 158 q 285 417 447 453 q 248 277 265 344 q 221 172 231 210 q 200 97 211 135 q 167 24 181 24 z "},"I":{"ha":431,"x_min":94,"x_max":379,"o":"m 165 26 q 157 26 165 26 q 122 60 149 26 q 94 121 94 93 q 177 509 94 149 q 261 956 260 869 q 267 988 261 979 q 294 997 274 997 q 347 954 314 997 q 379 862 379 911 q 279 406 379 813 q 253 298 269 368 q 226 190 236 228 q 206 108 217 153 q 165 26 182 26 z "},"J":{"ha":650,"x_min":11,"x_max":690,"o":"m 11 229 q 36 269 11 269 q 119 200 51 269 q 183 153 146 175 q 257 132 221 132 q 341 228 303 132 q 447 573 379 325 q 557 889 515 821 q 385 853 496 879 q 253 826 275 826 q 201 861 201 826 q 374 957 201 908 q 628 1006 547 1006 q 672 994 653 1006 q 690 962 690 983 q 671 883 690 940 q 558 542 585 632 q 421 115 468 213 q 280 18 374 18 q 99 96 186 18 q 11 229 11 174 z "},"K":{"ha":821,"x_min":75,"x_max":811,"o":"m 146 28 q 101 60 126 28 q 75 128 75 93 q 165 514 75 164 q 256 953 256 864 q 261 988 256 978 q 287 997 267 997 q 335 954 307 997 q 363 856 363 911 q 290 526 363 800 q 557 844 417 699 q 735 989 697 989 q 787 971 763 989 q 811 935 811 953 q 745 858 811 918 q 568 689 679 797 q 378 472 457 581 q 408 349 378 415 q 608 164 457 238 q 710 110 674 132 q 747 64 747 88 q 693 28 747 28 q 579 51 639 28 q 460 115 519 74 q 351 226 400 157 q 283 376 301 294 q 203 175 240 300 q 147 28 157 28 l 146 28 z "},"L":{"ha":758,"x_min":86,"x_max":683,"o":"m 276 965 q 283 997 276 988 q 309 1007 289 1007 q 360 972 329 1007 q 390 899 390 938 q 271 407 390 801 q 211 178 211 215 q 247 140 211 140 q 592 192 404 140 q 663 208 651 208 q 679 203 675 208 q 683 185 683 199 q 541 75 683 126 q 251 24 399 24 q 135 63 185 24 q 86 155 86 101 q 181 539 86 208 q 276 965 276 869 z "},"M":{"ha":1096,"x_min":78,"x_max":1088,"o":"m 257 956 q 263 988 257 979 q 287 997 269 997 q 347 960 304 997 q 393 893 390 922 q 446 716 399 843 q 554 458 493 589 q 750 702 632 550 q 925 918 868 854 q 1007 982 982 982 q 1060 954 1032 982 q 1088 901 1088 926 q 1082 844 1088 876 q 1063 760 1076 813 q 1040 670 1050 708 q 1006 551 1029 632 q 969 423 982 471 q 940 306 957 375 q 913 194 924 238 q 892 108 903 150 q 852 28 871 28 q 815 61 833 28 q 797 151 797 94 q 845 408 797 207 q 949 761 893 610 q 634 379 693 442 q 537 317 575 317 q 465 360 499 317 q 331 701 415 432 q 278 452 307 556 q 241 315 250 349 q 226 258 232 281 q 211 206 219 236 q 197 157 203 176 q 183 115 190 138 q 172 78 176 92 q 161 51 167 64 q 144 28 150 28 q 103 64 128 28 q 78 133 78 100 q 167 517 78 167 q 257 956 257 867 z "},"N":{"ha":940,"x_min":74,"x_max":896,"o":"m 781 944 q 809 1004 783 1004 q 865 972 835 1004 q 896 915 896 940 q 860 592 896 801 q 766 203 825 382 q 654 24 707 24 q 613 42 636 24 q 578 86 590 60 q 332 703 536 183 q 240 338 290 542 q 172 79 189 135 q 143 24 156 24 q 99 55 125 24 q 74 119 74 86 q 164 510 74 153 q 257 957 254 868 q 281 1001 257 1001 q 323 976 296 1001 q 363 919 350 950 q 646 208 586 339 q 767 779 736 447 q 781 944 781 932 z "},"O":{"ha":851,"x_min":75,"x_max":822,"o":"m 473 215 q 518 256 473 215 q 629 417 564 297 q 694 644 694 538 q 653 818 694 751 q 557 885 613 885 q 418 799 501 885 q 268 573 335 713 q 201 306 201 433 q 235 181 201 229 q 313 133 268 133 q 473 215 382 133 m 304 24 q 144 114 213 24 q 75 297 75 204 q 122 554 75 424 q 238 782 168 685 q 393 941 308 879 q 550 1003 478 1003 q 744 897 667 1003 q 822 657 822 790 q 749 377 822 524 q 552 127 675 231 q 304 24 429 24 z "},"P":{"ha":754,"x_min":60,"x_max":776,"o":"m 776 768 q 633 514 776 618 q 253 364 489 410 q 132 21 151 21 q 86 52 113 21 q 60 115 60 83 q 100 281 60 146 q 231 860 225 696 q 197 915 197 890 q 292 982 197 950 q 472 1014 386 1014 q 691 946 606 1014 q 776 768 776 878 m 654 760 q 608 860 654 821 q 496 900 561 900 q 338 858 431 900 q 351 801 351 828 q 283 472 351 724 q 552 595 450 517 q 654 760 654 674 z "},"Q":{"ha":890,"x_min":79,"x_max":843,"o":"m 550 999 q 755 893 667 999 q 843 655 843 788 q 774 377 843 522 q 596 136 704 232 q 644 9 615 82 q 688 -102 674 -64 q 701 -161 701 -140 q 667 -193 701 -193 q 503 72 604 -193 q 329 28 418 28 q 160 111 240 28 q 79 297 79 194 q 125 557 79 426 q 240 783 171 688 q 392 938 308 878 q 550 999 476 999 m 553 265 q 670 451 624 349 q 717 651 717 553 q 667 817 717 750 q 560 883 617 883 q 511 872 538 883 q 479 738 479 828 q 553 265 479 511 m 201 307 q 247 182 201 231 q 344 133 292 133 q 464 182 397 133 q 365 663 365 490 q 375 757 365 717 q 251 543 300 665 q 201 307 201 421 z "},"R":{"ha":811,"x_min":65,"x_max":769,"o":"m 139 22 q 92 53 118 22 q 65 115 65 83 q 142 415 65 146 q 229 825 218 685 q 197 860 211 836 q 183 901 183 883 q 278 967 183 933 q 487 1001 372 1001 q 685 947 601 1001 q 769 792 769 892 q 731 665 769 724 q 638 568 693 606 q 529 501 583 531 q 437 453 475 472 q 399 426 399 435 q 447 347 399 396 q 514 281 494 299 q 565 233 533 263 q 626 179 597 203 q 672 140 654 156 q 707 108 689 125 q 742 57 742 76 q 696 24 742 24 q 458 169 613 24 q 269 415 304 314 q 194 165 204 199 q 172 94 185 131 q 139 22 150 22 m 349 788 q 290 489 349 697 q 381 542 314 507 q 501 608 447 578 q 599 688 554 638 q 643 792 643 738 q 493 878 643 878 q 335 843 425 878 q 349 788 349 813 z "},"S":{"ha":738,"x_min":7,"x_max":706,"o":"m 650 297 q 547 106 650 183 q 312 29 444 29 q 93 98 179 29 q 7 228 7 167 q 32 269 7 269 q 119 203 54 269 q 187 158 144 179 q 276 138 229 138 q 449 188 374 138 q 525 296 525 238 q 475 392 525 333 q 365 502 425 450 q 254 614 304 554 q 204 708 204 674 q 218 782 204 743 q 249 839 232 821 q 417 949 303 899 q 610 999 532 999 q 678 972 650 999 q 706 917 706 946 q 676 894 706 903 q 588 873 647 886 q 483 842 529 860 q 324 724 324 781 q 486 553 324 693 q 599 427 549 499 q 650 297 650 356 z "},"T":{"ha":743,"x_min":88,"x_max":840,"o":"m 394 878 l 157 867 q 111 896 135 867 q 88 953 88 925 q 167 985 88 978 q 518 992 247 992 q 749 961 658 992 q 840 893 840 931 q 794 867 840 867 q 667 872 749 867 q 510 879 585 878 q 514 849 514 865 q 406 371 514 797 q 372 232 394 326 q 339 100 350 138 q 304 26 319 26 q 258 58 283 26 q 232 121 232 89 q 307 449 232 153 q 394 878 382 746 z "},"U":{"ha":831,"x_min":118,"x_max":790,"o":"m 235 957 q 240 990 235 981 q 266 999 246 999 q 319 962 286 999 q 353 876 353 925 q 297 607 353 826 q 240 309 240 388 q 269 182 240 231 q 344 133 299 133 q 446 186 390 133 q 549 324 501 239 q 630 533 597 410 q 663 781 663 656 q 656 897 663 839 q 650 969 650 956 q 675 999 650 999 q 749 951 707 999 q 790 828 790 903 q 728 426 790 614 q 560 127 665 239 q 335 15 454 15 q 183 100 247 15 q 118 294 118 185 q 176 640 118 404 q 235 957 235 875 z "},"V":{"ha":739,"x_min":96,"x_max":824,"o":"m 757 997 q 801 981 779 997 q 824 942 824 965 q 798 869 824 919 q 710 709 772 819 q 603 510 647 599 q 519 335 558 421 q 456 199 479 250 q 411 103 433 149 q 338 18 367 18 q 297 45 321 18 q 260 107 274 72 q 159 538 222 200 q 96 954 96 875 q 119 997 96 997 q 179 967 149 997 q 228 892 210 938 q 269 615 236 867 q 343 204 301 363 q 572 726 432 456 q 757 997 713 997 z "},"W":{"ha":1086,"x_min":100,"x_max":1021,"o":"m 692 999 q 938 869 854 999 q 1021 544 1021 740 q 924 188 1021 349 q 701 28 828 28 q 571 128 613 28 q 517 413 529 228 q 383 226 458 331 q 181 26 239 26 q 129 63 158 26 q 100 153 100 99 q 138 497 100 208 q 175 946 175 785 q 206 997 175 997 q 277 961 236 997 q 318 895 318 925 q 272 601 318 865 q 214 188 225 338 q 405 452 299 331 q 557 574 511 574 q 622 365 604 574 q 649 222 629 288 q 704 157 669 157 q 840 283 782 157 q 897 561 897 408 q 822 822 897 731 q 737 871 783 871 q 658 903 690 871 q 625 958 625 935 q 692 999 625 999 z "},"X":{"ha":867,"x_min":35,"x_max":869,"o":"m 797 993 q 842 964 814 993 q 869 920 869 935 q 860 897 869 906 q 832 875 851 889 q 799 847 813 861 q 497 475 747 797 q 606 308 535 414 q 708 148 676 201 q 739 72 739 94 q 728 38 739 50 q 703 26 717 26 q 588 126 668 26 q 418 374 508 225 q 324 250 346 278 q 279 191 303 222 q 241 142 256 160 q 208 103 226 125 q 176 70 189 82 q 150 47 164 58 q 103 28 125 28 q 58 46 82 28 q 35 75 35 64 q 36 90 35 86 q 41 98 38 93 q 47 106 44 103 q 68 128 49 108 q 357 481 181 250 q 169 961 169 818 q 189 999 169 999 q 269 978 229 999 q 308 932 308 958 q 433 583 308 804 q 694 924 629 854 q 797 993 758 993 z "},"Y":{"ha":799,"x_min":128,"x_max":843,"o":"m 454 518 q 545 637 479 518 q 680 875 611 756 q 778 994 749 994 q 825 974 807 994 q 843 924 843 953 q 790 807 843 894 q 649 576 738 719 q 471 264 560 432 q 349 54 382 96 q 294 13 315 13 q 264 63 264 13 q 303 181 264 101 q 322 220 315 204 q 344 265 329 236 q 368 310 360 294 q 394 360 376 326 q 419 410 411 394 q 269 513 338 431 q 164 698 200 596 q 128 897 128 800 q 183 994 128 994 q 219 951 206 994 q 251 828 232 908 q 303 680 271 747 q 379 565 335 613 q 454 518 424 518 z "},"Z":{"ha":861,"x_min":82,"x_max":781,"o":"m 649 944 q 742 879 703 926 q 781 788 781 832 q 723 669 781 743 q 583 522 665 594 q 417 379 500 449 q 276 256 333 310 q 218 185 218 201 q 228 158 218 168 q 254 149 238 149 q 490 172 328 149 q 699 194 651 194 q 746 161 746 194 q 572 73 746 117 q 222 29 399 29 q 126 77 169 29 q 82 172 82 125 q 142 288 82 218 q 288 431 203 358 q 458 574 374 503 q 665 804 665 744 q 602 848 665 831 q 467 865 539 865 q 335 855 396 865 q 261 844 275 844 q 201 876 231 844 q 172 935 172 908 q 264 978 169 960 q 376 986 313 986 q 649 944 524 986 z "},"[":{"ha":629,"x_min":104,"x_max":764,"o":"m 592 1114 q 764 1067 764 1114 q 750 1042 764 1049 q 725 1031 736 1035 q 694 1025 714 1028 q 656 1020 674 1022 q 607 1014 638 1018 q 492 994 533 1004 q 493 983 493 990 q 326 365 493 875 q 238 56 238 88 q 272 25 238 25 q 385 34 307 25 q 476 43 464 43 q 503 18 503 43 q 415 -54 503 -18 q 263 -90 326 -90 q 152 -56 200 -90 q 104 26 104 -22 q 172 289 104 74 q 306 733 239 504 q 372 1043 372 963 q 374 1054 372 1051 l 374 1056 q 429 1102 375 1090 q 592 1114 483 1114 z "},"\\":{"ha":833,"x_min":172,"x_max":724,"o":"m 724 -28 q 699 -77 724 -47 q 659 -107 675 -107 q 597 -6 643 -107 q 465 301 550 96 q 312 651 381 507 q 208 877 243 794 q 172 991 172 960 q 203 1064 172 1022 q 251 1106 235 1106 q 275 1089 267 1106 q 285 1065 281 1078 q 724 -28 724 49 z "},"]":{"ha":625,"x_min":-7,"x_max":569,"o":"m 435 935 l 363 936 q 239 938 258 936 q 178 968 178 943 q 249 1026 178 1004 q 410 1047 321 1047 q 569 988 569 1047 l 569 981 q 388 4 569 767 q 336 -79 372 -54 q 227 -104 300 -104 q 74 -70 154 -104 q -7 4 -7 -36 q 21 29 -7 29 q 113 21 49 29 q 213 13 176 13 q 256 43 250 13 q 433 919 433 772 q 435 935 433 929 z "},"^":{"ha":586,"x_min":76,"x_max":522,"o":"m 522 793 q 500 768 522 768 q 317 1040 449 768 q 201 868 257 979 q 151 782 163 790 q 124 774 139 774 q 93 788 110 774 q 76 817 76 801 q 163 1031 76 888 q 296 1174 250 1174 q 345 1164 317 1174 q 385 1142 374 1154 q 403 1110 396 1131 q 427 1044 411 1090 q 483 901 443 997 q 522 793 522 806 z "},"_":{"ha":844,"x_min":61,"x_max":768,"o":"m 768 36 q 693 3 768 13 q 453 -13 560 -12 q 247 -22 347 -14 q 122 -29 146 -29 q 79 -5 97 -29 q 61 44 61 19 q 171 81 61 68 q 449 93 281 93 q 707 76 617 93 q 768 36 768 65 z "},"`":{"ha":296,"x_min":14,"x_max":282,"o":"m 24 1069 q 21 1073 24 1069 q 16 1082 18 1076 q 14 1104 14 1088 q 35 1147 14 1121 q 81 1172 56 1172 q 133 1136 99 1172 q 157 1110 142 1126 q 182 1083 172 1093 q 279 969 272 992 q 282 951 282 963 q 270 926 282 939 q 246 914 258 914 q 219 923 233 914 q 178 953 204 932 q 136 985 151 974 q 103 1008 121 996 q 76 1026 85 1021 q 56 1041 68 1032 q 37 1056 43 1050 q 24 1069 31 1061 z "},"a":{"ha":651,"x_min":10,"x_max":581,"o":"m 413 710 q 528 647 475 710 q 581 533 581 583 q 546 429 581 482 q 563 393 563 408 q 545 260 563 354 q 524 136 528 165 q 518 90 521 107 q 511 56 515 72 q 486 21 506 21 q 445 65 461 21 q 426 178 429 108 q 197 21 303 21 q 72 76 133 21 q 10 189 10 131 q 71 395 10 272 q 229 614 132 518 q 413 710 326 710 m 476 465 q 425 594 476 594 q 299 517 371 594 q 176 343 226 440 q 126 189 126 246 q 146 151 126 165 q 192 136 165 136 q 339 224 257 136 q 453 439 421 313 q 476 464 457 460 l 476 465 z "},"b":{"ha":729,"x_min":31,"x_max":703,"o":"m 103 21 q 57 51 83 21 q 31 107 31 81 q 74 288 31 133 q 162 659 118 442 q 206 1057 206 876 q 236 1099 206 1099 q 290 1058 258 1099 q 322 978 322 1017 q 247 490 322 807 q 547 714 413 714 q 658 650 613 714 q 703 498 703 586 q 652 296 703 410 q 515 101 601 182 q 335 19 429 19 q 149 115 240 19 l 147 114 q 103 21 117 21 m 324 128 q 501 251 414 128 q 588 510 588 374 q 538 592 588 592 q 358 479 457 592 q 186 211 258 367 q 324 128 251 128 z "},"c":{"ha":618,"x_min":44,"x_max":576,"o":"m 267 21 q 227 21 267 21 q 115 84 186 21 q 44 234 44 147 q 103 435 44 321 q 253 629 161 549 q 433 710 346 710 q 533 658 490 710 q 576 568 576 607 q 569 549 576 557 q 549 542 563 542 q 503 567 536 542 q 443 592 469 592 q 268 460 368 592 q 168 229 168 328 q 195 161 168 186 q 283 136 222 136 q 394 151 343 136 q 472 180 444 165 q 515 194 500 194 q 542 168 542 194 q 445 74 542 128 q 267 21 349 21 z "},"d":{"ha":693,"x_min":25,"x_max":725,"o":"m 638 1099 q 692 1058 660 1099 q 725 981 725 1017 q 690 776 725 944 q 610 426 656 607 q 478 21 510 21 q 435 45 458 21 q 413 88 413 69 q 422 160 413 106 q 185 21 286 21 q 74 76 124 21 q 25 192 25 132 q 72 397 25 278 q 206 613 118 515 q 392 710 293 710 q 529 592 490 710 q 607 1057 600 886 q 638 1099 607 1099 m 485 417 q 459 543 485 492 q 397 594 433 594 q 275 521 338 594 q 176 352 213 447 q 139 188 139 257 q 157 147 139 163 q 200 132 175 132 q 347 210 254 132 q 481 393 439 288 l 485 410 l 485 417 z "},"e":{"ha":625,"x_min":26,"x_max":597,"o":"m 597 480 q 597 443 597 480 q 517 359 597 406 q 337 313 438 313 q 154 335 236 313 q 135 226 135 274 q 165 151 135 178 q 263 125 194 125 q 405 149 332 125 q 485 174 478 174 q 521 146 521 174 q 436 65 521 108 q 271 21 351 21 q 94 85 163 21 q 26 249 26 150 q 79 455 26 347 q 215 636 132 563 q 381 710 299 710 q 530 632 463 710 q 597 480 597 554 m 388 600 q 281 547 336 600 q 186 414 225 493 q 313 401 242 401 q 436 424 383 401 q 489 485 489 447 q 455 561 489 522 q 388 600 421 600 z "},"f":{"ha":522,"x_min":43,"x_max":640,"o":"m 143 18 q 104 44 125 18 q 83 88 83 71 q 97 153 83 104 q 192 510 167 403 q 110 496 132 496 q 65 515 88 496 q 43 558 43 535 q 106 600 43 582 q 217 625 186 619 q 238 728 231 692 q 328 1004 271 919 q 482 1089 385 1089 q 596 1034 551 1089 q 640 905 640 979 q 601 831 640 831 q 547 906 568 831 q 524 957 540 933 q 483 981 507 981 q 440 959 460 981 q 406 897 421 938 q 350 692 365 785 l 339 643 q 441 650 390 650 q 515 639 492 650 q 538 611 538 628 q 492 571 538 585 q 313 535 446 557 q 178 58 214 135 q 143 18 158 18 z "},"g":{"ha":660,"x_min":-21,"x_max":593,"o":"m 593 396 q 544 269 593 340 q 464 26 507 185 q 392 -201 421 -133 q 213 -343 333 -343 q 47 -290 114 -343 q -21 -183 -21 -236 q -8 -139 -21 -161 q 20 -117 6 -117 q 53 -137 35 -117 q 87 -183 71 -158 q 135 -228 103 -207 q 199 -249 168 -249 q 244 -240 229 -249 q 274 -210 260 -231 q 297 -170 288 -190 q 319 -113 307 -150 q 338 -50 331 -76 q 357 24 344 -24 q 378 101 369 72 q 201 21 269 21 q 83 76 133 21 q 33 203 33 131 q 88 397 33 276 q 236 614 143 518 q 418 710 329 710 q 514 667 475 710 q 578 465 578 596 q 576 442 578 449 q 593 396 593 418 m 146 189 q 161 151 146 165 q 200 136 176 136 q 364 219 269 136 q 497 411 458 301 q 488 467 492 429 q 479 526 483 504 q 461 572 475 549 q 425 594 447 594 q 303 517 371 594 q 190 343 235 439 q 146 189 146 247 z "},"h":{"ha":744,"x_min":32,"x_max":689,"o":"m 207 1044 q 240 1099 207 1099 q 297 1057 267 1099 q 326 976 326 1015 q 281 669 326 886 q 164 235 236 451 q 397 598 303 486 q 557 710 490 710 q 641 647 593 710 q 689 522 689 585 q 654 335 689 460 q 492 21 568 21 q 461 63 461 21 q 494 203 461 104 q 568 493 568 418 q 556 535 568 518 q 525 551 543 551 q 481 532 507 551 q 417 464 454 513 q 319 324 369 401 q 258 230 268 246 q 222 172 247 214 q 183 110 196 131 q 153 67 171 90 q 104 21 121 21 q 60 52 88 21 q 32 105 32 83 q 47 186 32 126 q 135 551 117 453 q 207 1044 207 913 z "},"i":{"ha":331,"x_min":39,"x_max":375,"o":"m 221 907 q 221 921 221 907 q 243 960 221 935 q 288 985 265 985 q 343 928 311 985 q 375 835 375 872 q 363 810 375 821 q 336 799 350 799 q 262 839 303 799 q 221 907 221 879 m 214 710 q 264 678 240 710 q 288 615 288 646 q 247 433 288 585 q 146 92 207 281 q 86 22 122 22 q 53 38 67 22 q 39 74 39 54 q 49 138 39 94 q 80 255 60 182 q 112 374 100 328 q 136 477 124 419 q 156 570 149 535 q 174 642 164 606 q 214 710 193 710 z "},"j":{"ha":353,"x_min":-307,"x_max":393,"o":"m -207 -168 q -108 -244 -147 -244 q -43 -203 -69 -244 q 8 -72 -17 -161 q 56 113 33 18 q 113 363 78 207 q 182 642 149 518 q 222 710 203 710 q 271 680 246 710 q 296 615 296 650 q 253 422 296 583 q 176 131 210 260 q 111 -122 143 1 q -106 -340 51 -340 q -241 -282 -175 -340 q -307 -182 -307 -224 q -292 -140 -307 -164 q -265 -115 -278 -115 q -233 -135 -250 -115 q -207 -168 -217 -156 m 239 907 q 239 921 239 907 q 261 960 239 935 q 307 985 283 985 q 362 928 331 985 q 393 835 393 872 q 381 810 393 821 q 356 799 368 799 q 281 839 322 799 q 239 907 239 879 z "},"k":{"ha":651,"x_min":40,"x_max":657,"o":"m 657 635 q 533 504 657 622 q 449 399 488 460 q 411 289 411 339 q 441 197 411 239 q 506 133 471 154 q 572 90 542 111 q 601 56 601 69 q 547 21 601 21 q 416 83 492 21 q 322 221 340 144 q 311 247 315 235 q 174 70 217 119 q 111 21 132 21 q 65 53 90 21 q 40 108 40 86 q 85 287 40 129 q 176 665 131 444 q 221 1060 221 886 q 227 1090 221 1082 q 254 1099 233 1099 q 306 1058 275 1099 q 336 978 336 1017 q 286 632 336 854 q 167 210 236 410 q 438 572 324 433 q 580 710 553 710 q 632 683 607 710 q 657 635 657 657 z "},"l":{"ha":340,"x_min":40,"x_max":317,"o":"m 317 982 q 208 304 317 721 q 111 21 139 21 q 66 51 92 21 q 40 99 40 82 q 81 271 40 115 q 161 653 121 426 q 201 1063 201 881 q 207 1090 201 1082 q 231 1099 213 1099 q 283 1059 249 1099 q 317 982 317 1019 z "},"m":{"ha":1106,"x_min":31,"x_max":1049,"o":"m 942 710 q 1016 652 983 710 q 1049 522 1049 594 q 1023 332 1049 449 q 954 118 997 215 q 869 21 911 21 q 840 59 840 21 q 888 247 840 97 q 936 484 936 396 q 908 572 936 572 q 828 511 874 572 q 732 364 783 450 q 676 272 681 278 q 666 254 672 265 q 652 231 660 243 q 613 156 644 218 q 558 58 582 93 q 517 22 535 22 q 479 44 500 22 q 458 86 458 67 q 483 167 458 106 q 556 503 556 347 q 543 552 556 532 q 515 572 531 572 q 483 559 500 572 q 442 512 467 546 q 397 447 417 478 q 338 352 378 417 q 278 256 299 288 q 232 184 258 225 q 191 121 206 143 q 158 72 176 99 q 103 21 121 21 q 58 52 86 21 q 31 99 31 83 q 36 139 31 115 q 48 185 42 163 q 67 251 54 207 q 98 353 81 294 q 124 516 115 413 q 138 667 133 619 q 161 715 142 715 q 222 683 192 715 q 251 619 251 651 q 160 217 251 497 q 356 563 315 508 q 425 650 396 617 q 535 710 479 710 q 615 652 568 710 q 661 536 661 594 q 644 392 661 478 q 942 710 808 710 z "},"n":{"ha":740,"x_min":32,"x_max":683,"o":"m 179 263 q 397 599 313 489 q 534 710 481 710 q 635 653 588 710 q 683 532 683 596 q 638 288 683 432 q 488 21 554 21 q 457 63 457 21 q 487 181 457 92 q 542 358 517 271 q 568 488 568 444 q 555 553 568 532 q 528 574 542 574 q 501 565 515 574 q 470 538 488 557 q 438 499 453 518 q 399 446 422 481 q 361 387 376 411 q 317 317 346 363 q 272 247 288 271 q 232 183 257 224 q 192 121 207 143 q 160 72 178 99 q 105 21 125 21 q 58 52 85 21 q 32 107 32 83 q 42 144 32 114 q 100 344 68 225 q 135 614 132 463 q 164 715 139 715 q 225 683 194 715 q 256 613 256 651 q 233 466 256 575 q 179 263 210 357 z "},"o":{"ha":629,"x_min":50,"x_max":579,"o":"m 463 474 q 447 563 463 521 q 403 625 432 606 q 238 477 307 599 q 169 249 169 356 q 222 115 169 142 q 392 252 322 135 q 463 474 463 369 m 98 461 q 122 515 98 461 q 224 640 146 569 q 385 710 303 710 q 524 640 468 710 q 579 469 579 569 q 531 263 579 368 q 397 90 482 158 q 215 21 311 21 q 97 86 144 21 q 50 252 50 151 q 98 461 50 353 z "},"p":{"ha":664,"x_min":-53,"x_max":644,"o":"m 497 714 q 601 638 557 714 q 644 480 644 561 q 597 317 644 399 q 481 172 550 236 q 327 66 411 108 q 172 24 243 24 q 119 31 144 24 q 100 -54 114 7 q 76 -156 86 -115 q 54 -242 67 -196 q 10 -336 29 -336 q -31 -306 -10 -336 q -53 -253 -53 -276 q -8 -50 -53 -229 q 125 678 125 490 q 156 719 125 719 q 216 683 181 719 q 251 601 251 646 q 246 553 251 579 q 497 714 369 714 m 158 132 q 317 182 232 132 q 463 315 403 232 q 524 479 524 397 q 469 594 524 594 q 323 501 415 594 q 176 260 231 408 l 144 132 l 158 132 z "},"q":{"ha":658,"x_min":22,"x_max":599,"o":"m 550 -108 q 576 -120 564 -108 q 589 -146 589 -132 q 534 -201 589 -168 q 431 -268 479 -233 q 354 -322 382 -303 q 310 -340 326 -340 q 275 -310 293 -340 q 257 -264 257 -281 q 259 -237 257 -247 q 267 -208 261 -226 q 279 -172 272 -190 q 298 -119 286 -153 q 321 -56 310 -86 q 351 25 332 -26 q 386 121 369 76 q 283 48 339 75 q 179 21 228 21 q 76 79 131 21 q 22 198 22 138 q 60 347 22 258 q 156 515 99 435 q 290 653 213 596 q 430 710 367 710 q 544 658 493 710 q 596 572 596 607 q 572 536 596 536 q 519 567 556 536 q 454 599 482 599 q 315 520 393 599 q 183 344 236 442 q 131 189 131 247 q 146 151 131 167 q 183 136 161 136 q 357 222 260 136 q 489 443 454 308 q 517 464 494 464 q 569 442 539 464 q 599 401 599 421 q 575 315 599 381 q 494 97 551 249 q 393 -176 436 -54 q 550 -108 494 -108 z "},"r":{"ha":460,"x_min":46,"x_max":522,"o":"m 126 540 l 122 644 q 153 710 122 710 q 203 676 179 710 q 228 595 228 642 q 225 525 228 549 q 454 708 346 708 q 522 675 522 708 q 507 644 522 658 q 458 613 492 631 q 334 515 385 581 q 251 365 283 449 q 201 225 219 282 q 172 136 182 168 q 150 74 163 104 q 99 18 128 18 q 60 45 75 18 q 46 98 46 72 q 69 200 46 124 q 126 540 126 375 z "},"s":{"ha":592,"x_min":8,"x_max":571,"o":"m 440 710 q 529 658 488 710 q 571 567 571 606 q 549 543 571 543 q 501 567 533 543 q 436 592 469 592 q 331 553 403 592 q 260 471 260 514 q 388 361 260 439 q 476 283 436 331 q 515 180 515 235 q 440 73 515 125 q 263 21 364 21 q 85 69 163 21 q 8 161 8 118 q 17 190 8 179 q 40 200 26 200 q 79 182 54 200 q 235 128 154 128 q 353 147 317 128 q 389 197 389 165 q 349 263 389 228 q 260 326 308 299 q 172 394 213 354 q 132 476 132 435 q 248 630 132 550 q 440 710 364 710 z "},"t":{"ha":538,"x_min":39,"x_max":551,"o":"m 199 160 q 229 133 199 133 q 358 163 282 133 q 442 193 433 193 q 467 167 467 193 q 384 74 467 126 q 234 21 301 21 q 122 58 167 21 q 78 133 78 94 q 94 233 78 172 q 142 392 111 293 q 192 557 174 492 q 104 542 126 542 q 60 565 82 542 q 39 608 39 588 q 219 672 39 642 q 244 876 244 788 q 272 918 244 918 q 331 888 296 918 q 365 821 365 858 q 342 689 365 783 q 468 696 421 696 q 551 660 551 696 q 506 625 551 639 q 317 582 461 611 q 243 331 288 472 q 199 160 199 190 z "},"u":{"ha":668,"x_min":22,"x_max":643,"o":"m 535 671 q 546 701 540 693 q 570 710 551 710 q 616 674 589 710 q 643 604 643 638 q 582 390 643 586 q 488 79 521 194 q 440 21 471 21 q 410 36 422 21 q 397 92 397 51 q 429 238 397 132 q 303 82 371 143 q 178 21 235 21 q 72 74 122 21 q 22 182 22 126 q 99 512 22 314 q 228 710 176 710 q 272 687 253 710 q 290 635 290 664 q 253 545 290 622 q 178 365 215 468 q 140 183 140 261 q 154 147 140 161 q 188 132 168 132 q 313 225 240 132 q 446 442 386 318 q 535 671 506 565 z "},"v":{"ha":586,"x_min":65,"x_max":590,"o":"m 522 710 q 568 692 546 710 q 590 654 590 675 q 490 394 590 617 q 347 95 389 172 q 272 18 304 18 q 228 44 254 18 q 189 101 201 71 q 108 383 151 189 q 65 668 65 578 q 90 710 65 710 q 153 684 121 710 q 197 619 185 658 q 208 508 201 597 q 275 171 228 289 q 371 399 313 251 q 466 628 429 547 q 522 710 503 710 z "},"w":{"ha":935,"x_min":65,"x_max":938,"o":"m 601 563 l 592 301 q 601 144 592 193 q 705 291 661 207 q 770 447 749 375 q 808 583 792 519 q 838 683 824 646 q 869 721 851 721 q 917 699 896 721 q 938 650 938 678 q 874 417 938 579 q 732 142 819 267 q 596 18 644 18 q 523 72 547 18 q 496 280 499 126 q 500 546 493 433 q 331 151 404 285 q 214 18 257 18 q 173 36 194 18 q 139 83 151 54 q 87 365 108 157 q 65 661 65 572 q 100 718 65 718 q 156 683 131 718 q 186 615 182 649 q 194 426 190 581 q 219 150 197 271 q 334 397 276 249 q 428 631 392 546 q 496 715 465 715 q 572 673 542 715 q 601 563 601 631 z "},"x":{"ha":593,"x_min":-14,"x_max":614,"o":"m 288 436 q 455 649 400 588 q 536 710 510 710 q 588 688 563 710 q 614 649 614 665 q 604 623 614 633 q 573 594 594 613 q 533 556 551 576 q 485 501 514 536 q 415 413 456 465 q 347 329 374 361 q 373 288 356 317 q 402 239 390 258 q 433 190 414 219 q 464 141 451 160 q 488 103 476 122 q 510 53 510 67 q 500 30 510 39 q 476 21 490 21 q 276 244 414 21 q 56 21 94 21 q 10 44 33 21 q -14 86 -14 67 q 17 124 -14 93 q 218 343 151 258 q 110 554 154 457 q 65 672 65 651 q 67 697 65 692 q 97 710 69 710 q 165 693 125 710 q 206 653 206 676 q 288 436 206 594 z "},"y":{"ha":651,"x_min":-26,"x_max":660,"o":"m 586 710 q 597 710 586 710 q 634 677 608 710 q 660 604 660 644 q 603 415 660 576 q 526 197 546 254 q 472 44 506 139 q 406 -142 438 -51 q 197 -340 336 -340 q 46 -292 118 -340 q -26 -193 -26 -244 q -9 -150 -26 -174 q 21 -126 8 -126 q 61 -157 33 -126 q 199 -249 142 -249 q 276 -173 242 -249 q 342 -2 311 -97 q 377 103 374 93 q 385 128 381 113 q 394 156 390 143 q 200 21 296 21 q 92 75 142 21 q 43 203 43 129 q 79 401 43 276 q 164 618 115 526 q 243 710 213 710 q 290 687 268 710 q 311 640 311 664 q 275 542 311 617 q 163 183 163 311 q 176 147 163 161 q 210 132 190 132 q 329 221 260 132 q 457 432 399 310 q 558 694 506 535 q 586 710 564 710 z "},"z":{"ha":611,"x_min":4,"x_max":571,"o":"m 75 654 q 136 695 75 681 q 303 710 197 710 q 478 682 410 710 q 534 631 508 669 q 560 568 560 593 q 495 447 560 515 q 354 326 431 379 q 213 225 278 274 q 149 160 149 176 q 185 136 149 136 q 379 147 264 136 q 517 158 494 158 q 571 126 571 158 q 432 51 571 82 q 164 21 293 21 q 54 66 104 21 q 4 149 4 111 q 74 249 4 186 q 228 369 144 313 q 451 564 451 525 q 310 590 451 590 q 224 583 275 590 q 149 575 172 575 q 101 604 126 575 q 75 654 75 633 z "},"{":{"ha":585,"x_min":57,"x_max":686,"o":"m 254 469 l 247 469 q 254 409 254 444 q 217 276 254 374 q 179 107 179 179 q 219 6 179 35 q 322 -24 258 -24 q 404 -32 386 -24 q 422 -65 422 -40 q 382 -110 422 -89 q 292 -132 342 -132 q 125 -62 193 -132 q 57 94 57 7 q 103 289 57 181 q 150 465 150 397 q 129 515 150 482 q 90 585 90 547 q 95 606 90 596 q 110 617 100 617 q 160 592 119 617 q 233 567 201 567 q 285 587 264 567 q 307 638 307 607 q 274 768 307 668 q 242 964 242 868 q 317 1128 242 1060 q 486 1197 393 1197 q 633 1145 579 1197 q 686 1021 686 1093 q 665 951 686 988 q 621 915 643 915 q 601 973 601 915 q 584 1057 601 1031 q 508 1083 567 1083 q 401 1039 449 1083 q 355 911 354 994 q 386 736 356 828 q 417 613 417 644 q 372 513 417 557 q 254 469 328 469 z "},"|":{"ha":511,"x_min":93,"x_max":454,"o":"m 170 -187 q 160 -187 170 -187 q 122 -156 150 -187 q 93 -99 93 -125 q 213 478 93 -74 q 333 1108 333 1031 q 340 1140 333 1131 q 367 1150 346 1150 q 421 1109 388 1150 q 454 1024 454 1068 q 342 504 454 979 q 289 267 333 469 q 170 -187 190 -187 z "},"}":{"ha":747,"x_min":107,"x_max":719,"o":"m 635 494 q 582 435 635 457 q 496 197 510 394 q 478 46 490 121 q 424 -78 467 -29 q 303 -128 381 -128 q 167 -87 226 -128 q 107 -8 107 -47 q 129 31 107 31 q 167 15 151 31 q 289 -32 214 -32 q 359 24 336 -32 q 385 152 382 79 q 403 312 388 225 q 451 444 418 399 q 379 503 407 465 q 351 585 351 540 q 390 684 351 631 q 473 781 428 738 q 556 881 518 825 q 594 984 594 936 q 558 1064 594 1032 q 480 1096 522 1096 q 410 1078 438 1096 q 366 1039 382 1060 q 334 1000 350 1018 q 303 982 318 982 q 265 1008 289 982 q 242 1050 242 1033 q 320 1147 242 1097 q 482 1197 399 1197 q 642 1131 565 1197 q 719 997 719 1064 q 680 867 719 931 q 592 761 640 804 q 465 592 465 644 q 543 519 465 529 q 568 517 554 518 q 635 494 635 510 z "},"~":{"ha":825,"x_min":111,"x_max":746,"o":"m 111 379 q 185 522 111 446 q 332 597 260 597 q 402 574 369 597 q 453 521 435 550 q 499 466 472 492 q 554 436 526 440 q 606 463 582 440 q 642 508 629 485 q 710 572 674 572 q 746 524 746 572 q 687 390 746 457 q 558 322 628 322 q 344 500 456 322 q 275 453 306 483 q 231 399 244 424 q 160 335 193 335 q 111 379 111 335 z "}," ":{"ha":557,"x_min":0,"x_max":0,"o":""},"¡":{"ha":492,"x_min":115,"x_max":435,"o":"m 435 712 q 435 697 435 712 q 412 653 435 682 q 365 625 389 625 q 307 692 340 625 q 274 793 274 758 q 288 815 274 803 q 315 828 301 828 q 392 785 349 828 q 435 712 435 742 m 232 -301 q 160 -268 206 -301 q 115 -215 115 -235 q 175 201 115 -96 q 272 497 235 497 q 313 475 294 497 q 333 436 332 453 q 315 327 333 419 q 276 69 296 235 q 256 -265 256 -96 q 232 -301 256 -301 z "},"¢":{"ha":669,"x_min":67,"x_max":628,"o":"m 515 851 q 543 835 533 851 q 553 799 553 818 q 528 704 553 779 q 599 641 569 682 q 628 572 628 600 q 606 543 628 543 q 549 570 588 543 q 499 603 511 597 q 435 367 476 522 q 378 154 393 211 q 491 183 438 161 q 560 204 544 204 q 586 178 586 204 q 507 99 586 144 q 346 40 428 54 q 285 -99 303 -99 q 259 -85 272 -99 q 246 -57 246 -71 q 264 40 246 -43 q 128 115 189 54 q 67 243 67 175 q 192 547 67 385 q 444 722 317 710 q 515 851 490 851 m 190 246 q 217 181 190 207 q 289 150 244 154 q 403 589 340 382 q 258 435 326 544 q 190 246 190 325 z "},"£":{"ha":913,"x_min":64,"x_max":899,"o":"m 790 708 l 797 763 q 740 825 797 825 q 666 770 701 825 q 576 554 631 715 l 588 554 q 758 549 719 554 q 796 526 796 544 q 546 454 796 472 q 454 204 496 297 q 596 119 536 119 q 670 138 635 119 q 726 181 706 157 q 807 240 782 240 q 847 222 832 240 q 863 178 863 204 q 774 70 863 129 q 613 11 685 11 q 401 111 510 11 q 244 21 336 21 q 128 86 193 21 q 64 213 64 151 q 107 315 64 274 q 218 356 150 356 q 363 294 286 356 q 414 450 393 378 q 265 486 265 450 q 283 538 265 511 q 318 565 301 565 q 446 558 372 565 q 581 866 513 782 q 749 950 649 950 q 856 899 813 950 q 899 781 899 847 q 865 717 899 750 q 811 685 832 685 q 790 708 790 685 m 251 119 q 319 194 281 119 q 228 254 260 254 q 175 206 175 254 q 201 151 175 182 q 251 119 228 119 z "},"¤":{"ha":833,"x_min":118,"x_max":747,"o":"m 747 689 q 747 681 747 689 q 721 646 747 672 q 674 601 694 619 q 642 569 654 582 q 672 454 672 519 q 586 246 672 332 q 654 124 654 139 q 644 100 654 108 q 621 92 635 92 q 504 189 579 92 q 407 169 461 169 q 307 194 353 169 q 188 92 214 92 q 140 114 163 92 q 118 148 118 136 q 129 172 118 160 q 173 217 140 185 q 226 271 206 249 q 192 397 192 325 q 258 576 192 496 q 222 639 244 603 q 178 722 178 708 q 199 751 178 751 q 274 738 236 751 q 320 701 313 724 q 344 647 328 678 q 453 674 397 674 q 551 653 508 674 q 676 751 636 751 q 722 728 697 751 q 747 689 747 706 m 444 586 q 414 586 444 586 q 340 527 385 586 q 296 403 296 468 q 332 299 296 339 q 426 260 368 260 q 529 319 485 260 q 573 440 574 378 q 538 544 572 501 q 444 586 503 586 z "},"¥":{"ha":782,"x_min":40,"x_max":794,"o":"m 508 519 q 633 513 574 519 q 692 478 692 506 q 428 417 692 438 q 415 339 424 382 q 557 343 499 343 q 679 313 679 343 q 392 231 679 268 l 392 228 q 376 154 383 193 q 363 93 368 115 q 353 50 358 71 q 333 14 344 14 q 282 42 313 14 q 251 99 251 69 q 274 217 251 128 q 90 206 154 206 q 57 231 74 206 q 40 275 40 257 q 297 329 40 308 q 307 406 301 357 q 125 393 185 393 q 93 417 110 393 q 76 463 76 440 q 286 511 76 496 q 183 726 235 606 q 132 890 132 846 q 158 935 132 935 q 220 912 189 935 q 268 851 251 889 q 305 745 268 850 q 388 560 342 640 q 454 644 399 574 q 539 750 510 715 q 613 836 568 785 q 731 935 697 935 q 773 918 751 935 q 794 891 794 901 q 788 869 794 881 q 769 839 782 857 q 742 803 756 821 q 706 759 728 785 q 666 713 683 733 q 622 662 649 692 q 578 613 594 632 q 533 564 561 594 q 493 519 506 533 l 508 519 z "},"¦":{"ha":513,"x_min":94,"x_max":456,"o":"m 338 597 q 290 628 318 597 q 261 686 261 660 q 298 872 261 713 q 335 1108 335 1031 q 341 1140 335 1131 q 367 1150 347 1150 q 422 1109 388 1150 q 456 1022 456 1068 q 408 787 456 976 q 338 597 361 597 m 171 -187 q 123 -156 151 -187 q 94 -99 94 -125 q 131 86 94 -74 q 167 324 167 246 q 197 365 167 365 q 254 324 221 365 q 288 238 288 283 q 241 3 288 193 q 171 -187 194 -187 z "},"§":{"ha":644,"x_min":3,"x_max":621,"o":"m 469 942 q 383 906 424 942 q 343 838 343 871 q 368 770 343 804 q 430 699 393 736 q 503 622 467 663 q 564 528 539 582 q 589 413 589 474 q 528 290 589 353 q 376 201 467 226 q 440 51 440 131 q 377 -88 440 -28 q 207 -149 314 -149 q 66 -97 129 -149 q 3 -3 3 -44 q 19 53 3 22 q 49 83 35 83 q 72 70 63 83 q 89 42 81 57 q 203 -40 138 -40 q 315 61 315 -40 q 231 193 315 117 q 158 258 194 225 q 74 421 74 342 q 140 570 74 500 q 292 682 206 640 q 224 826 224 763 q 313 981 224 908 q 488 1054 401 1054 q 581 1003 540 1054 q 621 883 621 951 q 582 814 621 814 q 527 878 547 814 q 469 942 507 942 m 307 269 q 419 325 371 278 q 467 420 467 372 q 440 509 467 468 q 361 606 413 550 q 196 422 196 522 q 215 367 196 396 q 251 321 233 338 q 307 269 268 304 z "},"¨":{"ha":379,"x_min":14,"x_max":365,"o":"m 244 1123 q 254 1135 244 1123 q 286 1147 264 1147 q 337 1093 308 1147 q 365 1018 365 1039 q 353 985 365 997 q 329 972 342 972 q 261 1009 299 972 q 224 1072 224 1046 q 244 1123 224 1099 m 14 1072 q 14 1085 14 1072 q 35 1123 14 1099 q 77 1147 56 1147 q 128 1093 99 1147 q 157 1018 157 1039 q 144 985 157 997 q 119 972 132 972 q 51 1009 89 972 q 14 1072 14 1046 z "},"©":{"ha":983,"x_min":110,"x_max":963,"o":"m 963 561 q 816 219 963 356 q 454 83 669 83 q 200 181 290 83 q 110 429 110 278 q 263 767 110 618 q 606 917 417 917 q 865 816 768 917 q 963 561 963 715 m 439 157 q 750 266 636 157 q 864 574 864 375 q 798 766 864 690 q 636 842 732 842 q 488 812 564 842 q 349 728 413 782 q 244 589 285 674 q 204 396 204 504 q 269 222 204 288 q 439 157 333 157 m 628 754 q 673 729 650 754 q 696 683 696 704 q 678 663 696 663 q 657 667 671 663 q 631 672 643 672 q 494 578 575 672 q 414 396 414 483 q 432 355 414 371 q 475 339 450 339 q 599 367 535 339 q 668 396 664 396 q 688 372 688 396 q 613 299 688 343 q 481 256 539 256 q 374 301 422 256 q 325 399 325 347 q 426 629 325 504 q 628 754 526 754 z "},"ª":{"ha":658,"x_min":129,"x_max":564,"o":"m 564 925 q 554 882 564 908 q 556 867 556 878 q 542 792 556 856 q 529 649 529 729 q 506 568 529 568 q 469 599 486 568 q 447 672 451 629 q 272 568 363 568 q 174 613 218 568 q 129 705 129 658 q 150 812 129 751 q 206 931 171 872 q 295 1030 240 989 q 408 1071 350 1071 q 515 1019 467 1071 q 564 925 564 968 m 225 713 q 277 657 225 657 q 390 728 329 657 q 482 910 451 800 q 458 957 478 936 q 411 978 439 978 q 285 881 346 978 q 225 713 225 785 z "},"«":{"ha":913,"x_min":53,"x_max":993,"o":"m 921 658 q 970 640 947 658 q 993 607 993 622 q 917 567 993 583 q 674 501 776 538 q 571 438 571 464 q 742 345 571 413 q 914 254 914 278 q 869 228 914 228 q 620 306 788 228 q 453 439 453 385 q 471 482 453 456 q 507 521 489 508 q 711 610 563 561 q 921 658 860 658 m 489 690 q 538 675 515 690 q 560 644 560 660 q 511 608 560 622 q 278 519 389 569 q 168 442 168 468 q 254 376 168 418 q 427 295 340 335 q 514 239 514 256 q 456 210 514 210 q 226 295 399 210 q 53 431 53 381 q 69 479 53 450 q 101 519 86 508 q 297 628 160 567 q 489 690 435 690 z "},"¬":{"ha":689,"x_min":11,"x_max":769,"o":"m 564 554 l 149 550 q 53 583 96 550 q 11 643 11 615 q 36 671 11 671 l 421 665 q 696 651 642 665 q 749 603 729 642 q 769 514 769 564 q 722 365 769 464 q 613 188 675 265 q 513 110 551 110 q 486 135 486 110 q 526 217 486 147 q 646 522 646 419 q 564 554 646 554 z "},"­":{"ha":833,"x_min":74,"x_max":586,"o":"m 586 456 q 541 419 586 433 q 323 371 496 406 q 134 336 150 336 q 96 360 118 336 q 74 403 74 383 q 231 462 74 433 q 503 490 388 490 q 586 456 586 490 z "},"®":{"ha":818,"x_min":119,"x_max":700,"o":"m 119 669 q 224 899 119 797 q 448 1000 328 1000 q 634 932 568 1000 q 700 758 700 864 q 601 526 700 618 q 354 433 501 433 q 181 499 242 433 q 119 669 119 565 m 344 485 q 553 558 476 485 q 631 767 631 632 q 587 897 631 846 q 478 947 543 947 q 278 865 371 947 q 186 651 186 783 q 229 528 186 572 q 344 485 272 485 m 322 567 q 305 578 315 567 q 294 599 294 589 q 317 690 294 610 q 344 814 340 771 q 326 842 326 826 q 358 866 326 854 q 429 878 390 878 q 497 860 468 878 q 525 810 525 843 q 496 750 525 776 q 438 711 467 724 q 410 697 410 699 q 464 638 410 681 q 488 617 475 626 q 506 600 500 607 q 518 581 518 589 q 497 567 518 567 q 431 604 475 567 q 365 676 386 642 l 364 674 q 322 567 333 567 m 474 808 q 432 828 474 828 q 390 819 415 828 q 393 799 393 814 q 378 728 393 785 q 467 788 453 765 q 474 808 474 797 z "},"¯":{"ha":507,"x_min":14,"x_max":493,"o":"m 257 910 q 441 903 389 910 q 493 877 493 897 q 451 848 493 857 q 251 821 410 839 q 89 803 93 803 q 38 826 63 803 q 14 871 14 850 q 257 910 14 910 z "},"°":{"ha":471,"x_min":110,"x_max":508,"o":"m 283 671 q 363 722 331 671 q 396 817 396 774 q 379 885 396 861 q 335 908 363 908 q 254 856 288 908 q 221 759 221 803 q 238 693 221 715 q 283 671 256 671 m 110 736 q 185 920 110 833 q 361 1007 260 1007 q 468 962 428 1007 q 508 847 508 917 q 433 663 508 750 q 258 576 358 576 q 151 622 192 576 q 110 736 110 667 z "},"±":{"ha":833,"x_min":110,"x_max":839,"o":"m 754 676 q 839 642 839 676 q 531 553 839 588 q 467 288 485 319 q 450 272 458 274 q 408 298 429 272 q 386 345 386 324 q 415 542 386 367 q 228 535 301 535 q 170 565 197 535 q 143 622 143 594 q 179 649 143 649 l 326 649 q 433 651 367 649 q 453 871 453 790 q 478 907 453 907 q 541 872 503 907 q 579 811 579 836 q 554 661 579 786 q 754 676 738 676 m 688 211 q 779 185 779 211 q 703 137 779 158 q 522 106 628 115 q 185 83 301 83 q 133 110 157 83 q 110 160 110 138 q 138 183 110 183 q 457 197 257 183 q 688 211 657 211 z "},"²":{"ha":428,"x_min":86,"x_max":426,"o":"m 300 919 q 228 878 263 919 q 208 863 217 863 q 178 878 200 863 q 157 904 157 893 q 201 967 157 933 q 299 1000 244 1000 q 388 964 354 1000 q 421 872 421 928 q 355 714 421 792 q 189 572 289 636 q 375 599 347 599 q 426 573 426 599 q 322 522 426 547 q 163 497 218 497 q 113 519 139 497 q 86 559 86 540 q 126 613 86 578 q 214 683 167 647 q 301 772 261 719 q 342 872 342 824 q 300 919 342 919 z "},"³":{"ha":432,"x_min":76,"x_max":435,"o":"m 178 740 q 267 813 178 768 q 329 855 301 829 q 357 906 357 881 q 329 928 357 928 q 261 904 301 928 q 210 881 221 881 q 181 898 199 881 q 164 926 164 915 q 221 976 164 951 q 325 1000 278 1000 q 403 968 372 1000 q 435 899 435 936 q 397 825 435 863 q 307 758 360 788 q 428 664 428 732 q 337 551 428 600 q 161 503 246 503 q 76 531 76 503 q 142 561 76 544 q 272 603 207 578 q 338 664 338 629 q 299 693 338 683 q 219 712 260 703 q 178 739 179 721 l 178 740 z "},"´":{"ha":304,"x_min":14,"x_max":290,"o":"m 49 914 q 42 914 49 914 q 24 926 35 914 q 14 956 14 938 q 31 997 14 975 q 82 1053 47 1019 q 137 1106 117 1086 q 168 1136 157 1125 q 192 1158 179 1147 q 234 1178 215 1178 q 272 1151 253 1178 q 290 1106 290 1125 q 287 1078 290 1088 q 278 1063 283 1069 q 259 1047 272 1057 q 235 1029 246 1036 q 200 1008 224 1022 q 160 982 176 993 q 126 957 144 971 q 100 938 108 943 q 49 914 64 914 z "},"µ":{"ha":799,"x_min":-56,"x_max":763,"o":"m 683 710 q 735 674 707 710 q 763 604 763 638 q 693 363 763 588 q 607 79 624 138 q 557 21 590 21 q 515 83 515 21 q 546 236 515 125 q 297 21 413 21 q 232 44 258 21 q 199 104 206 68 q 143 -24 189 83 q 72 -181 97 -131 q 7 -278 25 -278 q -35 -263 -14 -278 q -56 -235 -56 -249 q -33 -171 -56 -222 q 110 190 65 65 q 196 447 156 314 q 260 645 236 581 q 303 710 285 710 q 347 694 321 710 q 374 665 374 678 q 344 556 374 638 q 261 183 261 311 q 274 147 261 161 q 307 132 288 132 q 440 235 363 132 q 577 463 518 338 q 654 671 636 588 q 683 710 663 710 z "},"¶":{"ha":724,"x_min":97,"x_max":743,"o":"m 346 563 q 229 511 281 511 q 138 556 178 511 q 97 647 97 600 q 169 879 97 754 q 342 1049 240 1004 q 474 1081 388 1068 q 608 1093 560 1093 q 676 1085 656 1093 q 719 1042 696 1078 q 743 972 743 1007 q 618 297 742 761 q 514 21 542 21 q 475 40 497 21 q 453 77 453 60 q 492 236 453 94 q 580 599 532 378 q 643 1010 628 819 q 513 983 597 996 q 514 968 514 978 q 389 297 513 756 q 285 21 315 21 q 245 40 267 21 q 224 76 224 60 q 244 171 224 93 q 346 563 328 482 z "},"·":{"ha":329,"x_min":78,"x_max":246,"o":"m 201 342 q 122 386 167 342 q 78 461 78 431 q 102 521 78 492 q 152 550 126 550 q 212 482 178 550 q 246 379 246 414 q 231 355 246 368 q 201 342 215 342 z "},"¸":{"ha":350,"x_min":14,"x_max":336,"o":"m 206 -78 q 292 -103 247 -78 q 336 -157 336 -128 q 250 -256 335 -218 q 75 -293 165 -293 q 31 -283 49 -293 q 14 -260 14 -274 q 51 -234 14 -242 q 140 -214 88 -226 q 218 -175 193 -201 q 152 -151 208 -162 q 96 -125 96 -139 q 107 -84 96 -111 q 135 -22 118 -57 q 161 39 153 14 q 208 64 169 64 q 246 32 246 64 q 201 -78 246 0 l 206 -78 z "},"¹":{"ha":214,"x_min":108,"x_max":249,"o":"m 161 979 q 178 1006 161 1006 q 222 983 194 1006 q 249 946 249 960 q 217 719 249 897 q 174 515 186 540 q 151 490 163 490 q 124 508 139 490 q 108 535 108 525 q 135 703 108 546 q 161 979 161 860 z "},"º":{"ha":628,"x_min":150,"x_max":560,"o":"m 404 988 q 287 904 329 969 q 244 764 244 839 q 297 650 244 689 q 419 722 372 663 q 467 869 467 782 q 404 988 467 957 m 406 1071 q 518 1006 476 1071 q 560 864 560 942 q 484 665 560 760 q 293 571 408 571 q 191 632 232 571 q 150 769 150 693 q 224 977 150 883 q 406 1071 299 1071 z "},"»":{"ha":1157,"x_min":118,"x_max":999,"o":"m 576 640 q 597 672 576 654 q 635 690 617 690 q 851 601 704 689 q 999 450 999 513 q 969 383 999 410 q 760 272 908 335 q 562 208 613 208 q 511 230 511 208 q 699 338 511 251 q 888 449 888 425 q 803 528 888 478 q 629 604 718 579 q 576 640 576 621 m 176 603 q 200 638 176 617 q 242 658 224 658 q 468 587 319 658 q 617 451 617 515 q 428 308 617 397 q 157 219 239 219 q 118 243 118 219 q 213 307 118 264 q 404 392 308 350 q 500 456 500 435 q 413 517 500 482 q 231 571 326 553 q 176 603 176 581 z "},"¼":{"ha":1088,"x_min":96,"x_max":969,"o":"m 897 453 q 942 426 914 453 q 969 379 969 400 q 916 115 969 292 q 825 -62 863 -62 q 799 -46 810 -62 q 788 -12 788 -29 q 795 33 788 6 q 817 106 803 60 q 840 192 831 153 q 697 161 765 161 q 592 195 629 161 q 554 285 554 229 q 607 433 554 340 q 719 594 660 525 q 797 664 778 664 q 833 646 815 664 q 851 613 851 628 q 803 535 851 597 q 653 292 653 346 q 662 260 653 269 q 695 250 671 250 q 749 258 719 250 q 814 281 779 267 q 861 299 849 294 q 869 422 869 357 q 897 453 869 453 m 799 1052 q 806 1052 799 1052 q 832 1022 813 1053 q 851 961 851 990 q 801 858 851 932 q 644 647 750 785 q 479 428 538 510 q 226 68 292 156 q 140 -19 161 -19 q 113 1 129 -19 q 96 38 96 21 q 138 126 96 56 q 297 364 181 196 q 765 1028 565 747 q 799 1052 786 1051 m 258 477 q 253 459 258 477 q 241 427 249 442 q 220 413 233 413 q 186 433 207 413 q 165 466 165 453 q 199 676 165 479 q 232 1031 232 872 q 253 1058 232 1058 q 307 1031 275 1058 q 339 988 339 1004 q 304 718 339 901 q 288 629 299 689 q 272 541 278 569 q 258 477 267 513 z "},"½":{"ha":1093,"x_min":76,"x_max":949,"o":"m 885 97 q 949 69 949 97 q 815 6 949 38 q 611 -25 682 -25 q 549 1 582 -25 q 517 58 517 28 q 550 103 517 74 q 631 171 583 133 q 727 251 679 208 q 808 345 775 293 q 842 446 842 397 q 789 514 842 514 q 715 478 753 514 q 672 443 678 443 q 633 460 658 443 q 607 490 607 476 q 664 570 607 528 q 788 613 721 613 q 899 566 856 613 q 942 453 942 519 q 851 243 942 346 q 628 61 761 140 q 885 97 853 97 m 776 1053 q 812 1022 792 1053 q 832 962 832 992 q 781 858 832 932 q 624 647 731 783 q 460 428 518 510 q 206 67 271 154 q 121 -19 140 -19 q 93 1 110 -19 q 76 38 76 21 q 107 106 76 54 q 204 256 138 158 q 342 453 271 353 q 740 1019 607 828 q 766 1051 760 1049 q 776 1053 772 1053 m 228 447 q 225 437 228 447 q 217 420 222 428 q 199 413 211 413 q 167 433 188 413 q 146 472 146 453 q 163 574 146 490 q 213 1031 213 824 q 234 1058 213 1058 q 288 1031 256 1058 q 319 988 319 1004 q 283 718 318 886 q 272 653 279 694 q 261 589 265 613 q 251 533 257 565 q 240 483 244 501 q 228 447 235 465 z "},"¾":{"ha":1217,"x_min":119,"x_max":1121,"o":"m 1051 453 q 1094 426 1068 453 q 1121 379 1121 400 q 1067 115 1121 293 q 976 -62 1013 -62 q 951 -46 961 -62 q 940 -12 940 -29 q 949 33 940 6 q 971 107 957 61 q 994 192 985 153 q 851 161 917 161 q 746 196 785 161 q 707 285 707 231 q 760 433 707 340 q 872 594 813 525 q 951 664 932 664 q 988 646 969 664 q 1006 613 1006 628 q 956 535 1006 597 q 807 292 807 349 q 816 260 807 269 q 849 250 825 250 q 901 258 872 250 q 968 281 931 265 q 1015 299 1006 296 q 1024 422 1024 357 q 1051 453 1024 453 m 953 1053 q 959 1053 953 1053 q 985 1022 965 1053 q 1006 962 1006 992 q 956 858 1006 932 q 798 646 906 785 q 633 428 690 507 q 379 67 444 154 q 294 -19 314 -19 q 267 1 283 -19 q 250 38 250 21 q 281 106 250 54 q 378 256 311 158 q 515 453 444 353 q 849 926 781 828 q 922 1031 917 1024 q 928 1040 926 1038 q 933 1045 929 1042 q 939 1050 936 1049 q 953 1053 942 1053 m 249 765 l 249 769 q 364 858 249 797 q 442 915 406 882 q 478 981 478 949 q 442 1013 478 1013 q 353 983 406 1013 q 287 953 300 953 q 253 973 274 953 q 232 1007 232 993 q 304 1069 232 1038 q 435 1100 376 1100 q 533 1060 493 1100 q 574 974 574 1019 q 524 878 574 929 q 406 790 474 828 q 522 747 478 778 q 565 671 565 715 q 449 530 565 592 q 226 468 333 468 q 119 503 119 468 q 288 558 119 519 q 403 604 350 574 q 456 674 456 635 q 404 712 456 700 q 301 733 353 724 q 249 765 249 743 z "},"¿":{"ha":528,"x_min":1,"x_max":503,"o":"m 383 828 q 460 785 417 828 q 503 712 503 742 q 480 653 503 682 q 433 625 457 625 q 375 692 408 625 q 342 793 342 758 q 356 815 342 803 q 383 828 369 828 m 333 -57 l 331 -21 q 347 3 331 -4 q 378 11 364 11 q 418 -21 392 11 q 444 -75 444 -53 q 376 -211 444 -151 q 217 -271 308 -271 q 64 -214 126 -271 q 1 -60 1 -157 q 39 60 1 -3 q 125 169 76 122 q 296 384 258 299 q 344 481 333 469 q 365 492 356 492 q 401 403 401 492 q 303 211 401 314 q 220 124 261 167 q 151 34 179 81 q 122 -54 122 -12 q 152 -123 122 -96 q 225 -150 182 -150 q 301 -124 268 -150 q 333 -57 333 -97 z "},"À":{"ha":844,"x_min":58,"x_max":783,"o":"m 783 504 q 661 443 783 478 q 672 197 672 299 q 626 22 672 22 q 588 51 601 22 q 568 153 575 81 q 546 414 547 401 q 278 342 343 361 q 133 22 156 22 q 84 49 110 22 q 58 107 58 76 q 139 306 58 117 q 118 304 135 304 q 80 322 101 304 q 58 367 58 340 q 196 439 58 394 q 241 551 218 489 q 323 753 264 613 q 395 926 382 893 q 447 987 408 960 q 521 1014 485 1014 q 598 876 564 1014 q 653 536 632 739 q 719 540 692 540 q 783 504 783 540 m 328 475 q 536 519 432 503 q 488 875 511 757 q 328 475 417 711 m 353 1243 q 350 1247 353 1243 q 344 1256 347 1250 q 342 1279 342 1263 q 363 1322 342 1296 q 408 1347 383 1347 q 461 1310 429 1347 q 542 1223 486 1281 q 603 1152 597 1165 q 610 1126 610 1139 q 599 1101 610 1113 q 574 1089 588 1089 q 547 1098 561 1089 q 506 1128 533 1107 q 463 1159 479 1149 q 431 1181 447 1169 q 405 1199 414 1193 q 383 1215 396 1206 q 365 1230 371 1224 q 353 1243 358 1236 z "},"Á":{"ha":844,"x_min":58,"x_max":783,"o":"m 783 504 q 661 443 783 478 q 672 197 672 299 q 626 22 672 22 q 588 51 601 22 q 568 153 575 81 q 546 414 547 401 q 278 342 343 361 q 133 22 156 22 q 84 49 110 22 q 58 107 58 76 q 139 306 58 117 q 118 304 135 304 q 80 322 101 304 q 58 367 58 340 q 196 439 58 394 q 241 551 218 489 q 323 753 264 613 q 395 926 382 893 q 447 987 408 960 q 521 1014 485 1014 q 598 876 564 1014 q 653 536 632 739 q 719 540 692 540 q 783 504 783 540 m 328 475 q 536 519 432 503 q 488 875 511 757 q 328 475 417 711 m 559 1099 q 554 1096 559 1099 q 542 1091 549 1093 q 524 1089 535 1089 q 502 1100 513 1089 q 492 1130 492 1111 q 509 1170 492 1149 q 578 1244 526 1192 q 638 1301 619 1282 q 669 1331 656 1321 q 713 1351 694 1351 q 749 1326 731 1351 q 767 1280 767 1300 q 763 1250 767 1260 q 747 1229 760 1240 q 722 1211 733 1218 q 597 1125 624 1144 q 559 1099 569 1106 z "},"Â":{"ha":844,"x_min":58,"x_max":783,"o":"m 783 504 q 661 443 783 478 q 672 197 672 299 q 626 22 672 22 q 588 51 601 22 q 568 153 575 81 q 546 414 547 401 q 278 342 343 361 q 133 22 156 22 q 84 49 110 22 q 58 107 58 76 q 139 306 58 117 q 118 304 135 304 q 80 322 101 304 q 58 367 58 340 q 196 439 58 394 q 241 551 218 489 q 323 753 264 613 q 395 926 382 893 q 447 987 408 960 q 521 1014 485 1014 q 598 876 564 1014 q 653 536 632 739 q 719 540 692 540 q 783 504 783 540 m 328 475 q 536 519 432 503 q 488 875 511 757 q 328 475 417 711 m 465 1175 q 443 1158 465 1175 q 394 1122 422 1142 q 348 1103 367 1103 q 316 1115 329 1103 q 303 1153 303 1128 q 325 1202 303 1178 q 381 1246 347 1226 q 438 1279 415 1265 q 474 1301 460 1293 q 503 1318 488 1310 q 549 1335 536 1335 q 574 1328 563 1335 q 593 1313 586 1321 q 626 1272 604 1299 q 667 1222 647 1244 q 696 1190 688 1200 q 717 1164 704 1179 q 739 1118 739 1135 q 704 1085 739 1085 q 650 1111 682 1085 q 600 1160 618 1138 q 546 1228 582 1182 q 465 1175 507 1208 z "},"Ã":{"ha":844,"x_min":58,"x_max":783,"o":"m 783 504 q 661 443 783 478 q 672 197 672 299 q 626 22 672 22 q 588 51 601 22 q 568 153 575 81 q 546 414 547 401 q 278 342 343 361 q 133 22 156 22 q 84 49 110 22 q 58 107 58 76 q 139 306 58 117 q 118 304 135 304 q 80 322 101 304 q 58 367 58 340 q 196 439 58 394 q 241 551 218 489 q 323 753 264 613 q 395 926 382 893 q 447 987 408 960 q 521 1014 485 1014 q 598 876 564 1014 q 653 536 632 739 q 719 540 692 540 q 783 504 783 540 m 328 475 q 536 519 432 503 q 488 875 511 757 q 328 475 417 711 m 353 1093 q 308 1140 308 1093 q 363 1242 308 1186 q 472 1299 417 1299 q 530 1282 504 1299 q 568 1244 556 1265 q 628 1185 603 1189 q 681 1235 651 1189 q 738 1282 711 1282 q 772 1234 772 1282 q 728 1135 772 1186 q 632 1083 685 1083 q 478 1207 556 1083 q 413 1142 446 1190 q 353 1093 379 1093 z "},"Ä":{"ha":844,"x_min":58,"x_max":783,"o":"m 783 504 q 661 443 783 478 q 672 197 672 299 q 626 22 672 22 q 588 51 601 22 q 568 153 575 81 q 546 414 547 401 q 278 342 343 361 q 133 22 156 22 q 84 49 110 22 q 58 107 58 76 q 139 306 58 117 q 118 304 135 304 q 80 322 101 304 q 58 367 58 340 q 196 439 58 394 q 241 551 218 489 q 323 753 264 613 q 395 926 382 893 q 447 987 408 960 q 521 1014 485 1014 q 598 876 564 1014 q 653 536 632 739 q 719 540 692 540 q 783 504 783 540 m 328 475 q 536 519 432 503 q 488 875 511 757 q 328 475 417 711 m 463 1110 q 394 1147 432 1110 q 357 1210 357 1183 q 377 1260 357 1236 q 419 1285 397 1285 q 470 1231 442 1285 q 499 1156 499 1176 q 487 1122 499 1135 q 463 1110 475 1110 m 671 1110 q 603 1147 640 1110 q 565 1210 565 1183 q 586 1260 565 1236 q 628 1285 607 1285 q 679 1231 650 1285 q 708 1155 708 1176 q 696 1122 708 1133 q 671 1110 683 1110 z "},"Å":{"ha":844,"x_min":58,"x_max":783,"o":"m 783 504 q 661 443 783 478 q 672 197 672 299 q 626 22 672 22 q 588 51 601 22 q 568 153 575 81 q 546 414 547 401 q 278 342 343 361 q 133 22 156 22 q 84 49 110 22 q 58 107 58 76 q 139 306 58 117 q 118 304 135 304 q 80 322 101 304 q 58 367 58 340 q 196 439 58 394 q 241 551 218 489 q 323 753 264 613 q 395 926 382 893 q 447 987 408 960 q 521 1014 485 1014 q 598 876 564 1014 q 653 536 632 739 q 719 540 692 540 q 783 504 783 540 m 328 475 q 536 519 432 503 q 488 875 511 757 q 328 475 417 711 m 676 1219 q 676 1192 676 1219 q 635 1119 676 1165 q 544 1072 594 1072 q 461 1107 493 1072 q 429 1196 429 1142 q 470 1297 429 1250 q 563 1343 511 1343 q 645 1308 614 1343 q 676 1219 676 1272 m 594 1210 q 594 1223 594 1210 q 584 1251 594 1236 q 557 1265 574 1265 q 526 1245 540 1265 q 511 1200 511 1225 q 522 1160 511 1175 q 549 1146 532 1146 q 580 1165 565 1146 q 594 1210 594 1185 z "},"Æ":{"ha":1154,"x_min":25,"x_max":1156,"o":"m 842 876 l 769 876 q 774 850 774 864 q 717 550 774 743 q 924 565 863 565 q 1033 522 1033 565 q 967 485 1033 499 q 812 461 901 472 q 717 449 722 450 q 702 448 711 449 q 686 446 693 447 q 615 183 615 208 q 654 138 615 138 q 1007 189 814 138 q 1079 206 1069 206 q 1099 176 1099 206 q 945 74 1099 126 q 649 21 792 21 q 537 58 585 21 q 489 146 489 96 q 553 428 489 221 q 391 403 490 419 q 268 386 292 388 q 128 62 153 106 q 90 18 104 18 q 47 42 68 18 q 25 86 25 65 q 49 166 25 107 q 119 330 74 225 q 244 637 164 435 q 358 897 325 839 q 478 963 388 946 q 742 979 569 979 q 1006 972 915 979 q 1126 954 1097 965 q 1156 925 1156 943 q 842 876 1156 876 m 585 535 q 653 874 649 750 q 475 843 493 865 q 313 492 446 813 q 585 535 419 514 z "},"Ç":{"ha":838,"x_min":92,"x_max":765,"o":"m 338 -46 q 424 -70 381 -46 q 468 -125 468 -94 q 382 -224 467 -186 q 207 -261 297 -261 q 163 -251 181 -261 q 146 -225 146 -240 q 183 -202 146 -210 q 272 -181 219 -194 q 350 -142 325 -168 q 285 -117 342 -129 q 228 -90 228 -106 q 252 -24 228 -75 q 283 44 276 26 q 149 147 206 75 q 92 299 92 219 q 177 594 92 429 q 397 878 263 758 q 654 997 531 997 q 727 951 689 997 q 765 876 765 906 q 756 846 765 846 q 717 856 746 846 q 663 867 688 867 q 485 776 590 867 q 301 548 381 686 q 221 293 221 410 q 260 194 221 229 q 363 158 299 158 q 496 177 428 158 q 606 219 564 196 q 729 279 718 279 q 753 249 753 279 q 691 167 753 218 q 537 74 629 115 q 369 29 444 32 q 333 -46 353 -11 l 338 -46 z "},"È":{"ha":813,"x_min":88,"x_max":840,"o":"m 289 463 q 214 175 214 225 q 224 148 214 158 q 251 138 235 138 q 604 189 411 138 q 676 206 667 206 q 697 176 697 206 q 544 74 697 126 q 247 21 390 21 q 135 58 183 21 q 88 153 88 96 q 128 347 88 210 q 211 640 169 485 q 253 903 253 796 q 258 935 253 918 q 561 986 282 986 q 840 946 840 986 q 781 908 840 918 q 648 891 731 899 q 532 880 565 883 q 371 854 499 876 l 371 850 q 319 565 371 756 q 376 564 328 564 q 504 571 424 564 q 626 578 585 578 q 667 558 667 578 q 553 486 667 510 q 289 463 439 463 m 406 1242 q 402 1246 406 1242 q 397 1256 399 1250 q 394 1279 394 1263 q 415 1322 394 1296 q 454 1347 436 1347 q 484 1338 472 1347 q 524 1298 496 1329 q 601 1216 553 1267 q 656 1152 650 1165 q 663 1126 663 1139 q 651 1101 663 1113 q 627 1089 640 1089 q 599 1097 614 1089 q 557 1127 585 1106 q 515 1158 529 1149 q 483 1181 501 1168 q 457 1200 465 1194 q 435 1215 449 1206 q 417 1230 422 1225 q 406 1242 413 1235 z "},"É":{"ha":813,"x_min":88,"x_max":840,"o":"m 289 463 q 214 175 214 225 q 224 148 214 158 q 251 138 235 138 q 604 189 411 138 q 676 206 667 206 q 697 176 697 206 q 544 74 697 126 q 247 21 390 21 q 135 58 183 21 q 88 153 88 96 q 128 347 88 210 q 211 640 169 485 q 253 903 253 796 q 258 935 253 918 q 561 986 282 986 q 840 946 840 986 q 781 908 840 918 q 648 891 731 899 q 532 880 565 883 q 371 854 499 876 l 371 850 q 319 565 371 756 q 376 564 328 564 q 504 571 424 564 q 626 578 585 578 q 667 558 667 578 q 553 486 667 510 q 289 463 439 463 m 611 1100 q 606 1097 611 1100 q 593 1091 600 1093 q 576 1089 586 1089 q 554 1100 565 1089 q 543 1130 543 1111 q 560 1171 543 1149 q 612 1226 578 1193 q 666 1279 646 1260 q 697 1310 686 1299 q 721 1331 708 1321 q 764 1351 744 1351 q 801 1326 783 1351 q 819 1280 819 1300 q 816 1250 819 1260 q 799 1229 813 1240 q 775 1211 786 1218 q 702 1163 728 1179 q 657 1131 676 1146 q 630 1112 638 1117 q 611 1100 622 1107 z "},"Ê":{"ha":813,"x_min":88,"x_max":840,"o":"m 289 463 q 214 175 214 225 q 224 148 214 158 q 251 138 235 138 q 604 189 411 138 q 676 206 667 206 q 697 176 697 206 q 544 74 697 126 q 247 21 390 21 q 135 58 183 21 q 88 153 88 96 q 128 347 88 210 q 211 640 169 485 q 253 903 253 796 q 258 935 253 918 q 561 986 282 986 q 840 946 840 986 q 781 908 840 918 q 648 891 731 899 q 532 880 565 883 q 371 854 499 876 l 371 850 q 319 565 371 756 q 376 564 328 564 q 504 571 424 564 q 626 578 585 578 q 667 558 667 578 q 553 486 667 510 q 289 463 439 463 m 517 1175 q 496 1158 517 1175 q 447 1122 475 1142 q 400 1103 419 1103 q 367 1115 381 1103 q 354 1153 354 1128 q 376 1202 354 1178 q 433 1246 399 1226 q 489 1279 467 1265 q 525 1301 511 1293 q 556 1318 539 1310 q 600 1335 586 1335 q 626 1328 614 1335 q 644 1313 638 1321 q 667 1284 651 1304 q 692 1254 683 1264 q 720 1222 700 1244 q 749 1190 740 1200 q 769 1164 757 1179 q 792 1118 792 1135 q 781 1093 792 1101 q 753 1085 771 1085 q 703 1111 735 1085 q 653 1160 671 1138 q 599 1228 635 1182 q 517 1175 560 1208 z "},"Ë":{"ha":813,"x_min":88,"x_max":840,"o":"m 289 463 q 214 175 214 225 q 224 148 214 158 q 251 138 235 138 q 604 189 411 138 q 676 206 667 206 q 697 176 697 206 q 544 74 697 126 q 247 21 390 21 q 135 58 183 21 q 88 153 88 96 q 128 347 88 210 q 211 640 169 485 q 253 903 253 796 q 258 935 253 918 q 561 986 282 986 q 840 946 840 986 q 781 908 840 918 q 648 891 731 899 q 532 880 565 883 q 371 854 499 876 l 371 850 q 319 565 371 756 q 376 564 328 564 q 504 571 424 564 q 626 578 585 578 q 667 558 667 578 q 553 486 667 510 q 289 463 439 463 m 514 1110 q 446 1147 483 1110 q 408 1210 408 1183 q 429 1260 408 1236 q 472 1285 450 1285 q 522 1231 493 1285 q 551 1155 551 1176 q 540 1122 551 1133 q 514 1110 528 1110 m 724 1110 q 656 1147 693 1110 q 618 1210 618 1183 q 639 1260 618 1236 q 681 1285 660 1285 q 732 1231 703 1285 q 761 1156 761 1176 q 749 1122 761 1135 q 724 1110 736 1110 z "},"Ì":{"ha":431,"x_min":94,"x_max":457,"o":"m 199 1243 q 196 1247 199 1243 q 191 1256 193 1250 q 189 1279 189 1263 q 210 1322 189 1296 q 254 1347 231 1347 q 307 1310 275 1347 q 388 1223 332 1281 q 451 1152 444 1165 q 457 1126 457 1139 q 445 1101 457 1113 q 421 1089 433 1089 q 394 1097 408 1089 q 351 1127 379 1106 q 309 1159 324 1149 q 277 1181 294 1169 q 251 1199 260 1193 q 230 1215 242 1206 q 212 1230 218 1224 q 199 1243 206 1236 m 165 26 q 157 26 165 26 q 122 60 149 26 q 94 121 94 93 q 177 509 94 149 q 261 956 260 869 q 267 988 261 979 q 294 997 274 997 q 347 954 314 997 q 379 862 379 911 q 279 406 379 813 q 253 298 269 368 q 226 190 236 228 q 206 108 217 153 q 165 26 182 26 z "},"Í":{"ha":431,"x_min":94,"x_max":614,"o":"m 374 1089 q 367 1089 374 1089 q 349 1100 360 1089 q 338 1130 338 1111 q 355 1170 338 1149 q 424 1244 372 1192 q 480 1298 457 1275 q 515 1331 503 1321 q 558 1351 539 1351 q 595 1325 576 1351 q 614 1280 614 1299 q 610 1252 614 1261 q 601 1237 607 1243 q 583 1220 596 1231 q 558 1203 569 1210 q 524 1181 547 1196 q 484 1156 500 1167 q 450 1131 468 1144 q 424 1111 432 1117 q 406 1100 415 1106 q 374 1089 388 1089 m 165 26 q 157 26 165 26 q 122 60 149 26 q 94 121 94 93 q 177 509 94 149 q 261 956 260 869 q 267 988 261 979 q 294 997 274 997 q 347 954 314 997 q 379 862 379 911 q 279 406 379 813 q 253 298 269 368 q 226 190 236 228 q 206 108 217 153 q 165 26 182 26 z "},"Î":{"ha":431,"x_min":94,"x_max":586,"o":"m 349 1318 q 357 1322 349 1318 q 377 1331 365 1326 q 399 1335 389 1335 q 420 1328 408 1335 q 439 1313 432 1321 q 472 1271 450 1299 q 514 1222 494 1243 q 542 1190 533 1201 q 564 1163 551 1178 q 586 1118 586 1135 q 550 1085 586 1085 q 496 1111 528 1085 q 446 1160 464 1138 q 392 1228 428 1182 q 310 1174 353 1207 q 241 1122 268 1142 q 194 1103 214 1103 q 162 1115 175 1103 q 149 1153 149 1128 q 171 1202 149 1178 q 227 1246 193 1226 q 283 1279 261 1265 q 319 1301 306 1293 q 349 1318 333 1310 m 165 26 q 157 26 165 26 q 122 60 149 26 q 94 121 94 93 q 177 509 94 149 q 261 956 260 869 q 267 988 261 979 q 294 997 274 997 q 347 954 314 997 q 379 862 379 911 q 279 406 379 813 q 253 298 269 368 q 226 190 236 228 q 206 108 217 153 q 165 26 182 26 z "},"Ï":{"ha":431,"x_min":94,"x_max":554,"o":"m 433 1260 q 443 1273 433 1260 q 475 1285 453 1285 q 526 1231 497 1285 q 554 1156 554 1176 q 542 1122 554 1135 q 518 1110 531 1110 q 450 1147 488 1110 q 413 1210 413 1183 q 433 1260 413 1236 m 203 1210 q 203 1223 203 1210 q 224 1260 203 1236 q 266 1285 244 1285 q 317 1231 288 1285 q 346 1156 346 1176 q 333 1122 346 1135 q 308 1110 321 1110 q 240 1147 278 1110 q 203 1210 203 1183 m 165 26 q 157 26 165 26 q 122 60 149 26 q 94 121 94 93 q 177 509 94 149 q 261 956 260 869 q 267 988 261 979 q 294 997 274 997 q 347 954 314 997 q 379 862 379 911 q 279 406 379 813 q 253 298 269 368 q 226 190 236 228 q 206 108 217 153 q 165 26 182 26 z "},"Ð":{"ha":860,"x_min":19,"x_max":869,"o":"m 229 976 q 508 908 360 976 q 763 718 656 839 q 869 469 869 597 q 752 272 869 386 q 481 76 635 157 q 225 -6 326 -6 q 165 40 199 -6 q 131 127 131 85 q 188 382 131 169 q 102 376 118 376 q 53 390 86 376 q 19 428 19 404 q 81 472 19 460 q 219 496 142 485 q 299 846 292 756 q 228 894 254 865 q 201 950 201 924 q 229 976 201 976 m 742 485 q 639 671 742 571 q 400 817 536 771 q 407 771 407 793 q 349 510 407 713 q 398 511 367 511 q 458 497 429 511 q 488 458 488 482 q 442 423 488 435 q 318 399 397 411 l 294 321 q 251 119 268 229 q 466 203 347 132 q 663 356 585 275 q 742 485 742 438 z "},"Ñ":{"ha":940,"x_min":74,"x_max":896,"o":"m 372 1135 q 426 1242 372 1186 q 536 1299 481 1299 q 595 1282 569 1299 q 633 1244 621 1265 q 693 1185 668 1189 q 747 1235 717 1189 q 803 1282 776 1282 q 838 1234 838 1282 q 793 1135 838 1186 q 697 1083 749 1083 q 542 1207 621 1083 q 494 1164 515 1193 q 456 1114 472 1135 q 418 1093 439 1093 q 385 1104 397 1093 q 372 1135 372 1115 m 781 944 q 809 1004 783 1004 q 865 972 835 1004 q 896 915 896 940 q 860 592 896 801 q 766 203 825 382 q 654 24 707 24 q 613 42 636 24 q 578 86 590 60 q 332 703 536 183 q 240 338 290 542 q 172 79 189 135 q 143 24 156 24 q 99 55 125 24 q 74 119 74 86 q 164 510 74 153 q 257 957 254 868 q 281 1001 257 1001 q 323 976 296 1001 q 363 919 350 950 q 646 208 586 339 q 767 779 736 447 q 781 944 781 932 z "},"Ò":{"ha":851,"x_min":75,"x_max":822,"o":"m 494 1242 q 491 1246 494 1242 q 485 1256 488 1250 q 483 1279 483 1263 q 504 1322 483 1296 q 549 1347 525 1347 q 601 1310 569 1347 q 683 1223 626 1281 q 745 1152 739 1165 q 751 1126 751 1139 q 740 1101 751 1113 q 716 1089 729 1089 q 688 1097 703 1089 q 646 1127 674 1106 q 604 1158 618 1149 q 572 1181 590 1168 q 546 1200 554 1194 q 524 1215 538 1206 q 506 1230 511 1225 q 494 1242 501 1235 m 473 215 q 518 256 473 215 q 629 417 564 297 q 694 644 694 538 q 653 818 694 751 q 557 885 613 885 q 418 799 501 885 q 268 573 335 713 q 201 306 201 433 q 235 181 201 229 q 313 133 268 133 q 473 215 382 133 m 304 24 q 144 114 213 24 q 75 297 75 204 q 122 554 75 424 q 238 782 168 685 q 393 941 308 879 q 550 1003 478 1003 q 744 897 667 1003 q 822 657 822 790 q 749 377 822 524 q 552 127 675 231 q 304 24 429 24 z "},"Ó":{"ha":851,"x_min":75,"x_max":908,"o":"m 668 1089 q 661 1089 668 1089 q 643 1100 654 1089 q 632 1130 632 1111 q 649 1171 632 1149 q 701 1226 667 1193 q 755 1279 735 1260 q 786 1310 775 1299 q 810 1331 797 1321 q 853 1351 833 1351 q 890 1326 872 1351 q 908 1280 908 1300 q 905 1250 908 1260 q 888 1229 901 1240 q 864 1211 875 1218 q 790 1162 817 1179 q 744 1131 763 1144 q 718 1112 726 1118 q 700 1100 710 1106 q 668 1089 682 1089 m 473 215 q 518 256 473 215 q 629 417 564 297 q 694 644 694 538 q 653 818 694 751 q 557 885 613 885 q 418 799 501 885 q 268 573 335 713 q 201 306 201 433 q 235 181 201 229 q 313 133 268 133 q 473 215 382 133 m 304 24 q 144 114 213 24 q 75 297 75 204 q 122 554 75 424 q 238 782 168 685 q 393 941 308 879 q 550 1003 478 1003 q 744 897 667 1003 q 822 657 822 790 q 749 377 822 524 q 552 127 675 231 q 304 24 429 24 z "},"Ô":{"ha":851,"x_min":75,"x_max":881,"o":"m 644 1318 q 652 1322 644 1318 q 672 1331 660 1326 q 693 1335 683 1335 q 715 1328 703 1335 q 733 1313 726 1321 q 756 1284 740 1304 q 781 1254 772 1264 q 809 1222 789 1244 q 838 1190 829 1200 q 858 1164 846 1179 q 881 1118 881 1135 q 844 1085 881 1085 q 791 1111 822 1085 q 742 1160 760 1138 q 688 1228 724 1182 q 606 1175 649 1208 q 536 1122 564 1142 q 489 1103 508 1103 q 456 1115 469 1103 q 443 1153 443 1128 q 465 1202 443 1178 q 522 1246 488 1226 q 578 1279 556 1265 q 614 1301 600 1293 q 644 1318 628 1310 m 473 215 q 518 256 473 215 q 629 417 564 297 q 694 644 694 538 q 653 818 694 751 q 557 885 613 885 q 418 799 501 885 q 268 573 335 713 q 201 306 201 433 q 235 181 201 229 q 313 133 268 133 q 473 215 382 133 m 304 24 q 144 114 213 24 q 75 297 75 204 q 122 554 75 424 q 238 782 168 685 q 393 941 308 879 q 550 1003 478 1003 q 744 897 667 1003 q 822 657 822 790 q 749 377 822 524 q 552 127 675 231 q 304 24 429 24 z "},"Õ":{"ha":851,"x_min":75,"x_max":914,"o":"m 494 1093 q 449 1140 449 1093 q 503 1242 449 1186 q 613 1299 557 1299 q 672 1282 646 1299 q 710 1244 697 1265 q 769 1185 744 1189 q 823 1235 793 1189 q 879 1282 853 1282 q 914 1234 914 1282 q 869 1135 914 1186 q 774 1083 825 1083 q 618 1207 697 1083 q 570 1164 592 1193 q 532 1114 549 1135 q 494 1093 515 1093 m 473 215 q 518 256 473 215 q 629 417 564 297 q 694 644 694 538 q 653 818 694 751 q 557 885 613 885 q 418 799 501 885 q 268 573 335 713 q 201 306 201 433 q 235 181 201 229 q 313 133 268 133 q 473 215 382 133 m 304 24 q 144 114 213 24 q 75 297 75 204 q 122 554 75 424 q 238 782 168 685 q 393 941 308 879 q 550 1003 478 1003 q 744 897 667 1003 q 822 657 822 790 q 749 377 822 524 q 552 127 675 231 q 304 24 429 24 z "},"Ö":{"ha":851,"x_min":75,"x_max":850,"o":"m 707 1210 q 707 1223 707 1210 q 728 1260 707 1236 q 770 1285 749 1285 q 821 1231 792 1285 q 850 1156 850 1176 q 838 1122 850 1135 q 813 1110 825 1110 q 744 1147 782 1110 q 707 1210 707 1183 m 497 1210 q 497 1223 497 1210 q 518 1260 497 1236 q 560 1285 539 1285 q 611 1231 582 1285 q 640 1155 640 1176 q 628 1122 640 1133 q 603 1110 617 1110 q 535 1147 572 1110 q 497 1210 497 1183 m 473 215 q 518 256 473 215 q 629 417 564 297 q 694 644 694 538 q 653 818 694 751 q 557 885 613 885 q 418 799 501 885 q 268 573 335 713 q 201 306 201 433 q 235 181 201 229 q 313 133 268 133 q 473 215 382 133 m 304 24 q 144 114 213 24 q 75 297 75 204 q 122 554 75 424 q 238 782 168 685 q 393 941 308 879 q 550 1003 478 1003 q 744 897 667 1003 q 822 657 822 790 q 749 377 822 524 q 552 127 675 231 q 304 24 429 24 z "},"×":{"ha":678,"x_min":57,"x_max":699,"o":"m 699 700 q 663 658 699 692 q 553 556 626 624 q 431 440 481 489 q 481 377 450 415 q 529 315 511 339 q 567 267 547 292 q 603 203 603 218 q 568 172 603 172 q 351 363 504 172 q 165 190 192 207 q 121 172 138 172 q 81 194 104 172 q 57 230 57 215 q 84 269 57 244 q 173 345 111 293 q 286 447 235 397 q 167 626 215 543 q 118 736 118 710 q 143 763 118 763 q 224 747 182 763 q 265 708 265 731 q 364 528 265 661 q 567 732 517 694 q 628 763 607 763 q 674 741 649 763 q 699 700 699 719 z "},"Ø":{"ha":851,"x_min":50,"x_max":867,"o":"m 786 836 q 829 637 829 750 q 756 377 829 524 q 560 127 682 231 q 313 24 438 24 q 165 94 233 24 q 88 21 104 21 q 60 33 71 21 q 50 62 50 44 q 113 165 50 79 q 75 297 75 233 q 122 554 75 424 q 238 782 168 685 q 393 941 308 879 q 550 1003 478 1003 q 732 917 653 1003 q 833 993 806 993 q 867 959 867 993 q 807 860 867 925 l 786 836 m 201 306 q 203 279 201 288 q 288 383 228 311 q 471 608 347 456 q 651 826 594 761 q 556 885 610 885 q 418 799 501 885 q 268 573 335 713 q 201 306 201 433 m 701 636 q 692 729 701 683 q 238 183 461 465 q 319 133 272 133 q 480 215 389 133 q 636 417 571 297 q 701 636 701 538 z "},"Ù":{"ha":822,"x_min":111,"x_max":783,"o":"m 328 1242 q 324 1246 328 1242 q 319 1256 321 1250 q 317 1279 317 1263 q 338 1322 317 1296 q 376 1347 358 1347 q 406 1338 394 1347 q 447 1298 418 1329 q 524 1216 475 1267 q 578 1152 572 1165 q 585 1126 585 1139 q 574 1101 585 1113 q 549 1089 563 1089 q 522 1097 536 1089 q 479 1127 507 1106 q 438 1158 451 1149 q 406 1181 424 1168 q 379 1200 388 1194 q 358 1215 371 1206 q 340 1230 344 1225 q 328 1242 335 1235 m 228 957 q 233 990 228 981 q 259 999 239 999 q 313 962 279 999 q 347 876 347 925 q 290 607 347 826 q 233 309 233 388 q 263 182 233 231 q 338 133 292 133 q 439 186 383 133 q 542 324 494 239 q 623 533 590 410 q 656 781 656 656 q 649 897 656 839 q 643 969 643 956 q 668 999 643 999 q 742 951 700 999 q 783 828 783 903 q 721 426 783 614 q 553 127 658 239 q 328 15 447 15 q 176 100 240 15 q 111 294 111 185 q 169 640 111 404 q 228 957 228 875 z "},"Ú":{"ha":822,"x_min":111,"x_max":783,"o":"m 501 1089 q 494 1089 501 1089 q 476 1100 488 1089 q 465 1130 465 1111 q 483 1171 465 1149 q 534 1226 500 1193 q 588 1279 568 1260 q 619 1310 608 1299 q 643 1331 631 1321 q 686 1351 667 1351 q 724 1326 706 1351 q 742 1280 742 1300 q 738 1250 742 1260 q 722 1229 735 1240 q 697 1211 708 1218 q 624 1163 650 1179 q 579 1131 599 1146 q 552 1112 560 1117 q 533 1100 544 1107 q 501 1089 515 1089 m 228 957 q 233 990 228 981 q 259 999 239 999 q 313 962 279 999 q 347 876 347 925 q 290 607 347 826 q 233 309 233 388 q 263 182 233 231 q 338 133 292 133 q 439 186 383 133 q 542 324 494 239 q 623 533 590 410 q 656 781 656 656 q 649 897 656 839 q 643 969 643 956 q 668 999 643 999 q 742 951 700 999 q 783 828 783 903 q 721 426 783 614 q 553 127 658 239 q 328 15 447 15 q 176 100 240 15 q 111 294 111 185 q 169 640 111 404 q 228 957 228 875 z "},"Û":{"ha":822,"x_min":111,"x_max":783,"o":"m 477 1318 q 485 1322 477 1318 q 505 1331 493 1326 q 526 1335 517 1335 q 548 1328 536 1335 q 567 1313 560 1321 q 590 1284 574 1304 q 614 1254 606 1264 q 642 1222 622 1244 q 671 1190 663 1200 q 692 1164 679 1179 q 714 1118 714 1135 q 703 1093 714 1101 q 675 1085 693 1085 q 625 1111 657 1085 q 575 1160 593 1138 q 521 1228 557 1182 q 440 1175 482 1208 q 369 1122 397 1142 q 322 1103 342 1103 q 290 1115 303 1103 q 276 1153 276 1128 q 299 1202 276 1178 q 355 1246 321 1226 q 411 1279 389 1265 q 447 1301 433 1293 q 477 1318 461 1310 m 228 957 q 233 990 228 981 q 259 999 239 999 q 313 962 279 999 q 347 876 347 925 q 290 607 347 826 q 233 309 233 388 q 263 182 233 231 q 338 133 292 133 q 439 186 383 133 q 542 324 494 239 q 623 533 590 410 q 656 781 656 656 q 649 897 656 839 q 643 969 643 956 q 668 999 643 999 q 742 951 700 999 q 783 828 783 903 q 721 426 783 614 q 553 127 658 239 q 328 15 447 15 q 176 100 240 15 q 111 294 111 185 q 169 640 111 404 q 228 957 228 875 z "},"Ü":{"ha":822,"x_min":111,"x_max":783,"o":"m 540 1210 q 540 1223 540 1210 q 561 1260 540 1236 q 603 1285 582 1285 q 654 1231 625 1285 q 683 1156 683 1176 q 671 1122 683 1135 q 646 1110 658 1110 q 578 1147 615 1110 q 540 1210 540 1183 m 331 1210 q 331 1223 331 1210 q 351 1260 331 1236 q 394 1285 372 1285 q 444 1231 415 1285 q 474 1155 474 1176 q 462 1122 474 1133 q 436 1110 450 1110 q 368 1147 406 1110 q 331 1210 331 1183 m 228 957 q 233 990 228 981 q 259 999 239 999 q 313 962 279 999 q 347 876 347 925 q 290 607 347 826 q 233 309 233 388 q 263 182 233 231 q 338 133 292 133 q 439 186 383 133 q 542 324 494 239 q 623 533 590 410 q 656 781 656 656 q 649 897 656 839 q 643 969 643 956 q 668 999 643 999 q 742 951 700 999 q 783 828 783 903 q 721 426 783 614 q 553 127 658 239 q 328 15 447 15 q 176 100 240 15 q 111 294 111 185 q 169 640 111 404 q 228 957 228 875 z "},"Ý":{"ha":799,"x_min":128,"x_max":843,"o":"m 510 1089 q 503 1089 510 1089 q 485 1100 496 1089 q 474 1130 474 1111 q 491 1170 474 1149 q 560 1244 508 1192 q 616 1298 593 1275 q 651 1331 639 1321 q 694 1351 675 1351 q 731 1325 713 1351 q 750 1280 750 1299 q 747 1252 750 1261 q 738 1237 743 1243 q 719 1220 732 1231 q 694 1203 706 1210 q 660 1181 683 1196 q 620 1156 636 1167 q 586 1131 604 1144 q 560 1111 568 1117 q 542 1100 551 1106 q 510 1089 524 1089 m 454 518 q 545 637 479 518 q 680 875 611 756 q 778 994 749 994 q 825 974 807 994 q 843 924 843 953 q 790 807 843 894 q 649 576 738 719 q 471 264 560 432 q 349 54 382 96 q 294 13 315 13 q 264 63 264 13 q 303 181 264 101 q 322 220 315 204 q 344 265 329 236 q 368 310 360 294 q 394 360 376 326 q 419 410 411 394 q 269 513 338 431 q 164 698 200 596 q 128 897 128 800 q 183 994 128 994 q 219 951 206 994 q 251 828 232 908 q 303 680 271 747 q 379 565 335 613 q 454 518 424 518 z "},"Þ":{"ha":699,"x_min":71,"x_max":654,"o":"m 418 761 q 578 688 501 761 q 654 536 654 615 q 550 350 654 428 q 225 256 424 256 q 150 31 171 58 q 136 21 143 21 q 93 52 115 21 q 71 113 71 83 q 108 286 71 142 q 219 903 219 728 q 226 936 219 926 q 255 946 232 946 q 313 910 278 946 q 349 822 349 874 q 340 750 349 797 q 418 761 385 761 m 538 535 q 499 608 538 579 q 413 636 460 636 q 314 614 365 636 q 253 365 276 456 q 297 367 268 364 q 464 423 390 374 q 538 535 538 472 z "},"ß":{"ha":813,"x_min":68,"x_max":726,"o":"m 363 129 l 432 126 q 552 163 494 126 q 610 261 610 200 q 580 341 610 303 q 515 403 550 379 q 451 459 481 426 q 421 516 421 492 q 451 563 421 540 q 515 605 481 586 q 580 656 550 624 q 610 725 610 689 q 567 828 610 785 q 476 871 525 871 q 385 820 426 871 q 328 683 344 769 q 128 21 193 21 q 88 45 108 21 q 68 96 68 69 q 89 197 68 122 q 211 718 174 517 q 304 914 233 842 q 494 986 375 986 q 656 904 585 986 q 726 733 726 822 q 708 656 726 692 q 665 600 690 621 q 614 563 639 579 q 571 533 589 546 q 553 510 553 519 q 580 478 553 501 q 640 429 607 456 q 699 356 672 403 q 726 257 726 310 q 643 88 726 153 q 451 24 560 24 q 359 46 392 24 q 326 100 326 68 q 363 129 326 129 z "},"à":{"ha":656,"x_min":14,"x_max":606,"o":"m 456 1003 q 481 976 465 993 q 544 909 496 960 q 599 845 593 858 q 606 819 606 832 q 594 793 606 806 q 569 781 582 781 q 542 790 557 781 q 501 819 528 799 q 460 851 475 840 q 426 875 444 863 q 400 893 408 888 q 379 908 392 899 q 360 922 367 917 q 347 936 354 928 q 338 968 338 949 q 358 1013 338 988 q 404 1039 379 1039 q 456 1003 422 1039 m 417 710 q 532 647 479 710 q 585 533 585 583 q 550 429 585 482 q 567 393 567 408 q 549 260 567 354 q 528 136 532 165 q 522 90 525 107 q 517 56 519 72 q 490 21 510 21 q 431 176 440 21 q 201 21 306 21 q 76 76 138 21 q 14 189 14 131 q 75 395 14 272 q 233 614 136 518 q 417 710 331 710 m 481 465 q 431 594 481 594 q 303 517 376 594 q 181 343 231 440 q 131 189 131 246 q 150 151 131 165 q 196 136 169 136 q 343 224 261 136 q 457 439 425 313 q 481 464 461 460 l 481 465 z "},"á":{"ha":656,"x_min":14,"x_max":763,"o":"m 707 1044 q 717 1044 707 1044 q 744 1019 726 1044 q 763 973 763 993 q 759 943 763 953 q 742 922 756 933 q 719 904 729 911 q 644 855 671 872 q 600 824 618 838 q 574 804 582 810 q 524 781 539 781 q 498 792 508 781 q 488 824 488 804 q 505 865 488 843 q 556 920 522 888 q 609 972 589 953 q 640 1003 629 992 q 664 1025 651 1014 q 707 1044 688 1044 m 417 710 q 532 647 479 710 q 585 533 585 583 q 550 429 585 482 q 567 393 567 408 q 549 260 567 354 q 528 136 532 165 q 522 90 525 107 q 517 56 519 72 q 490 21 510 21 q 431 176 440 21 q 201 21 306 21 q 76 76 138 21 q 14 189 14 131 q 75 395 14 272 q 233 614 136 518 q 417 710 331 710 m 481 465 q 431 594 481 594 q 303 517 376 594 q 181 343 231 440 q 131 189 131 246 q 150 151 131 165 q 196 136 169 136 q 343 224 261 136 q 457 439 425 313 q 481 464 461 460 l 481 465 z "},"â":{"ha":656,"x_min":14,"x_max":735,"o":"m 713 856 q 719 848 713 856 q 730 828 725 840 q 735 805 735 815 q 724 786 735 794 q 696 778 714 778 q 646 804 678 778 q 596 853 614 831 q 542 921 578 875 q 460 868 503 901 q 390 815 418 835 q 344 796 363 796 q 312 808 325 796 q 299 846 299 821 q 394 950 299 896 q 432 972 410 958 q 468 994 454 986 q 497 1011 482 1003 q 543 1028 529 1028 q 569 1021 557 1028 q 588 1006 581 1014 q 610 977 594 997 q 635 947 626 957 q 663 915 643 938 q 692 883 683 893 q 713 856 700 872 m 417 710 q 532 647 479 710 q 585 533 585 583 q 550 429 585 482 q 567 393 567 408 q 549 260 567 354 q 528 136 532 165 q 522 90 525 107 q 517 56 519 72 q 490 21 510 21 q 431 176 440 21 q 201 21 306 21 q 76 76 138 21 q 14 189 14 131 q 75 395 14 272 q 233 614 136 518 q 417 710 331 710 m 481 465 q 431 594 481 594 q 303 517 376 594 q 181 343 231 440 q 131 189 131 246 q 150 151 131 165 q 196 136 169 136 q 343 224 261 136 q 457 439 425 313 q 481 464 461 460 l 481 465 z "},"ã":{"ha":656,"x_min":14,"x_max":768,"o":"m 733 975 q 768 927 768 975 q 724 828 768 879 q 628 776 679 776 q 472 899 553 776 q 424 857 446 886 q 386 807 403 828 q 349 786 369 786 q 315 797 328 786 q 303 828 303 808 q 357 935 303 879 q 467 992 411 992 q 526 975 500 992 q 564 939 551 958 q 624 878 599 882 q 677 928 647 882 q 733 975 707 975 m 417 710 q 532 647 479 710 q 585 533 585 583 q 550 429 585 482 q 567 393 567 408 q 549 260 567 354 q 528 136 532 165 q 522 90 525 107 q 517 56 519 72 q 490 21 510 21 q 431 176 440 21 q 201 21 306 21 q 76 76 138 21 q 14 189 14 131 q 75 395 14 272 q 233 614 136 518 q 417 710 331 710 m 481 465 q 431 594 481 594 q 303 517 376 594 q 181 343 231 440 q 131 189 131 246 q 150 151 131 165 q 196 136 169 136 q 343 224 261 136 q 457 439 425 313 q 481 464 461 460 l 481 465 z "},"ä":{"ha":656,"x_min":14,"x_max":704,"o":"m 561 903 q 561 916 561 903 q 582 953 561 929 q 624 978 603 978 q 675 924 646 978 q 704 849 704 869 q 692 815 704 828 q 667 803 679 803 q 599 840 636 803 q 561 903 561 876 m 417 710 q 532 647 479 710 q 585 533 585 583 q 550 429 585 482 q 567 393 567 408 q 549 260 567 354 q 528 136 532 165 q 522 90 525 107 q 517 56 519 72 q 490 21 510 21 q 431 176 440 21 q 201 21 306 21 q 76 76 138 21 q 14 189 14 131 q 75 395 14 272 q 233 614 136 518 q 417 710 331 710 m 481 465 q 431 594 481 594 q 303 517 376 594 q 181 343 231 440 q 131 189 131 246 q 150 151 131 165 q 196 136 169 136 q 343 224 261 136 q 457 439 425 313 q 481 464 461 460 l 481 465 m 458 803 q 389 840 426 803 q 351 903 351 876 q 372 953 351 929 q 415 978 393 978 q 465 924 436 978 q 494 849 494 869 q 483 815 494 828 q 458 803 471 803 z "},"å":{"ha":656,"x_min":14,"x_max":672,"o":"m 425 889 q 425 916 425 889 q 466 990 425 943 q 558 1036 507 1036 q 641 1001 610 1036 q 672 912 672 965 q 631 812 672 858 q 540 765 590 765 q 457 800 489 765 q 425 889 425 835 m 506 893 q 506 881 506 893 q 516 853 506 868 q 544 839 526 839 q 576 858 561 839 q 590 903 590 878 q 580 944 590 929 q 552 958 569 958 q 520 938 535 958 q 506 893 506 918 m 417 710 q 532 647 479 710 q 585 533 585 583 q 550 429 585 482 q 567 393 567 408 q 549 260 567 354 q 528 136 532 165 q 522 90 525 107 q 517 56 519 72 q 490 21 510 21 q 431 176 440 21 q 201 21 306 21 q 76 76 138 21 q 14 189 14 131 q 75 395 14 272 q 233 614 136 518 q 417 710 331 710 m 481 465 q 431 594 481 594 q 303 517 376 594 q 181 343 231 440 q 131 189 131 246 q 150 151 131 165 q 196 136 169 136 q 343 224 261 136 q 457 439 425 313 q 481 464 461 460 l 481 465 z "},"æ":{"ha":1032,"x_min":40,"x_max":1017,"o":"m 511 479 q 448 594 507 594 q 317 517 389 594 q 200 343 246 439 q 154 189 154 247 q 172 151 154 165 q 213 136 190 136 q 345 204 276 136 q 474 393 414 272 q 511 479 488 440 m 910 485 q 910 505 910 485 q 876 562 910 524 q 799 600 842 600 q 701 547 756 600 q 607 414 646 493 q 735 401 665 401 q 857 424 804 401 q 910 485 910 447 m 40 192 q 97 397 40 276 q 249 614 153 518 q 436 710 344 710 q 528 676 485 710 q 593 594 571 643 q 799 710 696 710 q 949 632 882 710 q 1017 480 1017 554 q 937 359 1017 406 q 763 313 857 313 q 574 335 668 313 q 554 227 554 276 q 584 151 554 178 q 683 125 614 125 q 824 149 751 125 q 904 174 897 174 q 940 146 940 174 q 856 65 940 108 q 685 21 771 21 q 534 69 599 21 q 454 197 469 118 q 335 66 390 111 q 219 21 279 21 q 99 76 158 21 q 40 192 40 131 z "},"ç":{"ha":621,"x_min":44,"x_max":576,"o":"m 249 -46 q 334 -71 290 -46 q 378 -125 378 -96 q 292 -224 376 -186 q 118 -261 208 -261 q 73 -251 90 -261 q 56 -228 56 -242 q 93 -202 56 -210 q 183 -182 131 -194 q 261 -143 236 -169 q 194 -119 251 -131 q 138 -92 138 -107 q 160 -28 138 -78 q 190 38 183 21 q 87 115 129 63 q 44 226 44 167 q 103 435 44 321 q 253 629 161 549 q 433 710 346 710 q 533 658 490 710 q 576 568 576 607 q 569 549 576 557 q 549 542 563 542 q 503 567 536 542 q 443 592 469 592 q 268 460 368 592 q 168 229 168 328 q 195 161 168 186 q 283 136 222 136 q 394 151 343 136 q 472 180 444 165 q 515 194 500 194 q 542 168 542 194 q 450 77 542 129 q 278 21 358 25 q 244 -46 263 -17 l 249 -46 z "},"è":{"ha":608,"x_min":21,"x_max":593,"o":"m 593 480 q 593 443 593 480 q 513 359 593 406 q 331 313 432 313 q 150 335 231 313 q 131 226 131 274 q 160 151 131 178 q 258 125 190 125 q 399 149 326 125 q 479 174 472 174 q 515 146 515 174 q 431 65 515 108 q 267 21 347 21 q 90 85 158 21 q 21 249 21 150 q 74 455 21 347 q 210 636 126 563 q 376 710 294 710 q 526 632 458 710 q 593 480 593 554 m 383 600 q 276 547 331 600 q 181 413 221 493 q 311 401 243 401 q 432 424 379 401 q 485 485 485 447 q 451 561 485 522 q 383 600 417 600 m 242 935 q 239 938 242 935 q 233 948 236 942 q 231 971 231 954 q 251 1013 231 988 q 297 1039 272 1039 q 350 1003 317 1039 q 374 976 358 993 q 439 908 390 958 q 494 845 488 858 q 500 819 500 832 q 488 793 500 806 q 464 781 476 781 q 437 790 451 781 q 395 820 422 799 q 352 852 368 842 q 319 874 336 863 q 293 892 303 886 q 272 908 283 899 q 253 922 260 917 q 242 935 247 928 z "},"é":{"ha":608,"x_min":21,"x_max":656,"o":"m 601 1044 q 610 1044 601 1044 q 638 1019 619 1044 q 656 973 656 993 q 652 943 656 953 q 635 922 649 933 q 611 904 622 911 q 538 855 564 872 q 493 824 511 838 q 467 804 475 810 q 416 781 431 781 q 391 792 401 781 q 381 823 381 804 q 397 864 381 842 q 448 919 414 886 q 503 972 482 951 q 534 1003 524 992 q 558 1025 544 1014 q 601 1044 583 1044 m 74 455 q 100 509 74 455 q 210 636 126 563 q 376 710 294 710 q 526 632 458 710 q 593 480 593 554 q 513 359 593 406 q 331 313 432 313 q 150 335 231 313 q 131 226 131 274 q 160 151 131 178 q 258 125 190 125 q 399 149 326 125 q 479 174 472 174 q 515 146 515 174 q 431 65 515 108 q 267 21 347 21 q 90 85 158 21 q 21 249 21 150 q 74 455 21 347 m 181 413 q 311 401 243 401 q 432 424 379 401 q 485 485 485 447 q 451 561 485 522 q 383 600 417 600 q 276 547 331 600 q 181 413 221 493 z "},"ê":{"ha":608,"x_min":21,"x_max":628,"o":"m 606 856 q 612 848 606 856 q 623 828 618 840 q 628 805 628 815 q 618 786 628 794 q 590 778 608 778 q 539 804 571 778 q 489 853 507 831 q 435 921 471 875 q 353 867 396 900 q 284 815 311 835 q 238 796 257 796 q 205 808 218 796 q 192 846 192 821 q 214 895 192 871 q 270 939 236 919 q 326 972 304 958 q 363 994 349 986 q 392 1011 376 1003 q 438 1028 425 1028 q 463 1021 451 1028 q 482 1006 475 1014 q 515 965 493 992 q 556 915 536 938 q 585 883 576 893 q 606 856 593 872 m 74 455 q 100 509 74 455 q 210 636 126 563 q 376 710 294 710 q 526 632 458 710 q 593 480 593 554 q 513 359 593 406 q 331 313 432 313 q 150 335 231 313 q 131 226 131 274 q 160 151 131 178 q 258 125 190 125 q 399 149 326 125 q 479 174 472 174 q 515 146 515 174 q 431 65 515 108 q 267 21 347 21 q 90 85 158 21 q 21 249 21 150 q 74 455 21 347 m 181 413 q 311 401 243 401 q 432 424 379 401 q 485 485 485 447 q 451 561 485 522 q 383 600 417 600 q 276 547 331 600 q 181 413 221 493 z "},"ë":{"ha":608,"x_min":21,"x_max":597,"o":"m 74 455 q 100 509 74 455 q 210 636 126 563 q 376 710 294 710 q 526 632 458 710 q 593 480 593 554 q 513 359 593 406 q 331 313 432 313 q 150 335 231 313 q 131 226 131 274 q 160 151 131 178 q 258 125 190 125 q 399 149 326 125 q 479 174 472 174 q 515 146 515 174 q 431 65 515 108 q 267 21 347 21 q 90 85 158 21 q 21 249 21 150 q 74 455 21 347 m 181 413 q 311 401 243 401 q 432 424 379 401 q 485 485 485 447 q 451 561 485 522 q 383 600 417 600 q 276 547 331 600 q 181 413 221 493 m 351 804 q 283 840 321 804 q 246 903 246 876 q 266 954 246 931 q 308 978 286 978 q 359 924 331 978 q 388 849 388 869 q 376 816 388 828 q 351 804 364 804 m 561 804 q 492 840 529 804 q 454 903 454 876 q 474 953 454 929 q 517 978 494 978 q 568 924 539 978 q 597 849 597 869 q 585 816 597 828 q 561 804 574 804 z "},"ì":{"ha":331,"x_min":50,"x_max":363,"o":"m 105 935 q 102 939 105 935 q 97 949 99 943 q 94 971 94 954 q 115 1013 94 988 q 160 1039 135 1039 q 213 1003 179 1039 q 237 976 221 993 q 301 908 253 958 q 356 845 350 858 q 363 819 363 832 q 351 793 363 806 q 326 781 339 781 q 299 790 314 781 q 258 820 285 799 q 216 852 231 842 q 183 875 201 863 q 157 893 165 888 q 136 908 149 899 q 117 922 124 917 q 105 935 111 928 m 229 710 q 240 710 229 710 q 275 678 251 710 q 299 617 299 646 q 157 92 299 540 q 96 22 133 22 q 63 38 76 22 q 50 75 50 54 q 64 152 50 96 q 100 290 78 208 q 153 508 122 371 q 196 678 185 646 q 229 710 207 710 z "},"í":{"ha":331,"x_min":50,"x_max":518,"o":"m 229 710 q 240 710 229 710 q 275 678 251 710 q 299 617 299 646 q 157 92 299 540 q 96 22 133 22 q 63 38 76 22 q 50 75 50 54 q 64 152 50 96 q 100 290 78 208 q 153 508 122 371 q 196 678 185 646 q 229 710 207 710 m 278 781 q 271 781 278 781 q 253 792 264 781 q 243 824 243 804 q 260 865 243 843 q 311 920 278 888 q 365 972 344 953 q 396 1003 385 992 q 419 1025 407 1014 q 463 1044 443 1044 q 500 1019 482 1044 q 518 973 518 993 q 515 943 518 953 q 498 922 511 933 q 475 904 485 911 q 400 855 426 872 q 356 824 374 838 q 329 804 338 810 q 278 781 293 781 z "},"î":{"ha":331,"x_min":50,"x_max":490,"o":"m 229 710 q 240 710 229 710 q 275 678 251 710 q 299 617 299 646 q 157 92 299 540 q 96 22 133 22 q 63 38 76 22 q 50 75 50 54 q 64 152 50 96 q 100 290 78 208 q 153 508 122 371 q 196 678 185 646 q 229 710 207 710 m 253 1011 q 261 1015 253 1011 q 281 1024 269 1019 q 303 1028 293 1028 q 324 1021 313 1028 q 343 1006 336 1014 q 366 977 350 997 q 390 947 382 957 q 419 915 399 938 q 447 883 439 893 q 468 856 456 872 q 490 811 490 828 q 480 786 490 794 q 451 778 469 778 q 401 804 433 778 q 351 853 369 831 q 297 921 333 875 q 216 868 258 901 q 146 815 174 835 q 99 796 118 796 q 67 808 81 796 q 54 846 54 821 q 150 950 54 896 q 188 972 165 958 q 224 994 210 986 q 253 1011 238 1003 z "},"ï":{"ha":331,"x_min":50,"x_max":460,"o":"m 229 710 q 240 710 229 710 q 275 678 251 710 q 299 617 299 646 q 157 92 299 540 q 96 22 133 22 q 63 38 76 22 q 50 75 50 54 q 64 152 50 96 q 100 290 78 208 q 153 508 122 371 q 196 678 185 646 q 229 710 207 710 m 337 953 q 347 966 337 953 q 379 978 357 978 q 431 924 401 978 q 460 849 460 869 q 447 816 460 828 q 422 804 435 804 q 354 840 392 804 q 317 903 317 876 q 337 953 317 929 m 128 954 q 138 966 128 954 q 169 978 147 978 q 221 924 192 978 q 250 849 250 869 q 238 816 250 828 q 214 804 226 804 q 145 840 182 804 q 108 903 108 876 q 128 954 108 931 z "},"ð":{"ha":628,"x_min":43,"x_max":651,"o":"m 390 821 q 297 893 340 893 q 263 883 286 893 q 228 872 240 872 q 203 903 203 872 q 238 963 203 935 q 310 990 272 990 q 497 863 413 990 q 619 904 604 904 q 651 882 651 904 q 533 800 651 856 q 588 554 588 685 q 538 301 588 424 q 402 99 489 178 q 215 21 315 21 q 94 83 144 21 q 43 246 43 146 q 137 528 43 408 q 357 649 231 649 q 461 600 410 649 q 426 754 456 683 q 286 710 308 710 q 242 735 242 710 q 274 773 242 756 q 346 804 307 790 q 390 821 385 818 m 225 119 q 376 245 300 119 q 463 507 453 371 q 381 558 421 558 q 235 465 304 558 q 165 235 165 372 q 183 156 165 192 q 225 119 200 119 z "},"ñ":{"ha":739,"x_min":31,"x_max":683,"o":"m 178 263 q 395 599 310 488 q 534 710 481 710 q 635 653 588 710 q 683 532 683 596 q 638 288 683 439 q 488 21 551 21 q 456 63 456 21 q 486 183 456 96 q 568 503 568 415 q 555 553 568 532 q 530 574 542 574 q 507 569 518 574 q 483 552 496 564 q 459 527 471 540 q 432 493 447 514 q 404 454 417 472 q 373 407 392 436 q 341 356 354 378 q 306 301 328 335 q 270 244 285 267 q 232 183 256 222 q 192 121 208 144 q 158 72 176 97 q 103 21 122 21 q 58 52 85 21 q 31 107 31 83 q 56 193 31 113 q 93 315 82 274 q 135 614 129 450 q 164 715 139 715 q 224 683 194 715 q 254 613 254 651 q 231 466 254 575 q 178 263 208 357 m 261 786 q 215 833 215 786 q 269 935 215 879 q 379 992 324 992 q 438 975 413 992 q 476 939 464 958 q 536 878 511 882 q 590 928 560 882 q 646 975 619 975 q 681 927 681 975 q 636 828 681 879 q 540 776 592 776 q 385 899 465 776 q 337 857 358 886 q 299 807 315 828 q 261 786 282 786 z "},"ò":{"ha":628,"x_min":50,"x_max":579,"o":"m 260 935 q 257 939 260 935 q 252 949 254 943 q 250 971 250 954 q 271 1013 250 988 q 310 1039 292 1039 q 341 1030 329 1039 q 380 991 353 1021 q 456 910 407 961 q 512 845 506 858 q 518 819 518 832 q 506 793 518 806 q 482 781 494 781 q 456 790 469 781 q 415 819 442 799 q 372 851 388 840 q 339 875 357 863 q 313 893 321 888 q 292 908 304 899 q 273 922 279 917 q 260 935 267 928 m 463 474 q 447 563 463 521 q 403 625 432 606 q 238 477 307 599 q 169 249 169 356 q 222 115 169 142 q 392 252 322 135 q 463 474 463 369 m 98 461 q 122 515 98 461 q 224 640 146 569 q 385 710 303 710 q 524 640 468 710 q 579 469 579 569 q 531 263 579 368 q 397 90 482 158 q 215 21 311 21 q 97 86 144 21 q 50 252 50 151 q 98 461 50 353 z "},"ó":{"ha":628,"x_min":50,"x_max":675,"o":"m 463 474 q 447 563 463 521 q 403 625 432 606 q 238 477 307 599 q 169 249 169 356 q 222 115 169 142 q 392 252 322 135 q 463 474 463 369 m 98 461 q 122 515 98 461 q 224 640 146 569 q 385 710 303 710 q 524 640 468 710 q 579 469 579 569 q 531 263 579 368 q 397 90 482 158 q 215 21 311 21 q 97 86 144 21 q 50 252 50 151 q 98 461 50 353 m 435 781 q 428 781 435 781 q 410 792 421 781 q 400 823 400 804 q 417 864 400 842 q 468 919 435 886 q 522 972 501 951 q 553 1003 543 992 q 578 1025 564 1014 q 621 1044 603 1044 q 657 1019 639 1044 q 675 973 675 993 q 672 943 675 953 q 655 922 668 933 q 631 904 642 911 q 557 855 583 872 q 513 824 531 838 q 486 804 494 810 q 435 781 450 781 z "},"ô":{"ha":628,"x_min":50,"x_max":647,"o":"m 463 474 q 447 563 463 521 q 403 625 432 606 q 238 477 307 599 q 169 249 169 356 q 222 115 169 142 q 392 252 322 135 q 463 474 463 369 m 98 461 q 122 515 98 461 q 224 640 146 569 q 385 710 303 710 q 524 640 468 710 q 579 469 579 569 q 531 263 579 368 q 397 90 482 158 q 215 21 311 21 q 97 86 144 21 q 50 252 50 151 q 98 461 50 353 m 410 1011 q 418 1015 410 1011 q 438 1024 426 1019 q 460 1028 450 1028 q 481 1021 469 1028 q 500 1006 493 1014 q 523 977 507 997 q 547 947 539 957 q 576 915 556 938 q 604 883 596 893 q 625 856 613 872 q 647 811 647 828 q 637 786 647 794 q 608 778 626 778 q 558 804 590 778 q 508 853 526 831 q 454 921 490 875 q 373 868 415 901 q 303 815 331 835 q 256 796 275 796 q 224 808 238 796 q 211 846 211 821 q 307 950 211 896 q 344 972 322 958 q 381 994 367 986 q 410 1011 394 1003 z "},"õ":{"ha":628,"x_min":50,"x_max":681,"o":"m 215 828 q 270 935 215 879 q 381 992 325 992 q 438 975 413 992 q 476 939 464 958 q 536 878 511 882 q 590 928 560 882 q 646 975 619 975 q 681 927 681 975 q 636 828 681 879 q 540 776 592 776 q 386 899 464 776 q 320 835 354 883 q 264 786 286 786 q 215 828 215 786 m 463 474 q 447 563 463 521 q 403 625 432 606 q 238 477 307 599 q 169 249 169 356 q 222 115 169 142 q 392 252 322 135 q 463 474 463 369 m 98 461 q 122 515 98 461 q 224 640 146 569 q 385 710 303 710 q 524 640 468 710 q 579 469 579 569 q 531 263 579 368 q 397 90 482 158 q 215 21 311 21 q 97 86 144 21 q 50 252 50 151 q 98 461 50 353 z "},"ö":{"ha":628,"x_min":50,"x_max":617,"o":"m 463 474 q 447 563 463 521 q 403 625 432 606 q 238 477 307 599 q 169 249 169 356 q 222 115 169 142 q 392 252 322 135 q 463 474 463 369 m 98 461 q 122 515 98 461 q 224 640 146 569 q 385 710 303 710 q 524 640 468 710 q 579 469 579 569 q 531 263 579 368 q 397 90 482 158 q 215 21 311 21 q 97 86 144 21 q 50 252 50 151 q 98 461 50 353 m 494 953 q 504 966 494 953 q 536 978 514 978 q 588 924 558 978 q 617 849 617 869 q 605 816 617 828 q 579 804 593 804 q 511 840 549 804 q 474 903 474 876 q 494 953 474 929 m 285 954 q 294 966 285 954 q 326 978 304 978 q 378 924 349 978 q 407 849 407 869 q 395 816 407 828 q 371 804 383 804 q 303 840 340 804 q 265 903 265 876 q 285 954 265 931 z "},"÷":{"ha":833,"x_min":56,"x_max":842,"o":"m 525 618 q 446 663 490 618 q 401 738 401 707 q 426 798 401 768 q 476 828 450 828 q 535 760 501 828 q 569 656 569 692 q 554 631 569 644 q 525 618 539 618 m 403 68 q 324 113 368 68 q 279 187 279 157 q 303 247 279 217 q 353 276 328 276 q 413 209 379 276 q 447 107 447 142 q 432 82 447 96 q 403 68 417 68 m 842 499 q 615 418 842 447 q 142 389 388 389 q 82 417 108 389 q 56 474 56 444 q 93 503 56 503 q 512 516 326 503 q 747 529 697 529 q 842 499 842 529 z "},"ø":{"ha":635,"x_min":28,"x_max":660,"o":"m 617 476 q 497 167 617 314 q 229 21 376 21 q 122 68 174 21 q 56 21 76 21 q 28 47 28 21 q 79 128 28 63 q 50 246 50 183 q 103 458 50 350 q 243 638 156 565 q 422 710 331 710 q 539 663 489 710 q 626 713 593 713 q 660 685 660 713 q 610 607 660 664 l 593 588 q 617 476 617 536 m 157 232 l 157 225 q 381 485 313 404 q 474 593 449 567 q 425 625 453 618 q 241 481 325 614 q 157 232 157 349 m 514 488 l 514 500 q 186 136 283 242 q 229 107 206 113 q 372 179 303 110 q 477 335 440 249 q 514 488 514 421 z "},"ù":{"ha":665,"x_min":21,"x_max":642,"o":"m 533 671 q 544 701 539 693 q 569 710 550 710 q 615 674 588 710 q 642 604 642 638 q 581 390 642 586 q 486 79 519 194 q 439 21 469 21 q 408 36 421 21 q 396 92 396 51 q 428 238 396 132 q 301 82 369 143 q 177 21 233 21 q 71 74 121 21 q 21 182 21 126 q 98 512 21 314 q 226 710 175 710 q 269 687 250 710 q 288 643 288 664 q 250 544 288 622 q 139 183 139 311 q 153 147 139 161 q 186 132 167 132 q 312 225 239 132 q 444 442 385 318 q 533 671 504 565 m 259 935 q 256 939 259 935 q 251 949 253 943 q 249 971 249 954 q 269 1013 249 988 q 309 1039 290 1039 q 340 1030 328 1039 q 378 991 351 1021 q 455 910 406 961 q 510 845 504 858 q 517 819 517 832 q 505 793 517 806 q 481 781 493 781 q 454 790 468 781 q 413 819 440 799 q 371 851 386 840 q 338 875 356 863 q 311 893 319 888 q 290 908 303 899 q 272 922 278 917 q 259 935 265 928 z "},"ú":{"ha":665,"x_min":21,"x_max":674,"o":"m 618 1044 q 628 1044 618 1044 q 656 1019 638 1044 q 674 973 674 993 q 670 943 674 953 q 653 922 667 933 q 631 904 640 911 q 556 855 582 872 q 511 824 529 838 q 485 804 493 810 q 434 781 449 781 q 409 792 419 781 q 399 824 399 804 q 416 865 399 843 q 467 920 433 888 q 520 972 500 953 q 551 1003 540 992 q 575 1025 563 1014 q 618 1044 599 1044 m 533 671 q 544 701 539 693 q 569 710 550 710 q 615 674 588 710 q 642 604 642 638 q 581 390 642 586 q 486 79 519 194 q 439 21 469 21 q 408 36 421 21 q 396 92 396 51 q 428 238 396 132 q 301 82 369 143 q 177 21 233 21 q 71 74 121 21 q 21 182 21 126 q 98 512 21 314 q 226 710 175 710 q 269 687 250 710 q 288 643 288 664 q 250 544 288 622 q 139 183 139 311 q 153 147 139 161 q 186 132 167 132 q 312 225 239 132 q 444 442 385 318 q 533 671 504 565 z "},"û":{"ha":665,"x_min":21,"x_max":646,"o":"m 533 671 q 544 701 539 693 q 569 710 550 710 q 615 674 588 710 q 642 604 642 638 q 581 390 642 586 q 486 79 519 194 q 439 21 469 21 q 408 36 421 21 q 396 92 396 51 q 428 238 396 132 q 301 82 369 143 q 177 21 233 21 q 71 74 121 21 q 21 182 21 126 q 98 512 21 314 q 226 710 175 710 q 269 687 250 710 q 288 643 288 664 q 250 544 288 622 q 139 183 139 311 q 153 147 139 161 q 186 132 167 132 q 312 225 239 132 q 444 442 385 318 q 533 671 504 565 m 372 868 q 350 851 372 868 q 301 815 329 835 q 255 796 274 796 q 223 808 236 796 q 210 846 210 821 q 306 950 210 896 q 343 972 321 958 q 379 994 365 986 q 408 1011 393 1003 q 455 1028 442 1028 q 480 1021 468 1028 q 499 1006 492 1014 q 522 977 506 997 q 546 947 538 957 q 574 915 554 938 q 603 883 594 893 q 624 856 611 872 q 646 811 646 828 q 635 786 646 794 q 607 778 625 778 q 557 804 589 778 q 507 853 525 831 q 453 921 489 875 q 372 868 414 901 z "},"ü":{"ha":665,"x_min":21,"x_max":642,"o":"m 533 671 q 544 701 539 693 q 569 710 550 710 q 615 674 588 710 q 642 604 642 638 q 581 390 642 586 q 486 79 519 194 q 439 21 469 21 q 408 36 421 21 q 396 92 396 51 q 428 238 396 132 q 301 82 369 143 q 177 21 233 21 q 71 74 121 21 q 21 182 21 126 q 98 512 21 314 q 226 710 175 710 q 269 687 250 710 q 288 643 288 664 q 250 544 288 622 q 139 183 139 311 q 153 147 139 161 q 186 132 167 132 q 312 225 239 132 q 444 442 385 318 q 533 671 504 565 m 369 804 q 301 840 338 804 q 264 903 264 876 q 283 954 264 931 q 325 978 303 978 q 376 924 347 978 q 406 849 406 869 q 394 816 406 828 q 369 804 382 804 m 578 804 q 510 840 547 804 q 472 903 472 876 q 492 953 472 929 q 535 978 513 978 q 586 924 557 978 q 615 849 615 869 q 603 816 615 828 q 578 804 592 804 z "},"ý":{"ha":651,"x_min":-26,"x_max":707,"o":"m 653 1044 q 662 1044 653 1044 q 689 1019 671 1044 q 707 973 707 993 q 703 943 707 953 q 687 922 700 933 q 664 904 674 911 q 589 855 615 872 q 544 824 563 838 q 518 804 526 810 q 467 781 482 781 q 442 792 453 781 q 432 823 432 804 q 449 864 432 842 q 500 919 467 886 q 554 972 533 951 q 585 1003 575 992 q 608 1025 596 1014 q 653 1044 635 1044 m 586 710 q 597 710 586 710 q 634 677 608 710 q 660 604 660 644 q 603 415 660 576 q 526 197 546 254 q 472 44 506 139 q 406 -142 438 -51 q 197 -340 336 -340 q 46 -292 118 -340 q -26 -193 -26 -244 q -9 -150 -26 -174 q 21 -126 8 -126 q 61 -157 33 -126 q 199 -249 142 -249 q 276 -173 242 -249 q 342 -2 311 -97 q 377 103 374 93 q 385 128 381 113 q 394 156 390 143 q 200 21 296 21 q 92 75 142 21 q 43 203 43 129 q 79 401 43 276 q 164 618 115 526 q 243 710 213 710 q 290 687 268 710 q 311 640 311 664 q 275 542 311 617 q 163 183 163 311 q 176 147 163 161 q 210 132 190 132 q 329 221 260 132 q 457 432 399 310 q 558 694 506 535 q 586 710 564 710 z "},"þ":{"ha":731,"x_min":-12,"x_max":694,"o":"m 303 658 q 465 699 392 699 q 616 617 538 699 q 694 447 694 535 q 624 282 694 360 q 458 163 553 204 q 295 122 364 122 q 188 153 226 122 q 59 -278 78 -278 q 14 -248 40 -278 q -12 -190 -12 -218 q 47 75 -12 -162 q 224 994 224 785 q 230 1026 224 1017 q 257 1036 236 1036 q 309 995 278 1036 q 340 903 340 954 q 303 658 340 853 m 268 225 q 477 295 371 225 q 583 447 583 365 q 544 542 583 504 q 442 581 506 581 q 275 518 378 581 q 208 239 257 428 q 268 225 250 225 z "},"ÿ":{"ha":651,"x_min":-26,"x_max":660,"o":"m 586 710 q 597 710 586 710 q 634 677 608 710 q 660 604 660 644 q 603 415 660 576 q 526 197 546 254 q 472 44 506 139 q 406 -142 438 -51 q 197 -340 336 -340 q 46 -292 118 -340 q -26 -193 -26 -244 q -9 -150 -26 -174 q 21 -126 8 -126 q 61 -157 33 -126 q 199 -249 142 -249 q 276 -173 242 -249 q 342 -2 311 -97 q 377 103 374 93 q 385 128 381 113 q 394 156 390 143 q 200 21 296 21 q 92 75 142 21 q 43 203 43 129 q 79 401 43 276 q 164 618 115 526 q 243 710 213 710 q 290 687 268 710 q 311 640 311 664 q 275 542 311 617 q 163 183 163 311 q 176 147 163 161 q 210 132 190 132 q 329 221 260 132 q 457 432 399 310 q 558 694 506 535 q 586 710 564 710 m 403 803 q 335 840 372 803 q 297 903 297 876 q 317 953 297 929 q 359 978 338 978 q 410 924 381 978 q 439 849 439 869 q 427 815 439 828 q 403 803 415 803 m 611 803 q 543 840 581 803 q 506 903 506 876 q 526 953 506 929 q 569 978 547 978 q 619 924 590 978 q 649 849 649 869 q 637 815 649 828 q 611 803 625 803 z "},"Ā":{"ha":844,"x_min":58,"x_max":783,"o":"m 783 504 q 661 443 783 478 q 672 197 672 299 q 626 22 672 22 q 588 51 601 22 q 568 153 575 81 q 546 414 547 401 q 278 342 343 361 q 133 22 156 22 q 84 49 110 22 q 58 107 58 76 q 139 306 58 117 q 118 304 135 304 q 80 322 101 304 q 58 367 58 340 q 196 439 58 394 q 241 551 218 489 q 323 753 264 613 q 395 926 382 893 q 447 987 408 960 q 521 1014 485 1014 q 598 876 564 1014 q 653 536 632 739 q 719 540 692 540 q 783 504 783 540 m 328 475 q 536 519 432 503 q 488 875 511 757 q 328 475 417 711 m 354 1110 q 303 1134 328 1110 q 279 1178 279 1158 q 524 1217 279 1217 q 708 1210 656 1217 q 760 1184 760 1204 q 718 1155 760 1164 q 518 1128 676 1146 q 354 1110 360 1110 z "},"ā":{"ha":656,"x_min":14,"x_max":754,"o":"m 518 910 q 702 903 650 910 q 754 877 754 897 q 713 848 754 857 q 513 821 672 839 q 350 803 354 803 q 299 826 324 803 q 275 871 275 850 q 518 910 275 910 m 417 710 q 532 647 479 710 q 585 533 585 583 q 550 429 585 482 q 567 393 567 408 q 549 260 567 354 q 528 136 532 165 q 522 90 525 107 q 517 56 519 72 q 490 21 510 21 q 431 176 440 21 q 201 21 306 21 q 76 76 138 21 q 14 189 14 131 q 75 395 14 272 q 233 614 136 518 q 417 710 331 710 m 481 465 q 431 594 481 594 q 303 517 376 594 q 181 343 231 440 q 131 189 131 246 q 150 151 131 165 q 196 136 169 136 q 343 224 261 136 q 457 439 425 313 q 481 464 461 460 l 481 465 z "},"Ă":{"ha":844,"x_min":58,"x_max":783,"o":"m 783 504 q 661 443 783 478 q 672 197 672 299 q 626 22 672 22 q 588 51 601 22 q 568 153 575 81 q 546 414 547 401 q 278 342 343 361 q 133 22 156 22 q 84 49 110 22 q 58 107 58 76 q 139 306 58 117 q 118 304 135 304 q 80 322 101 304 q 58 367 58 340 q 196 439 58 394 q 241 551 218 489 q 323 753 264 613 q 395 926 382 893 q 447 987 408 960 q 521 1014 485 1014 q 598 876 564 1014 q 653 536 632 739 q 719 540 692 540 q 783 504 783 540 m 328 475 q 536 519 432 503 q 488 875 511 757 q 328 475 417 711 m 767 1242 q 697 1145 767 1196 q 556 1094 626 1094 q 429 1144 486 1094 q 372 1246 372 1194 q 392 1301 372 1281 q 430 1322 413 1322 q 458 1301 447 1322 q 479 1256 469 1281 q 513 1210 489 1231 q 569 1189 536 1189 q 628 1202 601 1189 q 669 1231 654 1215 q 735 1274 710 1274 q 767 1242 767 1274 z "},"ă":{"ha":656,"x_min":14,"x_max":763,"o":"m 731 967 q 763 935 763 967 q 692 838 763 889 q 551 788 621 788 q 424 837 481 788 q 368 939 368 886 q 388 994 368 974 q 431 1015 408 1015 q 458 982 446 1015 q 496 915 471 949 q 563 882 521 882 q 636 903 606 882 q 689 946 667 925 q 731 967 711 967 m 417 710 q 532 647 479 710 q 585 533 585 583 q 550 429 585 482 q 567 393 567 408 q 549 260 567 354 q 528 136 532 165 q 522 90 525 107 q 517 56 519 72 q 490 21 510 21 q 431 176 440 21 q 201 21 306 21 q 76 76 138 21 q 14 189 14 131 q 75 395 14 272 q 233 614 136 518 q 417 710 331 710 m 481 465 q 431 594 481 594 q 303 517 376 594 q 181 343 231 440 q 131 189 131 246 q 150 151 131 165 q 196 136 169 136 q 343 224 261 136 q 457 439 425 313 q 481 464 461 460 l 481 465 z "},"Ą":{"ha":844,"x_min":58,"x_max":783,"o":"m 783 504 q 661 443 783 478 q 672 190 672 299 q 654 43 672 81 l 654 36 q 588 -49 654 6 q 522 -135 522 -104 q 576 -161 522 -161 q 615 -153 593 -161 q 650 -144 638 -144 q 675 -157 663 -144 q 688 -185 688 -169 q 634 -236 688 -218 q 531 -254 581 -254 q 447 -227 482 -254 q 411 -155 411 -200 q 470 -33 411 -110 q 582 68 529 44 q 568 153 575 93 q 546 414 547 401 q 278 342 343 361 q 133 22 156 22 q 84 49 110 22 q 58 107 58 76 q 139 306 58 117 q 118 304 135 304 q 80 322 101 304 q 58 367 58 340 q 196 439 58 394 q 241 551 218 489 q 323 753 264 613 q 395 926 382 893 q 447 987 408 960 q 521 1014 485 1014 q 598 876 564 1014 q 653 536 632 739 q 719 540 692 540 q 783 504 783 540 m 328 475 q 536 519 432 503 q 488 875 511 757 q 328 475 417 711 z "},"ą":{"ha":656,"x_min":14,"x_max":585,"o":"m 382 -119 q 436 -146 382 -146 q 475 -137 453 -146 q 510 -129 497 -129 q 535 -141 522 -129 q 547 -168 547 -153 q 494 -220 547 -203 q 392 -237 442 -237 q 306 -211 342 -237 q 271 -149 271 -185 q 331 -17 271 -93 q 444 83 390 60 q 431 176 432 129 q 201 21 306 21 q 76 76 138 21 q 14 189 14 131 q 75 395 14 272 q 233 614 136 518 q 417 710 331 710 q 532 647 479 710 q 585 533 585 583 q 550 429 585 482 q 567 393 567 408 q 549 259 567 354 q 528 133 532 164 q 514 46 521 68 q 446 -36 510 17 q 382 -119 382 -89 m 481 465 q 431 594 481 594 q 303 517 376 594 q 181 343 231 440 q 131 189 131 246 q 150 151 131 165 q 196 136 169 136 q 343 224 261 136 q 457 439 425 313 q 481 464 461 460 l 481 465 z "},"Ć":{"ha":951,"x_min":92,"x_max":946,"o":"m 706 1089 q 699 1089 706 1089 q 681 1100 692 1089 q 669 1130 669 1111 q 686 1170 669 1149 q 738 1226 703 1192 q 792 1279 772 1260 q 824 1310 813 1299 q 847 1331 835 1321 q 890 1351 871 1351 q 928 1326 910 1351 q 946 1280 946 1300 q 942 1250 946 1260 q 926 1229 939 1240 q 903 1211 913 1218 q 827 1162 854 1179 q 782 1131 800 1144 q 756 1112 764 1118 q 736 1100 747 1106 q 706 1089 719 1089 m 654 997 q 727 951 689 997 q 765 876 765 906 q 756 846 765 846 q 717 856 746 846 q 663 867 688 867 q 485 776 590 867 q 301 548 381 686 q 221 293 221 410 q 260 194 221 229 q 363 158 299 158 q 496 177 428 158 q 606 219 564 196 q 729 279 718 279 q 753 248 753 279 q 689 165 753 217 q 531 71 625 113 q 361 29 436 29 q 178 113 264 29 q 92 299 92 197 q 177 594 92 429 q 397 878 263 758 q 654 997 531 997 z "},"ć":{"ha":621,"x_min":49,"x_max":685,"o":"m 273 21 q 232 21 273 21 q 120 84 192 21 q 49 234 49 147 q 107 435 49 321 q 258 629 165 549 q 439 710 351 710 q 538 659 496 710 q 581 575 581 608 q 558 542 581 542 q 508 567 542 542 q 449 592 475 592 q 274 460 374 592 q 174 229 174 328 q 201 161 174 186 q 288 136 228 136 q 399 151 349 136 q 478 180 450 165 q 521 194 506 194 q 547 168 547 194 q 451 74 547 128 q 273 21 354 21 m 446 781 q 438 781 446 781 q 420 792 431 781 q 410 824 410 804 q 427 865 410 843 q 478 920 444 888 q 531 972 511 953 q 563 1003 551 992 q 586 1025 574 1014 q 629 1044 610 1044 q 667 1019 649 1044 q 685 973 685 993 q 681 943 685 953 q 665 922 678 933 q 642 904 651 911 q 567 855 593 872 q 522 824 540 838 q 496 804 504 810 q 446 781 461 781 z "},"Č":{"ha":961,"x_min":92,"x_max":938,"o":"m 897 1310 q 938 1274 938 1310 q 922 1239 938 1254 q 867 1198 907 1224 q 810 1160 826 1172 q 764 1122 793 1147 q 690 1075 708 1075 q 572 1165 663 1075 q 482 1306 482 1254 q 494 1342 482 1328 q 526 1357 506 1357 q 565 1333 546 1357 q 619 1265 585 1310 q 699 1185 654 1219 q 822 1279 768 1249 q 897 1310 875 1310 m 654 997 q 727 951 689 997 q 765 876 765 906 q 756 846 765 846 q 717 856 746 846 q 663 867 688 867 q 485 776 590 867 q 301 548 381 686 q 221 293 221 410 q 260 194 221 229 q 363 158 299 158 q 496 177 428 158 q 606 219 564 196 q 729 279 718 279 q 753 248 753 279 q 689 165 753 217 q 531 71 625 113 q 361 29 436 29 q 178 113 264 29 q 92 299 92 197 q 177 594 92 429 q 397 878 263 758 q 654 997 531 997 z "},"č":{"ha":621,"x_min":49,"x_max":678,"o":"m 273 21 q 232 21 273 21 q 120 84 192 21 q 49 234 49 147 q 107 435 49 321 q 258 629 165 549 q 439 710 351 710 q 538 659 496 710 q 581 575 581 608 q 558 542 581 542 q 508 567 542 542 q 449 592 475 592 q 274 460 374 592 q 174 229 174 328 q 201 161 174 186 q 288 136 228 136 q 399 151 349 136 q 478 180 450 165 q 521 194 506 194 q 547 168 547 194 q 451 74 547 128 q 273 21 354 21 m 636 1003 q 678 967 678 1003 q 662 931 678 947 q 606 890 646 915 q 549 853 565 865 q 504 816 532 840 q 460 780 476 792 q 429 768 443 768 q 311 858 401 768 q 221 999 221 947 q 233 1035 221 1021 q 265 1050 246 1050 q 304 1026 285 1050 q 358 958 324 1003 q 438 878 393 913 q 560 972 507 942 q 636 1003 614 1003 z "},"Ď":{"ha":896,"x_min":111,"x_max":879,"o":"m 839 1235 q 879 1200 879 1235 q 863 1165 879 1181 q 807 1124 847 1149 q 750 1086 767 1099 q 706 1049 733 1074 q 661 1013 678 1025 q 631 1001 644 1001 q 513 1091 603 1001 q 422 1232 422 1181 q 435 1267 422 1253 q 467 1282 447 1282 q 507 1258 488 1282 q 562 1190 526 1235 q 640 1110 597 1144 q 763 1204 710 1174 q 839 1235 817 1235 m 210 1001 q 488 933 340 1001 q 743 745 636 865 q 850 496 850 625 q 733 297 850 411 q 461 101 615 182 q 206 19 307 19 q 145 65 179 19 q 111 156 111 110 q 192 492 111 203 q 279 872 272 781 q 208 919 235 890 q 182 975 182 949 q 210 1001 182 1001 m 722 511 q 619 698 722 597 q 381 843 517 799 q 388 784 388 818 q 363 657 388 750 q 275 346 339 564 q 232 144 249 254 q 447 228 328 157 q 644 382 565 300 q 722 511 722 464 z "},"ď":{"ha":1017,"x_min":63,"x_max":1017,"o":"m 840 1017 q 840 1028 840 1017 q 864 1058 840 1039 q 919 1078 888 1078 q 984 1048 951 1078 q 1017 976 1017 1018 q 947 845 1017 906 q 822 785 876 785 q 792 808 792 785 q 848 872 792 828 q 913 950 904 917 q 872 981 903 965 q 840 1017 840 996 m 674 1099 q 729 1058 697 1099 q 761 981 761 1017 q 727 775 761 944 q 647 426 693 606 q 515 21 547 21 q 473 44 496 21 q 450 91 450 68 q 461 163 450 114 q 221 21 325 21 q 111 76 160 21 q 63 192 63 132 q 109 397 63 278 q 243 613 156 515 q 428 710 331 710 q 567 592 525 710 q 644 1057 638 897 q 674 1099 644 1099 m 521 417 q 495 543 521 492 q 433 594 469 594 q 312 521 374 594 q 213 352 250 447 q 176 188 176 257 q 194 147 176 163 q 238 132 213 132 q 383 210 290 132 q 518 393 476 288 l 521 406 l 521 417 z "},"Đ":{"ha":868,"x_min":11,"x_max":856,"o":"m 283 872 q 213 919 240 890 q 186 975 186 949 q 214 1001 186 1001 q 424 960 311 1001 q 632 851 536 918 q 792 688 728 783 q 856 502 856 593 q 738 297 856 411 q 467 101 621 182 q 210 19 313 19 q 149 65 183 19 q 115 153 115 110 q 165 381 115 196 q 76 372 96 372 q 33 388 56 372 q 11 431 11 403 q 161 489 11 474 l 197 493 q 283 872 278 790 m 728 511 q 624 698 728 597 q 385 843 521 799 q 392 796 392 818 q 328 510 392 733 q 388 515 383 515 q 466 499 435 515 q 497 456 497 483 q 450 425 497 436 q 296 400 393 410 l 281 346 q 236 144 258 278 q 451 228 332 157 q 649 382 569 300 q 728 511 728 464 z "},"đ":{"ha":706,"x_min":63,"x_max":963,"o":"m 515 21 q 473 44 496 21 q 450 90 450 68 q 461 161 450 113 q 221 21 321 21 q 111 76 160 21 q 63 192 63 132 q 109 397 63 278 q 243 613 156 515 q 428 710 331 710 q 567 593 525 710 q 614 814 596 717 q 557 809 582 808 q 508 833 532 810 q 483 876 483 857 q 631 914 483 908 q 644 1051 643 1004 q 674 1099 644 1099 q 729 1058 697 1099 q 761 978 761 1017 q 753 915 761 961 q 917 909 871 915 q 963 883 963 903 q 921 853 963 863 q 747 831 879 844 l 738 829 q 647 426 707 663 q 515 21 547 21 m 521 417 q 495 543 521 492 q 433 594 469 594 q 312 521 374 594 q 213 352 250 447 q 176 188 176 257 q 194 147 176 163 q 238 132 213 132 q 382 209 289 132 q 517 390 475 286 l 521 407 l 521 417 z "},"Ē":{"ha":813,"x_min":88,"x_max":840,"o":"m 289 463 q 214 175 214 225 q 224 148 214 158 q 251 138 235 138 q 604 189 411 138 q 676 206 667 206 q 697 176 697 206 q 544 74 697 126 q 247 21 390 21 q 135 58 183 21 q 88 153 88 96 q 128 347 88 210 q 211 640 169 485 q 253 903 253 796 q 258 935 253 918 q 561 986 282 986 q 840 946 840 986 q 781 908 840 918 q 648 891 731 899 q 532 880 565 883 q 371 854 499 876 l 371 850 q 319 565 371 756 q 376 564 328 564 q 504 571 424 564 q 626 578 585 578 q 667 558 667 578 q 553 486 667 510 q 289 463 439 463 m 407 1110 q 356 1134 381 1110 q 332 1178 332 1158 q 575 1217 332 1217 q 759 1210 707 1217 q 811 1184 811 1204 q 769 1155 811 1164 q 569 1128 728 1146 q 407 1110 411 1110 z "},"ē":{"ha":608,"x_min":21,"x_max":649,"o":"m 413 910 q 597 903 544 910 q 649 877 649 897 q 607 848 649 857 q 407 821 565 839 q 244 803 249 803 q 192 826 217 803 q 168 871 168 850 q 413 910 168 910 m 74 455 q 100 509 74 455 q 210 636 126 563 q 376 710 294 710 q 526 632 458 710 q 593 480 593 554 q 513 359 593 406 q 331 313 432 313 q 150 335 231 313 q 131 226 131 274 q 160 151 131 178 q 258 125 190 125 q 399 149 326 125 q 479 174 472 174 q 515 146 515 174 q 431 65 515 108 q 267 21 347 21 q 90 85 158 21 q 21 249 21 150 q 74 455 21 347 m 181 413 q 311 401 243 401 q 432 424 379 401 q 485 485 485 447 q 451 561 485 522 q 383 600 417 600 q 276 547 331 600 q 181 413 221 493 z "},"Ė":{"ha":813,"x_min":88,"x_max":840,"o":"m 289 463 q 214 175 214 225 q 224 148 214 158 q 251 138 235 138 q 604 189 411 138 q 676 206 667 206 q 697 176 697 206 q 544 74 697 126 q 247 21 390 21 q 135 58 183 21 q 88 153 88 96 q 128 347 88 210 q 211 640 169 485 q 253 903 253 796 q 258 935 253 918 q 561 986 282 986 q 840 946 840 986 q 781 908 840 918 q 648 891 731 899 q 532 880 565 883 q 371 854 499 876 l 371 850 q 319 565 371 756 q 376 564 328 564 q 504 571 424 564 q 626 578 585 578 q 667 558 667 578 q 553 486 667 510 q 289 463 439 463 m 613 1094 q 544 1132 583 1094 q 504 1197 504 1169 q 526 1250 504 1224 q 570 1276 547 1276 q 622 1217 593 1276 q 651 1128 651 1158 q 638 1106 651 1118 q 613 1094 625 1094 z "},"ė":{"ha":608,"x_min":21,"x_max":593,"o":"m 593 480 q 593 443 593 480 q 513 359 593 406 q 331 313 432 313 q 150 335 231 313 q 131 226 131 274 q 160 151 131 178 q 258 125 190 125 q 399 149 326 125 q 479 174 472 174 q 515 146 515 174 q 431 65 515 108 q 267 21 347 21 q 90 85 158 21 q 21 249 21 150 q 74 455 21 347 q 210 636 126 563 q 376 710 294 710 q 526 632 458 710 q 593 480 593 554 m 383 600 q 276 547 331 600 q 181 413 221 493 q 311 401 243 401 q 432 424 379 401 q 485 485 485 447 q 451 561 485 522 q 383 600 417 600 m 449 788 q 380 825 419 788 q 340 890 340 863 q 363 943 340 917 q 407 969 385 969 q 458 910 429 969 q 488 821 488 851 q 474 799 488 811 q 449 788 461 788 z "},"Ę":{"ha":813,"x_min":88,"x_max":840,"o":"m 289 463 q 214 175 214 225 q 224 148 214 158 q 251 138 235 138 q 604 189 411 138 q 674 206 667 206 q 686 203 681 206 q 722 167 722 197 q 656 81 722 136 q 590 -4 590 26 q 644 -31 590 -31 q 683 -23 661 -31 q 718 -15 706 -15 q 743 -27 731 -15 q 756 -54 756 -39 q 701 -106 756 -87 q 599 -124 647 -124 q 514 -97 550 -124 q 478 -31 478 -69 q 514 64 478 7 q 247 21 371 21 q 135 58 183 21 q 88 153 88 96 q 128 347 88 210 q 211 640 169 485 q 253 903 253 796 q 258 935 253 918 q 561 986 282 986 q 840 946 840 986 q 781 908 840 918 q 648 891 731 899 q 532 880 565 883 q 371 854 499 876 l 371 850 q 319 565 371 756 q 376 564 328 564 q 504 571 424 564 q 626 578 585 578 q 667 558 667 578 q 553 486 667 510 q 289 463 439 463 z "},"ę":{"ha":608,"x_min":21,"x_max":593,"o":"m 479 174 l 485 174 q 515 163 501 174 q 529 136 529 153 q 464 49 529 104 q 399 -36 399 -6 q 451 -62 399 -62 q 490 -54 468 -62 q 525 -46 513 -46 q 550 -58 538 -46 q 563 -86 563 -71 q 510 -137 563 -119 q 407 -154 457 -154 q 322 -128 357 -154 q 286 -65 286 -101 q 318 25 286 -28 q 267 21 292 21 q 90 85 158 21 q 21 249 21 150 q 74 455 21 347 q 210 636 126 563 q 376 710 294 710 q 526 632 458 710 q 593 480 593 554 q 513 359 593 406 q 331 313 432 313 q 150 335 231 313 q 131 226 131 274 q 160 151 131 178 q 258 125 190 125 q 399 149 326 125 q 479 174 472 174 m 383 600 q 276 547 331 600 q 181 413 221 493 q 311 401 243 401 q 432 424 379 401 q 485 485 485 447 q 451 561 485 522 q 383 600 417 600 z "},"Ě":{"ha":813,"x_min":88,"x_max":840,"o":"m 289 463 q 214 175 214 225 q 224 148 214 158 q 251 138 235 138 q 604 189 411 138 q 676 206 667 206 q 697 176 697 206 q 544 74 697 126 q 247 21 390 21 q 135 58 183 21 q 88 153 88 96 q 128 347 88 210 q 211 640 169 485 q 253 903 253 796 q 258 935 253 918 q 561 986 282 986 q 840 946 840 986 q 781 908 840 918 q 648 891 731 899 q 532 880 565 883 q 371 854 499 876 l 371 850 q 319 565 371 756 q 376 564 328 564 q 504 571 424 564 q 626 578 585 578 q 667 558 667 578 q 553 486 667 510 q 289 463 439 463 m 564 1075 q 446 1165 536 1075 q 356 1306 356 1254 q 367 1342 356 1328 q 399 1357 379 1357 q 439 1333 419 1357 q 493 1265 458 1310 q 572 1185 528 1219 q 695 1279 642 1249 q 771 1310 749 1310 q 811 1274 811 1310 q 796 1239 811 1254 q 740 1198 781 1224 q 683 1160 700 1172 q 639 1123 667 1147 q 594 1087 611 1099 q 564 1075 578 1075 z "},"ě":{"ha":608,"x_min":21,"x_max":649,"o":"m 608 1003 q 649 967 649 1003 q 633 931 649 947 q 576 890 617 915 q 519 853 536 865 q 475 816 503 840 q 431 780 447 792 q 400 768 414 768 q 282 858 372 768 q 192 999 192 947 q 204 1035 192 1021 q 236 1050 217 1050 q 276 1026 256 1050 q 331 958 296 1003 q 410 878 365 913 q 533 972 479 942 q 608 1003 586 1003 m 74 455 q 100 509 74 455 q 210 636 126 563 q 376 710 294 710 q 526 632 458 710 q 593 480 593 554 q 513 359 593 406 q 331 313 432 313 q 150 335 231 313 q 131 226 131 274 q 160 151 131 178 q 258 125 190 125 q 399 149 326 125 q 479 174 472 174 q 515 146 515 174 q 431 65 515 108 q 267 21 347 21 q 90 85 158 21 q 21 249 21 150 q 74 455 21 347 m 181 413 q 311 401 243 401 q 432 424 379 401 q 485 485 485 447 q 451 561 485 522 q 383 600 417 600 q 276 547 331 600 q 181 413 221 493 z "},"Ğ":{"ha":849,"x_min":64,"x_max":940,"o":"m 908 1264 q 940 1232 940 1264 q 870 1135 940 1186 q 730 1085 800 1085 q 603 1135 660 1085 q 546 1236 546 1185 q 566 1292 546 1271 q 603 1313 586 1313 q 632 1292 621 1313 q 653 1246 643 1271 q 686 1200 663 1221 q 747 1179 710 1179 q 814 1201 783 1179 q 867 1243 844 1222 q 908 1264 889 1264 m 629 996 q 706 949 668 996 q 743 874 743 903 q 728 846 743 846 q 697 856 724 846 q 640 867 671 867 q 447 771 553 867 q 265 531 340 675 q 190 264 190 388 q 222 178 190 214 q 297 143 254 143 q 453 216 364 143 q 619 404 543 289 q 504 383 542 383 q 440 403 467 383 q 414 442 414 424 q 474 477 414 464 q 624 490 533 490 q 705 448 674 490 q 736 349 736 406 q 667 85 736 293 q 562 -124 597 -124 q 526 -83 526 -124 q 547 22 526 -44 q 589 159 567 89 q 625 274 611 229 q 471 91 557 158 q 303 24 385 24 q 143 99 222 24 q 64 265 64 175 q 153 578 64 406 q 376 873 242 750 q 629 996 511 996 z "},"ğ":{"ha":654,"x_min":-26,"x_max":724,"o":"m 692 967 q 724 935 724 967 q 653 838 724 889 q 513 788 583 788 q 386 838 443 788 q 329 939 329 888 q 349 994 329 974 q 387 1015 369 1015 q 415 994 404 1015 q 436 949 426 974 q 469 903 446 924 q 530 882 493 882 q 598 903 567 882 q 651 946 629 925 q 692 967 674 967 m 588 396 q 539 269 588 340 q 458 26 501 185 q 386 -201 415 -133 q 207 -343 328 -343 q 42 -290 110 -343 q -26 -183 -26 -236 q -12 -140 -26 -162 q 16 -117 1 -117 q 48 -137 31 -117 q 81 -183 65 -158 q 130 -228 97 -207 q 193 -249 163 -249 q 239 -240 224 -249 q 268 -210 254 -231 q 292 -170 282 -190 q 313 -113 301 -150 q 332 -50 325 -76 q 351 24 339 -24 q 372 101 364 72 q 197 21 264 21 q 78 76 129 21 q 28 192 28 131 q 83 397 28 276 q 231 614 139 518 q 413 710 324 710 q 508 667 469 710 q 572 465 572 596 q 571 442 572 449 q 588 396 588 421 m 140 189 q 156 151 140 165 q 194 136 171 136 q 357 219 263 136 q 492 410 451 301 q 482 469 486 433 q 474 526 478 504 q 456 572 469 549 q 419 594 442 594 q 240 439 339 594 q 140 189 140 283 z "},"Ģ":{"ha":849,"x_min":64,"x_max":743,"o":"m 640 867 q 447 771 553 867 q 265 531 340 675 q 190 264 190 388 q 222 178 190 214 q 297 143 254 143 q 453 216 364 143 q 619 404 543 289 q 504 383 542 383 q 440 403 467 383 q 414 442 414 424 q 474 477 414 464 q 624 490 533 490 q 705 448 674 490 q 736 349 736 406 q 667 85 736 293 q 562 -124 597 -124 q 526 -83 526 -124 q 547 22 526 -44 q 589 159 567 89 q 625 274 611 229 q 471 91 557 158 q 303 24 385 24 q 143 99 222 24 q 64 265 64 175 q 153 578 64 406 q 376 873 242 750 q 629 996 511 996 q 706 949 668 996 q 743 874 743 903 q 728 846 743 846 q 697 856 724 846 q 640 867 671 867 m 204 -103 q 204 -92 204 -103 q 228 -62 204 -82 q 284 -43 251 -43 q 349 -73 317 -43 q 382 -143 382 -103 q 311 -275 382 -214 q 186 -336 240 -336 q 156 -311 156 -336 q 212 -248 156 -293 q 276 -169 268 -203 q 236 -140 268 -156 q 204 -103 204 -124 z "},"ģ":{"ha":654,"x_min":-26,"x_max":594,"o":"m 588 396 q 543 279 588 346 q 485 115 513 213 q 437 -56 457 17 q 389 -199 417 -129 q 207 -343 329 -343 q 42 -290 110 -343 q -26 -183 -26 -236 q -12 -140 -26 -162 q 16 -117 1 -117 q 48 -137 31 -117 q 81 -183 65 -158 q 130 -228 97 -207 q 193 -249 163 -249 q 240 -240 224 -249 q 269 -210 256 -231 q 292 -169 282 -190 q 314 -112 303 -149 q 333 -49 325 -76 q 353 26 340 -21 q 374 104 365 74 q 196 21 263 21 q 78 76 129 21 q 28 192 28 131 q 83 397 28 276 q 231 614 139 518 q 413 710 324 710 q 507 668 469 710 q 572 469 572 596 q 571 442 572 450 q 588 396 588 421 m 140 189 q 156 150 140 164 q 194 136 171 136 q 358 217 264 136 q 492 410 453 299 q 484 458 489 425 q 476 509 479 492 q 467 550 474 526 q 419 594 454 594 q 240 439 339 594 q 140 189 140 283 m 544 831 q 544 820 544 831 q 522 790 544 810 q 466 771 499 771 q 401 801 433 771 q 368 872 368 831 q 438 1003 368 943 q 564 1064 508 1064 q 594 1040 594 1064 q 538 977 594 1022 q 472 899 482 932 q 513 867 482 883 q 544 831 544 851 z "},"Ī":{"ha":431,"x_min":94,"x_max":606,"o":"m 369 1217 q 553 1210 501 1217 q 606 1184 606 1204 q 564 1155 606 1164 q 364 1128 522 1146 q 201 1110 206 1110 q 150 1134 174 1110 q 126 1178 126 1158 q 369 1217 126 1217 m 165 26 q 157 26 165 26 q 122 60 149 26 q 94 121 94 93 q 177 509 94 149 q 261 956 260 869 q 267 988 261 979 q 294 997 274 997 q 347 954 314 997 q 379 862 379 911 q 279 406 379 813 q 253 298 269 368 q 226 190 236 228 q 206 108 217 153 q 165 26 182 26 z "},"ī":{"ha":331,"x_min":32,"x_max":511,"o":"m 275 910 q 459 903 407 910 q 511 877 511 897 q 469 848 511 857 q 269 821 428 839 q 107 803 111 803 q 56 826 81 803 q 32 871 32 850 q 275 910 32 910 m 229 710 q 240 710 229 710 q 275 678 251 710 q 299 617 299 646 q 157 92 299 540 q 96 22 133 22 q 63 38 76 22 q 50 75 50 54 q 64 152 50 96 q 100 290 78 208 q 153 508 122 371 q 196 678 185 646 q 229 710 207 710 z "},"Į":{"ha":431,"x_min":-57,"x_max":379,"o":"m 56 -108 q 110 -135 56 -135 q 147 -127 125 -135 q 183 -119 169 -119 q 208 -131 196 -119 q 221 -158 221 -143 q 167 -210 221 -192 q 65 -228 114 -228 q -21 -201 15 -228 q -57 -130 -57 -174 q -4 -14 -57 -86 q 103 89 49 58 q 94 126 94 103 q 177 509 94 149 q 261 956 260 869 q 267 988 261 979 q 294 997 274 997 q 347 954 314 997 q 379 862 379 911 q 291 454 379 813 q 186 54 203 96 q 119 -26 182 26 q 56 -108 56 -78 z "},"į":{"ha":331,"x_min":-108,"x_max":299,"o":"m 58 -132 q 96 -124 74 -132 q 131 -117 118 -117 q 157 -128 144 -117 q 169 -156 169 -140 q 115 -207 169 -189 q 13 -225 61 -225 q -72 -199 -36 -225 q -108 -128 -108 -172 q -56 -12 -108 -85 q 51 90 -3 60 q 90 247 56 122 q 154 508 124 371 q 196 678 185 646 q 229 710 207 710 q 275 678 251 710 q 299 617 299 646 q 157 92 299 540 q 128 38 147 60 q 60 -29 117 19 q 4 -107 4 -78 q 58 -132 4 -132 z "},"İ":{"ha":431,"x_min":94,"x_max":444,"o":"m 407 1094 q 338 1131 376 1094 q 299 1196 299 1168 q 320 1250 299 1224 q 365 1276 342 1276 q 416 1217 388 1276 q 444 1128 444 1158 q 432 1106 444 1118 q 407 1094 419 1094 m 165 26 q 157 26 165 26 q 122 60 149 26 q 94 121 94 93 q 177 509 94 149 q 261 956 260 869 q 267 988 261 979 q 294 997 274 997 q 347 954 314 997 q 379 862 379 911 q 279 406 379 813 q 253 298 269 368 q 226 190 236 228 q 206 108 217 153 q 165 26 182 26 z "},"ı":{"ha":361,"x_min":50,"x_max":300,"o":"m 231 710 q 242 710 231 710 q 276 678 253 710 q 300 617 300 646 q 157 92 300 538 q 97 22 136 22 q 64 38 78 22 q 50 74 50 54 q 65 152 50 94 q 101 290 79 210 q 155 508 124 369 q 197 678 186 646 q 231 710 208 710 z "},"Ķ":{"ha":836,"x_min":75,"x_max":811,"o":"m 146 28 q 101 60 126 28 q 75 128 75 93 q 165 514 75 164 q 256 953 256 864 q 261 988 256 978 q 287 997 267 997 q 335 954 307 997 q 363 856 363 911 q 290 526 363 800 q 557 844 417 699 q 735 989 697 989 q 787 971 763 989 q 811 935 811 953 q 745 858 811 918 q 568 689 679 797 q 378 472 457 581 q 408 349 378 415 q 608 164 457 238 q 710 110 674 132 q 747 64 747 88 q 693 28 747 28 q 579 51 639 28 q 460 115 519 74 q 351 226 400 157 q 283 376 301 294 q 203 175 240 300 q 147 28 157 28 l 146 28 m 261 -103 q 261 -92 261 -103 q 285 -62 261 -82 q 340 -43 308 -43 q 405 -73 372 -43 q 438 -143 438 -103 q 367 -275 438 -214 q 243 -336 297 -336 q 213 -311 213 -336 q 269 -248 213 -293 q 333 -169 325 -203 q 293 -140 325 -156 q 261 -103 261 -124 z "},"ķ":{"ha":688,"x_min":60,"x_max":676,"o":"m 194 69 q 173 45 194 69 q 131 21 151 21 q 85 53 110 21 q 60 108 60 86 q 105 287 60 129 q 195 665 150 444 q 240 1060 240 886 q 247 1090 240 1081 q 274 1099 254 1099 q 325 1058 294 1099 q 356 978 356 1017 q 306 632 356 854 q 186 210 256 410 q 458 572 343 433 q 599 710 572 710 q 651 683 626 710 q 676 635 676 657 q 553 504 676 622 q 469 399 507 460 q 431 289 431 339 q 460 197 431 239 q 526 133 490 154 q 592 90 563 111 q 622 56 622 69 q 567 21 622 21 q 435 83 511 21 q 342 221 360 144 l 332 247 q 194 69 236 118 m 242 -93 q 242 -83 242 -93 q 265 -53 242 -72 q 322 -33 289 -33 q 387 -63 354 -33 q 419 -135 419 -93 q 349 -266 419 -206 q 224 -326 279 -326 q 193 -303 193 -326 q 249 -239 193 -283 q 314 -161 306 -194 q 273 -130 304 -146 q 242 -93 242 -114 z "},"Ĺ":{"ha":758,"x_min":86,"x_max":696,"o":"m 456 1089 q 449 1089 456 1089 q 431 1100 442 1089 q 421 1130 421 1111 q 438 1170 421 1149 q 507 1244 456 1192 q 563 1298 540 1275 q 599 1331 586 1321 q 641 1351 622 1351 q 678 1326 660 1351 q 696 1281 696 1300 q 692 1252 696 1261 q 684 1237 689 1243 q 665 1220 679 1231 q 642 1203 651 1210 q 608 1181 632 1197 q 568 1155 583 1165 q 533 1131 553 1144 q 506 1111 514 1117 q 489 1100 499 1106 q 456 1089 471 1089 m 276 965 q 283 997 276 988 q 309 1007 289 1007 q 360 972 329 1007 q 390 899 390 938 q 271 407 390 801 q 211 178 211 215 q 247 140 211 140 q 592 192 404 140 q 663 208 651 208 q 679 203 675 208 q 683 185 683 199 q 541 75 683 126 q 251 24 399 24 q 135 63 185 24 q 86 155 86 101 q 181 539 86 208 q 276 965 276 869 z "},"ĺ":{"ha":325,"x_min":38,"x_max":568,"o":"m 315 982 q 207 304 315 721 q 108 21 138 21 q 64 51 90 21 q 38 99 38 82 q 78 271 38 115 q 158 653 118 426 q 199 1063 199 881 q 225 1099 199 1099 q 281 1059 246 1099 q 315 982 315 1019 m 326 1114 q 320 1114 326 1114 q 303 1126 314 1114 q 293 1151 293 1138 q 297 1175 293 1165 q 314 1201 300 1185 q 367 1256 339 1229 q 415 1304 394 1283 q 488 1371 475 1364 q 510 1378 501 1378 q 550 1351 532 1378 q 568 1305 568 1325 q 565 1276 568 1285 q 548 1256 561 1267 q 524 1238 535 1244 q 485 1213 514 1231 q 442 1183 457 1194 q 410 1160 426 1172 q 386 1143 393 1149 q 369 1131 379 1138 q 353 1121 360 1124 q 326 1114 338 1114 z "},"Ļ":{"ha":758,"x_min":86,"x_max":683,"o":"m 276 965 q 283 997 276 988 q 309 1007 289 1007 q 360 972 329 1007 q 390 899 390 938 q 271 407 390 801 q 211 178 211 215 q 247 140 211 140 q 592 192 404 140 q 663 208 651 208 q 679 203 675 208 q 683 185 683 199 q 541 75 683 126 q 251 24 399 24 q 135 63 185 24 q 86 155 86 101 q 181 539 86 208 q 276 965 276 869 m 176 -311 q 233 -248 176 -293 q 297 -169 289 -203 q 257 -140 289 -156 q 225 -103 225 -124 q 249 -62 225 -82 q 304 -43 272 -43 q 369 -73 336 -43 q 403 -143 403 -103 q 332 -275 403 -214 q 207 -336 261 -336 q 176 -311 176 -336 z "},"ļ":{"ha":325,"x_min":-61,"x_max":315,"o":"m 315 982 q 207 304 315 721 q 110 21 138 21 q 64 51 90 21 q 38 99 38 82 q 78 271 38 115 q 158 653 118 426 q 199 1063 199 881 q 226 1099 199 1099 q 281 1059 247 1099 q 315 982 315 1019 m 165 -183 q 95 -315 165 -254 q -29 -375 25 -375 q -61 -351 -61 -375 q -5 -287 -61 -332 q 61 -210 51 -242 q 19 -178 50 -194 q -11 -142 -11 -162 q 12 -101 -11 -121 q 67 -82 35 -82 q 133 -112 100 -82 q 165 -183 165 -142 z "},"Ľ":{"ha":758,"x_min":86,"x_max":689,"o":"m 276 965 q 283 997 276 988 q 309 1007 289 1007 q 360 972 329 1007 q 390 899 390 938 q 271 407 390 801 q 211 178 211 215 q 247 140 211 140 q 592 192 404 140 q 663 208 651 208 q 679 203 675 208 q 683 185 683 199 q 541 75 683 126 q 251 24 399 24 q 135 63 185 24 q 86 155 86 101 q 181 539 86 208 q 276 965 276 869 m 464 731 q 520 794 464 749 q 585 872 576 839 q 543 903 574 888 q 513 940 513 918 q 535 981 513 961 q 591 1000 558 1000 q 656 970 624 1000 q 689 899 689 940 q 619 767 689 828 q 494 706 549 706 q 464 731 464 706 z "},"ľ":{"ha":622,"x_min":38,"x_max":588,"o":"m 315 982 q 207 304 315 721 q 110 21 138 21 q 64 51 90 21 q 38 99 38 82 q 78 271 38 115 q 158 653 118 426 q 199 1063 199 881 q 226 1099 199 1099 q 281 1059 247 1099 q 315 982 315 1019 m 588 976 q 517 845 588 906 q 392 785 447 785 q 361 808 361 785 q 417 872 361 828 q 482 950 474 917 q 441 981 472 965 q 410 1018 410 997 q 433 1058 410 1039 q 489 1078 457 1078 q 554 1048 521 1078 q 588 976 588 1018 z "},"Ł":{"ha":714,"x_min":21,"x_max":683,"o":"m 304 518 q 252 349 293 482 q 211 178 211 215 q 247 140 211 140 q 592 192 404 140 q 663 208 651 208 q 679 203 675 208 q 683 185 683 199 q 541 75 683 126 q 251 24 399 24 q 135 63 185 24 q 86 153 86 101 q 163 472 86 206 q 89 456 108 456 q 45 474 69 456 q 21 508 21 492 q 194 586 21 538 q 276 965 276 872 q 283 997 276 988 q 309 1007 289 1007 q 360 972 329 1007 q 390 899 390 938 q 333 619 390 824 q 478 646 443 646 q 514 626 514 646 q 475 586 514 606 q 304 518 447 572 z "},"ł":{"ha":503,"x_min":57,"x_max":533,"o":"m 363 640 q 501 665 469 665 q 533 644 533 665 q 494 604 533 624 q 346 546 454 585 q 290 304 317 403 q 193 21 221 21 q 147 51 174 21 q 121 99 121 82 q 133 167 121 115 q 213 497 190 389 q 126 474 144 474 q 82 492 107 474 q 57 528 57 511 q 235 608 57 556 q 282 1063 282 869 q 310 1099 282 1099 q 365 1059 331 1099 q 399 982 399 1019 q 363 640 399 854 z "},"Ń":{"ha":940,"x_min":74,"x_max":896,"o":"m 592 1089 q 585 1089 592 1089 q 567 1100 578 1089 q 557 1131 557 1111 q 574 1172 557 1150 q 625 1227 592 1194 q 678 1279 658 1260 q 710 1310 699 1299 q 733 1331 721 1321 q 776 1351 757 1351 q 814 1326 796 1351 q 832 1280 832 1300 q 828 1250 832 1260 q 812 1229 825 1240 q 789 1211 799 1218 q 662 1125 689 1144 q 625 1100 635 1106 q 592 1089 607 1089 m 781 944 q 809 1004 783 1004 q 865 972 835 1004 q 896 915 896 940 q 860 592 896 801 q 766 203 825 382 q 654 24 707 24 q 613 42 636 24 q 578 86 590 60 q 332 703 536 183 q 240 338 290 542 q 172 79 189 135 q 143 24 156 24 q 99 55 125 24 q 74 119 74 86 q 164 510 74 153 q 257 957 254 868 q 281 1001 257 1001 q 323 976 296 1001 q 363 919 350 950 q 646 208 586 339 q 767 779 736 447 q 781 944 781 932 z "},"ń":{"ha":739,"x_min":31,"x_max":683,"o":"m 178 263 q 395 599 310 488 q 534 710 481 710 q 635 653 588 710 q 683 532 683 596 q 638 288 683 439 q 488 21 551 21 q 456 63 456 21 q 486 183 456 96 q 568 503 568 415 q 555 553 568 532 q 530 574 542 574 q 507 569 518 574 q 483 552 496 564 q 459 527 471 540 q 432 493 447 514 q 404 454 417 472 q 373 407 392 436 q 341 356 354 378 q 306 301 328 335 q 270 244 285 267 q 232 183 256 222 q 192 121 208 144 q 158 72 176 97 q 103 21 122 21 q 58 52 85 21 q 31 107 31 83 q 56 193 31 113 q 93 315 82 274 q 135 614 129 450 q 164 715 139 715 q 224 683 194 715 q 254 613 254 651 q 231 466 254 575 q 178 263 208 357 m 466 791 q 461 788 466 791 q 449 783 456 785 q 431 781 442 781 q 410 792 421 781 q 399 823 399 804 q 416 864 399 842 q 467 919 433 886 q 522 972 501 953 q 553 1003 542 992 q 576 1025 564 1014 q 619 1044 600 1044 q 657 1019 639 1044 q 675 973 675 993 q 672 943 675 953 q 655 922 668 933 q 631 904 642 911 q 488 806 499 815 q 466 791 476 797 z "},"Ņ":{"ha":940,"x_min":74,"x_max":896,"o":"m 781 944 q 809 1004 783 1004 q 865 972 835 1004 q 896 915 896 940 q 860 592 896 801 q 766 203 825 382 q 654 24 707 24 q 613 42 636 24 q 578 86 590 60 q 332 703 536 183 q 240 338 290 542 q 172 79 189 135 q 143 24 156 24 q 99 55 125 24 q 74 119 74 86 q 164 510 74 153 q 257 957 254 868 q 281 1001 257 1001 q 323 976 296 1001 q 363 919 350 950 q 646 208 586 339 q 767 779 736 447 q 781 944 781 932 m 235 -311 q 291 -248 235 -293 q 357 -169 347 -203 q 316 -140 347 -156 q 285 -103 285 -124 q 308 -62 285 -82 q 363 -43 331 -43 q 428 -73 396 -43 q 461 -143 461 -103 q 391 -275 461 -214 q 265 -336 321 -336 q 235 -311 235 -336 z "},"ņ":{"ha":739,"x_min":32,"x_max":683,"o":"m 179 263 q 397 599 313 489 q 534 710 481 710 q 635 653 588 710 q 683 532 683 596 q 638 288 683 432 q 488 21 554 21 q 457 63 457 21 q 487 181 457 92 q 542 358 517 271 q 568 488 568 444 q 555 553 568 532 q 528 574 542 574 q 501 565 515 574 q 470 538 488 557 q 438 499 453 518 q 399 446 422 481 q 361 387 376 411 q 317 317 346 363 q 272 247 288 271 q 232 183 257 224 q 192 121 207 143 q 160 72 178 99 q 105 21 125 21 q 58 52 85 21 q 32 107 32 83 q 42 144 32 114 q 100 344 68 225 q 135 614 132 463 q 164 715 139 715 q 225 683 194 715 q 256 613 256 651 q 233 466 256 575 q 179 263 210 357 m 206 -93 q 206 -83 206 -93 q 229 -53 206 -72 q 285 -33 253 -33 q 349 -63 317 -33 q 382 -135 382 -93 q 312 -266 382 -206 q 188 -326 242 -326 q 157 -303 157 -326 q 213 -239 157 -283 q 278 -161 269 -194 q 237 -130 268 -146 q 206 -93 206 -114 z "},"Ň":{"ha":940,"x_min":74,"x_max":896,"o":"m 783 1310 q 825 1274 825 1310 q 809 1238 825 1254 q 753 1197 793 1222 q 696 1160 713 1172 q 651 1123 679 1147 q 607 1087 624 1099 q 576 1075 590 1075 q 458 1165 549 1075 q 368 1306 368 1254 q 381 1342 368 1328 q 413 1357 393 1357 q 451 1333 432 1357 q 506 1265 471 1310 q 585 1185 540 1219 q 708 1279 654 1249 q 783 1310 761 1310 m 781 944 q 809 1004 783 1004 q 865 972 835 1004 q 896 915 896 940 q 860 592 896 801 q 766 203 825 382 q 654 24 707 24 q 613 42 636 24 q 578 86 590 60 q 332 703 536 183 q 240 338 290 542 q 172 79 189 135 q 143 24 156 24 q 99 55 125 24 q 74 119 74 86 q 164 510 74 153 q 257 957 254 868 q 281 1001 257 1001 q 323 976 296 1001 q 363 919 350 950 q 646 208 586 339 q 767 779 736 447 q 781 944 781 932 z "},"ň":{"ha":739,"x_min":31,"x_max":683,"o":"m 178 263 q 395 599 310 488 q 534 710 481 710 q 635 653 588 710 q 683 532 683 596 q 638 288 683 439 q 488 21 551 21 q 456 63 456 21 q 486 183 456 96 q 568 503 568 415 q 555 553 568 532 q 530 574 542 574 q 507 569 518 574 q 483 552 496 564 q 459 527 471 540 q 432 493 447 514 q 404 454 417 472 q 373 407 392 436 q 341 356 354 378 q 306 301 328 335 q 270 244 285 267 q 232 183 256 222 q 192 121 208 144 q 158 72 176 97 q 103 21 122 21 q 58 52 85 21 q 31 107 31 83 q 56 193 31 113 q 93 315 82 274 q 135 614 129 450 q 164 715 139 715 q 224 683 194 715 q 254 613 254 651 q 231 466 254 575 q 178 263 208 357 m 419 768 q 301 858 392 768 q 211 999 211 947 q 223 1035 211 1021 q 255 1050 235 1050 q 294 1026 275 1050 q 349 958 314 1003 q 428 878 383 913 q 551 972 497 942 q 626 1003 604 1003 q 667 967 667 1003 q 651 932 667 947 q 596 891 636 917 q 539 853 556 865 q 494 817 522 840 q 419 768 438 768 z "},"Ō":{"ha":851,"x_min":75,"x_max":900,"o":"m 664 1217 q 848 1210 796 1217 q 900 1184 900 1204 q 858 1155 900 1164 q 658 1128 817 1146 q 496 1110 500 1110 q 445 1134 469 1110 q 421 1178 421 1158 q 664 1217 421 1217 m 473 215 q 518 256 473 215 q 629 417 564 297 q 694 644 694 538 q 653 818 694 751 q 557 885 613 885 q 418 799 501 885 q 268 573 335 713 q 201 306 201 433 q 235 181 201 229 q 313 133 268 133 q 473 215 382 133 m 304 24 q 144 114 213 24 q 75 297 75 204 q 122 554 75 424 q 238 782 168 685 q 393 941 308 879 q 550 1003 478 1003 q 744 897 667 1003 q 822 657 822 790 q 749 377 822 524 q 552 127 675 231 q 304 24 429 24 z "},"ō":{"ha":628,"x_min":50,"x_max":668,"o":"m 463 474 q 447 563 463 521 q 403 625 432 606 q 238 477 307 599 q 169 249 169 356 q 222 115 169 142 q 392 252 322 135 q 463 474 463 369 m 98 461 q 122 515 98 461 q 224 640 146 569 q 385 710 303 710 q 524 640 468 710 q 579 469 579 569 q 531 263 579 368 q 397 90 482 158 q 215 21 311 21 q 97 86 144 21 q 50 252 50 151 q 98 461 50 353 m 432 910 q 616 903 564 910 q 668 877 668 897 q 626 848 668 857 q 426 821 585 839 q 263 803 267 803 q 212 826 236 803 q 188 871 188 850 q 432 910 188 910 z "},"Ő":{"ha":851,"x_min":75,"x_max":949,"o":"m 891 1372 q 901 1372 891 1372 q 930 1350 911 1372 q 949 1306 949 1328 q 942 1270 949 1285 q 928 1247 935 1256 q 901 1217 921 1239 q 872 1184 881 1194 q 853 1160 864 1174 q 836 1140 842 1147 q 822 1124 831 1133 q 807 1108 813 1114 q 794 1097 801 1103 q 766 1088 781 1088 q 743 1099 751 1088 q 735 1131 735 1111 q 764 1203 735 1151 q 804 1274 793 1254 q 822 1305 815 1294 q 835 1328 828 1315 q 848 1349 843 1342 q 860 1361 853 1356 q 891 1372 871 1372 m 592 1283 q 602 1307 592 1283 q 626 1357 611 1331 q 667 1383 642 1383 q 713 1360 693 1383 q 732 1319 732 1338 q 729 1292 732 1300 q 724 1276 726 1283 q 714 1258 721 1269 q 702 1240 707 1247 q 686 1218 697 1233 q 642 1156 675 1203 q 596 1097 610 1108 q 568 1086 582 1086 q 546 1099 554 1086 q 538 1124 538 1111 q 541 1151 538 1138 q 549 1175 544 1164 q 563 1210 553 1186 q 592 1283 574 1235 m 473 215 q 518 256 473 215 q 629 417 564 297 q 694 644 694 538 q 653 818 694 751 q 557 885 613 885 q 418 799 501 885 q 268 573 335 713 q 201 306 201 433 q 235 181 201 229 q 313 133 268 133 q 473 215 382 133 m 304 24 q 144 114 213 24 q 75 297 75 204 q 122 554 75 424 q 238 782 168 685 q 393 941 308 879 q 550 1003 478 1003 q 744 897 667 1003 q 822 657 822 790 q 749 377 822 524 q 552 127 675 231 q 304 24 429 24 z "},"ő":{"ha":628,"x_min":50,"x_max":715,"o":"m 463 474 q 447 563 463 521 q 403 625 432 606 q 238 477 307 599 q 169 249 169 356 q 222 115 169 142 q 392 252 322 135 q 463 474 463 369 m 98 461 q 122 515 98 461 q 224 640 146 569 q 385 710 303 710 q 524 640 468 710 q 579 469 579 569 q 531 263 579 368 q 397 90 482 158 q 215 21 311 21 q 97 86 144 21 q 50 252 50 151 q 98 461 50 353 m 660 1065 q 669 1065 660 1065 q 697 1043 678 1065 q 715 999 715 1021 q 708 963 715 978 q 694 940 701 949 q 667 910 688 932 q 639 877 647 888 q 619 853 631 867 q 603 833 608 840 q 588 817 597 826 q 574 801 579 807 q 561 790 568 796 q 532 781 547 781 q 503 814 503 781 q 567 961 503 846 q 581 985 576 976 q 593 1006 586 994 q 604 1025 600 1018 q 614 1040 608 1032 q 624 1051 619 1047 q 633 1058 628 1056 q 660 1065 642 1065 m 358 972 q 367 997 358 972 q 393 1049 376 1021 q 435 1076 410 1076 q 481 1053 461 1076 q 500 1011 500 1031 q 497 983 500 992 q 488 962 494 974 q 475 942 481 950 q 456 915 469 933 q 436 888 443 897 q 363 790 378 800 q 334 779 347 779 q 313 792 321 779 q 304 819 304 804 q 308 847 304 833 q 326 892 313 861 q 358 972 340 924 z "},"Œ":{"ha":1306,"x_min":75,"x_max":1335,"o":"m 747 903 q 758 940 747 929 q 1063 986 792 986 q 1335 946 1335 986 q 1275 908 1335 919 q 1144 891 1226 899 q 1028 880 1061 883 q 867 854 994 876 l 867 850 q 815 565 867 756 q 872 564 824 564 q 999 571 919 564 q 1121 578 1079 578 q 1163 558 1163 578 q 1049 486 1163 510 q 785 463 935 463 q 739 312 744 332 q 725 261 733 292 q 708 182 708 206 q 747 138 708 138 q 1100 189 907 138 q 1172 206 1163 206 q 1192 176 1192 206 q 1039 74 1192 126 q 742 21 886 21 q 630 58 678 21 q 582 146 582 96 l 582 153 q 304 24 443 24 q 144 114 213 24 q 75 297 75 204 q 122 554 75 424 q 238 782 168 685 q 393 941 308 879 q 550 1003 478 1003 q 747 893 665 1003 l 747 903 m 694 636 q 653 818 694 751 q 557 885 613 885 q 418 799 501 885 q 268 573 335 713 q 201 306 201 433 q 235 181 201 229 q 313 133 268 133 q 514 258 399 133 q 683 553 638 393 q 694 636 694 597 z "},"œ":{"ha":1258,"x_min":50,"x_max":997,"o":"m 710 401 q 747 401 710 401 q 836 424 783 401 q 889 485 889 447 q 855 561 889 522 q 788 600 821 600 q 681 547 736 600 q 588 414 626 493 q 710 401 636 401 m 463 474 q 447 563 463 521 q 403 625 432 606 q 238 477 307 599 q 169 249 169 356 q 222 115 169 142 q 392 249 321 136 q 463 474 463 361 m 779 710 q 930 632 863 710 q 997 480 997 554 q 917 359 997 406 q 740 313 838 313 q 557 333 643 313 q 535 229 535 281 q 651 125 535 125 q 805 149 732 125 q 885 174 878 174 q 921 146 921 174 q 836 65 921 108 q 674 21 751 21 q 538 54 596 21 q 453 144 481 88 q 215 21 346 21 q 97 86 144 21 q 50 252 50 151 q 98 461 50 353 q 224 640 146 569 q 383 710 303 710 q 488 672 443 710 q 557 574 533 633 q 779 710 667 710 z "},"Ŕ":{"ha":799,"x_min":60,"x_max":785,"o":"m 729 1351 q 739 1351 729 1351 q 767 1326 749 1351 q 785 1280 785 1300 q 781 1250 785 1260 q 765 1229 778 1240 q 742 1211 751 1218 q 667 1163 693 1179 q 622 1131 642 1146 q 595 1112 603 1117 q 576 1100 588 1107 q 544 1089 558 1089 q 519 1100 531 1089 q 508 1130 508 1111 q 526 1171 508 1149 q 577 1226 543 1193 q 631 1279 611 1260 q 663 1310 651 1299 q 686 1331 674 1321 q 729 1351 710 1351 m 132 22 q 85 53 111 22 q 60 114 60 83 q 136 415 60 144 q 222 825 213 685 q 190 860 204 836 q 176 901 176 883 q 271 967 176 933 q 481 1001 365 1001 q 680 947 596 1001 q 764 792 764 892 q 726 665 764 724 q 633 568 688 606 q 523 501 578 531 q 430 453 468 472 q 392 426 392 435 q 440 347 392 396 q 507 281 488 299 q 558 233 526 263 q 619 179 590 204 q 665 140 649 154 q 700 108 682 125 q 735 57 735 76 q 689 24 735 24 q 451 169 606 24 q 263 415 297 314 q 221 276 243 353 q 189 166 199 199 q 167 94 179 133 q 132 22 143 22 m 636 792 q 486 878 636 878 q 328 843 418 878 q 342 788 342 813 q 283 489 342 697 q 374 542 307 507 q 494 608 440 578 q 592 688 547 638 q 636 792 636 738 z "},"ŕ":{"ha":442,"x_min":46,"x_max":564,"o":"m 510 1044 q 519 1044 510 1044 q 546 1019 528 1044 q 564 973 564 993 q 560 943 564 953 q 544 922 557 933 q 519 904 531 911 q 446 855 472 872 q 401 824 419 838 q 375 804 383 810 q 325 781 340 781 q 299 792 310 781 q 289 823 289 804 q 306 864 289 842 q 357 919 324 886 q 411 972 390 951 q 442 1003 432 992 q 467 1025 453 1014 q 510 1044 492 1044 m 126 540 l 122 644 q 153 710 122 710 q 203 676 179 710 q 228 595 228 642 q 225 525 228 549 q 454 708 346 708 q 522 675 522 708 q 507 644 522 658 q 458 613 492 631 q 334 515 385 581 q 251 365 283 449 q 201 225 219 282 q 172 136 182 168 q 150 74 163 104 q 99 18 128 18 q 60 45 75 18 q 46 98 46 72 q 69 200 46 124 q 126 540 126 375 z "},"Ŗ":{"ha":799,"x_min":60,"x_max":764,"o":"m 132 22 q 85 53 111 22 q 60 114 60 83 q 136 415 60 144 q 222 825 213 685 q 190 860 204 836 q 176 901 176 883 q 271 967 176 933 q 481 1001 365 1001 q 680 947 596 1001 q 764 792 764 892 q 726 665 764 724 q 633 568 688 606 q 523 501 578 531 q 430 453 468 472 q 392 426 392 435 q 440 347 392 396 q 507 281 488 299 q 558 233 526 263 q 619 179 590 204 q 665 140 649 154 q 700 108 682 125 q 735 57 735 76 q 689 24 735 24 q 451 169 606 24 q 263 415 297 314 q 221 276 243 353 q 189 166 199 199 q 167 94 179 133 q 132 22 143 22 m 342 788 q 283 489 342 697 q 374 542 307 507 q 494 608 440 578 q 592 688 547 638 q 636 792 636 738 q 486 878 636 878 q 328 843 418 878 q 342 788 342 813 m 269 -103 q 269 -92 269 -103 q 292 -62 269 -82 q 348 -43 315 -43 q 413 -73 381 -43 q 446 -143 446 -103 q 376 -275 446 -214 q 251 -336 306 -336 q 221 -311 221 -336 q 277 -248 221 -293 q 342 -169 333 -203 q 301 -140 332 -156 q 269 -103 269 -124 z "},"ŗ":{"ha":453,"x_min":-53,"x_max":535,"o":"m 139 540 l 135 644 q 165 710 135 710 q 216 676 192 710 q 240 595 240 642 q 238 525 240 549 q 467 708 358 708 q 535 675 535 708 q 519 644 535 658 q 471 613 504 631 q 347 515 397 581 q 264 365 296 449 q 213 225 232 282 q 185 136 194 168 q 163 74 175 104 q 111 18 140 18 q 73 45 88 18 q 58 98 58 72 q 83 200 58 124 q 139 540 139 375 m -3 -93 q -3 -83 -3 -93 q 21 -53 -3 -72 q 76 -33 44 -33 q 141 -63 108 -33 q 174 -135 174 -93 q 103 -266 174 -206 q -21 -326 33 -326 q -53 -303 -53 -326 q 4 -239 -53 -283 q 69 -161 61 -194 q 28 -130 58 -146 q -3 -93 -3 -114 z "},"Ř":{"ha":799,"x_min":60,"x_max":776,"o":"m 132 22 q 85 53 111 22 q 60 114 60 83 q 136 415 60 144 q 222 825 213 685 q 190 860 204 836 q 176 901 176 883 q 271 967 176 933 q 481 1001 365 1001 q 680 947 596 1001 q 764 792 764 892 q 726 665 764 724 q 633 568 688 606 q 523 501 578 531 q 430 453 468 472 q 392 426 392 435 q 440 347 392 396 q 507 281 488 299 q 558 233 526 263 q 619 179 590 204 q 665 140 649 154 q 700 108 682 125 q 735 57 735 76 q 689 24 735 24 q 451 169 606 24 q 263 415 297 314 q 221 276 243 353 q 189 166 199 199 q 167 94 179 133 q 132 22 143 22 m 636 792 q 486 878 636 878 q 328 843 418 878 q 342 788 342 813 q 283 489 342 697 q 374 542 307 507 q 494 608 440 578 q 592 688 547 638 q 636 792 636 738 m 529 1075 q 411 1165 501 1075 q 321 1306 321 1254 q 333 1342 321 1328 q 365 1357 344 1357 q 404 1333 385 1357 q 458 1265 424 1310 q 538 1185 493 1219 q 660 1279 607 1249 q 736 1310 714 1310 q 776 1274 776 1310 q 761 1239 776 1254 q 706 1198 746 1224 q 649 1160 665 1172 q 603 1122 632 1147 q 529 1075 547 1075 z "},"ř":{"ha":442,"x_min":46,"x_max":557,"o":"m 517 1003 q 557 967 557 1003 q 541 931 557 947 q 485 890 525 915 q 428 853 444 865 q 383 816 411 840 q 339 780 356 792 q 308 768 322 768 q 190 858 281 768 q 100 999 100 947 q 113 1035 100 1021 q 144 1050 125 1050 q 184 1026 164 1050 q 239 958 204 1003 q 318 878 274 913 q 441 972 388 942 q 517 1003 494 1003 m 126 540 l 122 644 q 153 710 122 710 q 203 676 179 710 q 228 595 228 642 q 225 525 228 549 q 454 708 346 708 q 522 675 522 708 q 507 644 522 658 q 458 613 492 631 q 334 515 385 581 q 251 365 283 449 q 201 225 219 282 q 172 136 182 168 q 150 74 163 104 q 99 18 128 18 q 60 45 75 18 q 46 98 46 72 q 69 200 46 124 q 126 540 126 375 z "},"Ś":{"ha":731,"x_min":7,"x_max":806,"o":"m 565 1089 q 558 1089 565 1089 q 540 1100 551 1089 q 529 1130 529 1111 q 547 1170 529 1149 q 615 1244 564 1192 q 672 1298 649 1275 q 707 1331 694 1321 q 749 1351 731 1351 q 787 1325 768 1351 q 806 1280 806 1299 q 802 1252 806 1261 q 793 1237 799 1243 q 774 1220 788 1231 q 750 1203 761 1210 q 715 1181 739 1196 q 676 1156 692 1167 q 642 1131 660 1144 q 615 1111 624 1117 q 597 1100 607 1106 q 565 1089 579 1089 m 650 297 q 547 106 650 183 q 312 29 444 29 q 93 98 179 29 q 7 228 7 167 q 32 269 7 269 q 119 203 54 269 q 187 158 144 179 q 276 138 229 138 q 449 188 374 138 q 525 296 525 238 q 475 392 525 333 q 365 502 425 450 q 254 614 304 554 q 204 708 204 674 q 218 782 204 743 q 249 839 232 821 q 417 949 303 899 q 610 999 532 999 q 678 972 650 999 q 706 917 706 946 q 676 894 706 903 q 588 873 647 886 q 483 842 529 860 q 324 724 324 781 q 486 553 324 693 q 599 427 549 499 q 650 297 650 356 z "},"ś":{"ha":592,"x_min":8,"x_max":621,"o":"m 440 710 q 529 658 488 710 q 571 567 571 606 q 549 543 571 543 q 501 567 533 543 q 436 592 469 592 q 331 553 403 592 q 260 471 260 514 q 388 361 260 439 q 476 283 436 331 q 515 180 515 235 q 440 73 515 125 q 263 21 364 21 q 85 69 163 21 q 8 161 8 118 q 17 190 8 179 q 40 200 26 200 q 79 182 54 200 q 235 128 154 128 q 353 147 317 128 q 389 197 389 165 q 349 263 389 228 q 260 326 308 299 q 172 394 213 354 q 132 476 132 435 q 248 630 132 550 q 440 710 364 710 m 380 781 q 373 781 380 781 q 355 792 365 781 q 344 823 344 804 q 362 864 344 842 q 413 919 379 886 q 467 972 447 953 q 499 1003 488 992 q 522 1025 510 1014 q 565 1044 546 1044 q 602 1018 583 1044 q 621 973 621 992 q 617 945 621 954 q 608 930 614 936 q 590 913 603 924 q 565 896 576 903 q 531 874 554 889 q 491 849 507 860 q 457 824 475 838 q 431 804 439 810 q 380 781 394 781 z "},"Ş":{"ha":749,"x_min":25,"x_max":724,"o":"m 304 -50 q 390 -74 347 -50 q 433 -135 433 -99 q 389 -203 433 -171 q 174 -265 304 -265 q 130 -255 147 -265 q 113 -229 113 -244 q 149 -206 113 -214 q 239 -185 186 -197 q 317 -146 292 -172 q 251 -122 307 -133 q 194 -94 194 -110 q 217 -28 194 -75 q 247 36 240 19 q 89 116 153 56 q 25 223 25 176 q 50 269 25 269 q 139 203 72 269 q 205 158 163 179 q 294 138 247 138 q 467 188 392 138 q 543 296 543 238 q 493 392 543 333 q 383 502 443 450 q 272 614 322 554 q 222 708 222 674 q 236 782 222 743 q 267 839 250 821 q 435 949 321 899 q 628 999 550 999 q 696 972 668 999 q 724 917 724 946 q 694 894 724 903 q 606 873 665 886 q 501 842 547 860 q 342 724 342 781 q 506 553 342 693 q 617 427 567 499 q 668 297 668 356 q 573 112 668 188 q 338 29 478 36 q 300 -50 326 -3 l 304 -50 z "},"ş":{"ha":592,"x_min":8,"x_max":571,"o":"m 206 -74 q 292 -98 249 -74 q 335 -158 335 -122 q 292 -226 335 -194 q 75 -289 206 -289 q 31 -278 47 -289 q 14 -253 14 -268 q 51 -229 14 -237 q 140 -208 88 -221 q 218 -169 193 -196 q 152 -145 208 -157 q 96 -119 96 -133 q 107 -80 96 -106 q 135 -19 118 -54 q 158 36 151 15 q 52 94 96 56 q 8 156 8 132 q 17 190 8 179 q 40 200 26 200 q 79 182 54 200 q 235 128 154 128 q 353 147 317 128 q 389 197 389 165 q 349 263 389 228 q 260 326 308 299 q 172 394 213 354 q 132 476 132 435 q 248 630 132 550 q 440 710 364 710 q 529 658 488 710 q 571 567 571 606 q 549 543 571 543 q 501 567 533 543 q 436 592 469 592 q 331 553 403 592 q 260 471 260 514 q 388 361 260 439 q 476 283 436 331 q 515 180 515 235 q 440 73 515 125 q 258 21 364 21 l 243 21 q 201 -74 233 -18 l 206 -74 z "},"Š":{"ha":731,"x_min":7,"x_max":797,"o":"m 757 1310 q 797 1274 797 1310 q 782 1239 797 1254 q 726 1198 767 1224 q 669 1160 686 1172 q 625 1122 653 1147 q 550 1075 568 1075 q 431 1165 521 1075 q 342 1306 342 1254 q 353 1342 342 1328 q 385 1357 365 1357 q 425 1333 406 1357 q 479 1265 444 1310 q 558 1185 514 1219 q 681 1279 628 1249 q 757 1310 735 1310 m 650 297 q 547 106 650 183 q 312 29 444 29 q 93 98 179 29 q 7 228 7 167 q 32 269 7 269 q 119 203 54 269 q 187 158 144 179 q 276 138 229 138 q 449 188 374 138 q 525 296 525 238 q 475 392 525 333 q 365 502 425 450 q 254 614 304 554 q 204 708 204 674 q 218 782 204 743 q 249 839 232 821 q 417 949 303 899 q 610 999 532 999 q 678 972 650 999 q 706 917 706 946 q 676 894 706 903 q 588 873 647 886 q 483 842 529 860 q 324 724 324 781 q 486 553 324 693 q 599 427 549 499 q 650 297 650 356 z "},"š":{"ha":592,"x_min":8,"x_max":613,"o":"m 440 710 q 529 658 488 710 q 571 567 571 606 q 549 543 571 543 q 501 567 533 543 q 436 592 469 592 q 331 553 403 592 q 260 471 260 514 q 388 361 260 439 q 476 283 436 331 q 515 180 515 235 q 440 73 515 125 q 263 21 364 21 q 85 69 163 21 q 8 161 8 118 q 17 190 8 179 q 40 200 26 200 q 79 182 54 200 q 235 128 154 128 q 353 147 317 128 q 389 197 389 165 q 349 263 389 228 q 260 326 308 299 q 172 394 213 354 q 132 476 132 435 q 248 630 132 550 q 440 710 364 710 m 572 1003 q 613 967 613 1003 q 597 931 613 947 q 540 890 581 915 q 483 853 500 865 q 439 816 467 840 q 394 780 411 792 q 364 768 378 768 q 246 858 336 768 q 156 999 156 947 q 168 1035 156 1021 q 201 1050 181 1050 q 240 1026 221 1050 q 294 958 260 1003 q 374 878 329 913 q 497 972 443 942 q 572 1003 550 1003 z "},"Ţ":{"ha":724,"x_min":88,"x_max":840,"o":"m 394 878 l 157 867 q 111 896 135 867 q 88 953 88 925 q 167 985 88 978 q 518 992 247 992 q 749 961 658 992 q 840 893 840 931 q 794 867 840 867 q 667 872 749 867 q 510 879 585 878 q 514 849 514 865 q 406 371 514 797 q 381 269 396 333 q 358 169 367 204 q 276 -50 321 25 l 282 -50 q 367 -74 324 -50 q 411 -135 411 -99 q 367 -203 411 -171 q 151 -265 282 -265 q 106 -255 124 -265 q 89 -229 89 -244 q 126 -206 89 -214 q 217 -185 164 -197 q 294 -146 269 -172 q 228 -122 285 -133 q 171 -94 171 -110 q 199 -19 171 -78 q 232 54 228 40 q 243 79 236 68 q 232 126 232 99 q 307 449 232 153 q 394 878 382 746 z "},"ţ":{"ha":506,"x_min":-50,"x_max":551,"o":"m 142 -74 q 228 -98 185 -74 q 272 -158 272 -122 q 228 -226 272 -194 q 11 -289 140 -289 q -33 -278 -15 -289 q -50 -253 -50 -268 q -13 -229 -50 -237 q 76 -208 24 -221 q 154 -169 129 -196 q 88 -145 144 -157 q 32 -119 32 -133 q 43 -79 32 -106 q 72 -17 54 -53 q 95 37 89 18 q 117 63 101 56 q 78 135 78 99 q 94 233 78 172 q 142 392 111 293 q 192 557 174 492 q 104 542 126 542 q 60 565 82 542 q 39 608 39 588 q 219 672 39 642 q 244 876 244 788 q 272 918 244 918 q 331 888 296 918 q 365 821 365 858 q 342 689 365 783 q 468 696 421 696 q 551 660 551 696 q 506 625 551 639 q 317 582 461 611 q 243 331 288 472 q 199 160 199 190 q 229 133 199 133 q 358 163 282 133 q 442 193 433 193 q 467 167 467 193 q 384 74 467 126 q 221 21 301 21 q 181 26 208 21 q 138 -74 174 -10 l 142 -74 z "},"Ť":{"ha":724,"x_min":69,"x_max":822,"o":"m 376 878 l 139 867 q 93 896 117 867 q 69 953 69 925 q 149 985 69 978 q 500 992 229 992 q 731 961 640 992 q 822 893 822 931 q 776 867 822 867 q 649 872 731 867 q 492 879 567 878 q 496 849 496 865 q 388 371 496 797 q 354 232 376 326 q 322 100 332 138 q 286 26 301 26 q 240 58 265 26 q 214 121 214 89 q 289 449 214 153 q 376 878 364 746 m 463 1018 q 344 1108 435 1018 q 254 1249 254 1197 q 267 1285 254 1271 q 299 1300 279 1300 q 339 1276 319 1300 q 393 1208 358 1253 q 472 1128 428 1163 q 595 1222 542 1192 q 671 1253 649 1253 q 711 1217 711 1253 q 695 1181 711 1197 q 639 1140 679 1165 q 582 1103 599 1115 q 538 1066 565 1090 q 493 1030 510 1042 q 463 1018 476 1018 z "},"ť":{"ha":600,"x_min":33,"x_max":647,"o":"m 471 985 q 471 995 471 985 q 494 1024 471 1006 q 550 1043 518 1043 q 615 1014 582 1043 q 647 943 647 985 q 578 810 647 871 q 453 750 508 750 q 422 775 422 750 q 478 838 422 793 q 543 917 535 883 q 502 948 533 932 q 471 985 471 964 m 463 696 q 546 660 546 696 q 501 625 546 639 q 310 582 456 611 q 238 331 283 476 q 193 159 193 185 q 224 133 193 133 q 352 163 276 133 q 436 193 428 193 q 461 167 461 193 q 378 74 461 126 q 229 21 296 21 q 118 58 163 21 q 74 133 74 94 q 90 233 74 172 q 138 393 106 293 q 186 557 169 493 q 99 542 121 542 q 55 565 76 542 q 33 608 33 588 q 214 672 33 642 q 239 876 239 788 q 268 918 239 918 q 325 888 290 918 q 360 821 360 858 q 336 689 360 783 q 463 696 415 696 z "},"Ū":{"ha":822,"x_min":111,"x_max":783,"o":"m 497 1217 q 681 1210 629 1217 q 733 1184 733 1204 q 692 1155 733 1164 q 492 1128 650 1146 q 329 1110 333 1110 q 278 1134 303 1110 q 254 1178 254 1158 q 497 1217 254 1217 m 228 957 q 233 990 228 981 q 259 999 239 999 q 313 962 279 999 q 347 876 347 925 q 290 607 347 826 q 233 309 233 388 q 263 182 233 231 q 338 133 292 133 q 439 186 383 133 q 542 324 494 239 q 623 533 590 410 q 656 781 656 656 q 649 897 656 839 q 643 969 643 956 q 668 999 643 999 q 742 951 700 999 q 783 828 783 903 q 721 426 783 614 q 553 127 658 239 q 328 15 447 15 q 176 100 240 15 q 111 294 111 185 q 169 640 111 404 q 228 957 228 875 z "},"ū":{"ha":665,"x_min":21,"x_max":667,"o":"m 431 910 q 615 903 563 910 q 667 877 667 897 q 625 848 667 857 q 424 821 583 839 q 261 803 265 803 q 210 826 235 803 q 186 871 186 850 q 431 910 186 910 m 533 671 q 544 701 539 693 q 569 710 550 710 q 615 674 588 710 q 642 604 642 638 q 581 390 642 586 q 486 79 519 194 q 439 21 469 21 q 408 36 421 21 q 396 92 396 51 q 428 238 396 132 q 301 82 369 143 q 177 21 233 21 q 71 74 121 21 q 21 182 21 126 q 98 512 21 314 q 226 710 175 710 q 269 687 250 710 q 288 643 288 664 q 250 544 288 622 q 139 183 139 311 q 153 147 139 161 q 186 132 167 132 q 312 225 239 132 q 444 442 385 318 q 533 671 504 565 z "},"Ů":{"ha":822,"x_min":111,"x_max":783,"o":"m 523 1146 q 532 1146 523 1146 q 555 1165 540 1146 q 569 1210 569 1185 q 559 1251 569 1236 q 531 1265 549 1265 q 499 1245 514 1265 q 485 1200 485 1225 q 495 1160 485 1175 q 523 1146 506 1146 m 519 1072 q 493 1072 519 1072 q 436 1107 468 1072 q 404 1196 404 1142 q 445 1297 404 1250 q 538 1343 486 1343 q 620 1308 589 1343 q 651 1219 651 1272 q 610 1119 651 1165 q 519 1072 569 1072 m 228 957 q 233 990 228 981 q 259 999 239 999 q 313 962 279 999 q 347 876 347 925 q 290 607 347 826 q 233 309 233 388 q 263 182 233 231 q 338 133 292 133 q 439 186 383 133 q 542 324 494 239 q 623 533 590 410 q 656 781 656 656 q 649 897 656 839 q 643 969 643 956 q 668 999 643 999 q 742 951 700 999 q 783 828 783 903 q 721 426 783 614 q 553 127 658 239 q 328 15 447 15 q 176 100 240 15 q 111 294 111 185 q 169 640 111 404 q 228 957 228 875 z "},"ů":{"ha":665,"x_min":21,"x_max":642,"o":"m 533 671 q 544 701 539 693 q 569 710 550 710 q 615 674 588 710 q 642 604 642 638 q 581 390 642 586 q 486 79 519 194 q 439 21 469 21 q 408 36 421 21 q 396 92 396 51 q 428 238 396 132 q 301 82 369 143 q 177 21 233 21 q 71 74 121 21 q 21 182 21 126 q 98 512 21 314 q 226 710 175 710 q 269 687 250 710 q 288 643 288 664 q 250 544 288 622 q 139 183 139 311 q 153 147 139 161 q 186 132 167 132 q 312 225 239 132 q 444 442 385 318 q 533 671 504 565 m 583 912 q 583 885 583 912 q 542 812 583 858 q 451 765 501 765 q 368 800 400 765 q 336 889 336 835 q 377 990 336 943 q 469 1036 418 1036 q 552 1001 521 1036 q 583 912 583 965 m 501 903 q 501 916 501 903 q 491 944 501 929 q 463 958 481 958 q 432 939 446 958 q 418 894 418 919 q 428 853 418 868 q 456 839 439 839 q 487 858 472 839 q 501 903 501 878 z "},"Ű":{"ha":822,"x_min":111,"x_max":783,"o":"m 726 1372 q 735 1372 726 1372 q 763 1350 744 1372 q 782 1306 782 1328 q 775 1270 782 1285 q 761 1247 768 1256 q 734 1217 754 1239 q 706 1184 714 1194 q 686 1160 697 1174 q 669 1140 675 1147 q 655 1124 664 1133 q 640 1108 646 1114 q 628 1097 635 1103 q 599 1088 614 1088 q 576 1099 585 1088 q 568 1131 568 1111 q 597 1201 568 1151 q 634 1267 625 1251 q 648 1292 643 1283 q 660 1313 653 1301 q 671 1332 667 1325 q 681 1347 675 1339 q 690 1358 686 1354 q 700 1367 694 1363 q 726 1372 708 1372 m 426 1283 q 435 1307 426 1283 q 460 1357 444 1331 q 501 1383 475 1383 q 547 1360 526 1383 q 567 1318 567 1338 q 564 1290 567 1299 q 554 1269 561 1281 q 542 1249 547 1257 q 523 1222 536 1240 q 476 1156 510 1204 q 429 1097 443 1108 q 401 1086 415 1086 q 379 1099 388 1086 q 371 1124 371 1111 q 374 1151 371 1138 q 382 1175 378 1164 q 397 1210 386 1186 q 426 1283 407 1235 m 228 957 q 233 990 228 981 q 259 999 239 999 q 313 962 279 999 q 347 876 347 925 q 290 607 347 826 q 233 309 233 388 q 263 182 233 231 q 338 133 292 133 q 439 186 383 133 q 542 324 494 239 q 623 533 590 410 q 656 781 656 656 q 649 897 656 839 q 643 969 643 956 q 668 999 643 999 q 742 951 700 999 q 783 828 783 903 q 721 426 783 614 q 553 127 658 239 q 328 15 447 15 q 176 100 240 15 q 111 294 111 185 q 169 640 111 404 q 228 957 228 875 z "},"ű":{"ha":665,"x_min":21,"x_max":714,"o":"m 533 671 q 544 701 539 693 q 569 710 550 710 q 615 674 588 710 q 642 604 642 638 q 581 390 642 586 q 486 79 519 194 q 439 21 469 21 q 408 36 421 21 q 396 92 396 51 q 428 238 396 132 q 301 82 369 143 q 177 21 233 21 q 71 74 121 21 q 21 182 21 126 q 98 512 21 314 q 226 710 175 710 q 269 687 250 710 q 288 643 288 664 q 250 544 288 622 q 139 183 139 311 q 153 147 139 161 q 186 132 167 132 q 312 225 239 132 q 444 442 385 318 q 533 671 504 565 m 474 942 q 471 938 474 942 q 455 915 468 933 q 409 849 442 897 q 361 790 376 800 q 333 779 346 779 q 311 792 319 779 q 303 819 303 804 q 307 847 303 833 q 325 892 311 861 q 353 961 339 924 q 378 1022 367 999 q 431 1076 401 1076 q 479 1053 460 1076 q 499 1011 499 1031 q 496 983 499 992 q 486 962 493 974 q 474 942 479 950 m 531 781 q 501 814 501 781 q 567 961 501 846 q 580 985 575 976 q 592 1006 585 994 q 603 1025 599 1018 q 613 1040 607 1032 q 622 1051 618 1047 q 631 1058 626 1056 q 658 1065 640 1065 q 695 1043 676 1065 q 714 999 714 1021 q 707 963 714 978 q 693 940 700 949 q 666 910 686 932 q 638 877 646 888 q 618 853 629 867 q 601 833 607 840 q 587 817 596 826 q 572 801 578 807 q 558 790 567 796 q 531 781 546 781 z "},"Ų":{"ha":804,"x_min":111,"x_max":783,"o":"m 272 -110 q 326 -136 272 -136 q 365 -128 343 -136 q 400 -121 388 -121 q 425 -133 413 -121 q 438 -160 438 -144 q 384 -211 438 -193 q 281 -229 331 -229 q 196 -202 232 -229 q 160 -139 160 -175 q 256 33 160 -65 q 152 136 193 64 q 111 286 111 208 q 169 640 111 404 q 228 957 228 875 q 233 990 228 981 q 259 999 239 999 q 313 962 279 999 q 347 876 347 925 q 290 607 347 826 q 233 309 233 388 q 263 182 233 231 q 338 133 292 133 q 439 186 383 133 q 542 324 494 239 q 623 533 590 410 q 656 781 656 656 q 649 897 656 839 q 643 969 643 956 q 668 999 643 999 q 742 951 700 999 q 783 828 783 903 q 730 456 783 632 q 586 166 676 281 q 389 24 496 51 q 344 -17 376 8 q 272 -110 272 -75 z "},"ų":{"ha":665,"x_min":21,"x_max":642,"o":"m 392 -147 q 429 -139 407 -147 q 465 -131 451 -131 q 490 -143 478 -131 q 503 -171 503 -156 q 449 -222 503 -204 q 347 -239 396 -239 q 261 -212 297 -239 q 225 -141 225 -186 q 283 -19 225 -96 q 396 82 342 57 q 428 238 396 135 q 301 82 369 143 q 177 21 233 21 q 71 74 121 21 q 21 182 21 126 q 98 512 21 314 q 226 710 175 710 q 269 687 250 710 q 288 643 288 664 q 250 544 288 622 q 139 183 139 311 q 153 147 139 161 q 186 132 167 132 q 312 225 239 132 q 444 442 385 318 q 533 671 504 565 q 544 701 539 693 q 569 710 550 710 q 615 674 588 710 q 642 604 642 638 q 581 390 642 586 q 499 124 519 194 q 468 39 478 53 q 399 -39 460 13 q 338 -121 338 -90 q 392 -147 338 -147 z "},"Ÿ":{"ha":799,"x_min":128,"x_max":843,"o":"m 569 1260 q 579 1273 569 1260 q 611 1285 589 1285 q 662 1231 633 1285 q 690 1156 690 1176 q 678 1122 690 1135 q 654 1110 667 1110 q 586 1147 624 1110 q 549 1210 549 1183 q 569 1260 549 1236 m 339 1210 q 339 1223 339 1210 q 360 1260 339 1236 q 402 1285 381 1285 q 453 1231 424 1285 q 482 1156 482 1176 q 469 1122 482 1135 q 444 1110 457 1110 q 376 1147 414 1110 q 339 1210 339 1183 m 454 518 q 545 637 479 518 q 680 875 611 756 q 778 994 749 994 q 825 974 807 994 q 843 924 843 953 q 790 807 843 894 q 649 576 738 719 q 471 264 560 432 q 349 54 382 96 q 294 13 315 13 q 264 63 264 13 q 303 181 264 101 q 322 220 315 204 q 344 265 329 236 q 368 310 360 294 q 394 360 376 326 q 419 410 411 394 q 269 513 338 431 q 164 698 200 596 q 128 897 128 800 q 183 994 128 994 q 219 951 206 994 q 251 828 232 908 q 303 680 271 747 q 379 565 335 613 q 454 518 424 518 z "},"Ź":{"ha":861,"x_min":82,"x_max":799,"o":"m 558 1089 q 551 1089 558 1089 q 533 1100 544 1089 q 522 1130 522 1111 q 540 1170 522 1149 q 608 1244 557 1192 q 665 1298 642 1275 q 700 1331 688 1321 q 742 1351 724 1351 q 780 1325 761 1351 q 799 1280 799 1299 q 795 1252 799 1261 q 786 1237 792 1243 q 767 1220 781 1231 q 743 1203 754 1210 q 708 1181 732 1196 q 669 1156 685 1167 q 635 1131 653 1144 q 608 1111 617 1117 q 589 1100 600 1106 q 558 1089 572 1089 m 649 944 q 742 879 703 926 q 781 788 781 832 q 723 669 781 743 q 583 522 665 594 q 417 379 500 449 q 276 256 333 310 q 218 185 218 201 q 228 158 218 168 q 254 149 238 149 q 490 172 328 149 q 699 194 651 194 q 746 161 746 194 q 572 73 746 117 q 222 29 399 29 q 126 77 169 29 q 82 172 82 125 q 142 288 82 218 q 288 431 203 358 q 458 574 374 503 q 665 804 665 744 q 602 848 665 831 q 467 865 539 865 q 335 855 396 865 q 261 844 275 844 q 201 876 231 844 q 172 935 172 908 q 264 978 169 960 q 376 986 313 986 q 649 944 524 986 z "},"ź":{"ha":600,"x_min":6,"x_max":635,"o":"m 137 695 q 168 702 137 695 q 306 710 199 710 q 478 682 413 710 q 534 631 508 669 q 560 568 560 593 q 495 447 560 515 q 354 326 431 379 q 213 225 278 274 q 149 160 149 176 q 185 136 149 136 q 379 147 264 136 q 518 158 494 158 q 571 126 571 158 q 432 51 571 82 q 164 21 293 21 q 55 66 104 21 q 6 149 6 111 q 75 249 6 186 q 228 370 144 313 q 382 485 313 428 q 451 564 451 542 q 311 590 451 590 q 224 583 275 590 q 149 575 172 575 q 101 604 126 575 q 75 654 75 633 q 137 695 75 681 m 394 781 q 386 781 394 781 q 369 792 379 781 q 358 823 358 804 q 376 864 358 842 q 427 919 393 886 q 481 972 461 953 q 513 1003 501 992 q 536 1025 524 1014 q 578 1044 560 1044 q 616 1018 597 1044 q 635 973 635 992 q 631 945 635 954 q 622 930 628 936 q 603 913 617 924 q 579 896 590 903 q 544 874 568 889 q 505 849 521 860 q 471 824 489 838 q 444 804 453 810 q 394 781 408 781 z "},"Ż":{"ha":861,"x_min":82,"x_max":781,"o":"m 592 1094 q 522 1131 561 1094 q 483 1196 483 1168 q 505 1250 483 1224 q 549 1276 526 1276 q 601 1217 572 1276 q 629 1128 629 1158 q 617 1106 629 1118 q 592 1094 604 1094 m 649 944 q 742 879 703 926 q 781 788 781 832 q 723 669 781 743 q 583 522 665 594 q 417 379 500 449 q 276 256 333 310 q 218 185 218 201 q 228 158 218 168 q 254 149 238 149 q 490 172 328 149 q 699 194 651 194 q 746 161 746 194 q 572 73 746 117 q 222 29 399 29 q 126 77 169 29 q 82 172 82 125 q 142 288 82 218 q 288 431 203 358 q 458 574 374 503 q 665 804 665 744 q 602 848 665 831 q 467 865 539 865 q 335 855 396 865 q 261 844 275 844 q 201 876 231 844 q 172 935 172 908 q 264 978 169 960 q 376 986 313 986 q 649 944 524 986 z "},"ż":{"ha":600,"x_min":6,"x_max":571,"o":"m 428 788 q 358 824 397 788 q 319 889 319 861 q 341 943 319 917 q 385 969 363 969 q 437 910 408 969 q 465 821 465 851 q 453 799 465 811 q 428 788 440 788 m 137 695 q 168 702 137 695 q 306 710 199 710 q 478 682 413 710 q 534 631 508 669 q 560 568 560 593 q 495 447 560 515 q 354 326 431 379 q 213 225 278 274 q 149 160 149 176 q 185 136 149 136 q 379 147 264 136 q 518 158 494 158 q 571 126 571 158 q 432 51 571 82 q 164 21 293 21 q 55 66 104 21 q 6 149 6 111 q 75 249 6 186 q 228 370 144 313 q 382 485 313 428 q 451 564 451 542 q 311 590 451 590 q 224 583 275 590 q 149 575 172 575 q 101 604 126 575 q 75 654 75 633 q 137 695 75 681 z "},"Ž":{"ha":861,"x_min":82,"x_max":790,"o":"m 750 1310 q 790 1274 790 1310 q 774 1238 790 1254 q 718 1197 758 1222 q 661 1160 678 1172 q 617 1123 644 1147 q 572 1087 589 1099 q 542 1075 556 1075 q 424 1165 514 1075 q 333 1306 333 1254 q 346 1342 333 1328 q 378 1357 358 1357 q 418 1333 399 1357 q 472 1265 438 1310 q 551 1185 507 1219 q 674 1279 621 1249 q 750 1310 728 1310 m 649 944 q 742 879 703 926 q 781 788 781 832 q 723 669 781 743 q 583 522 665 594 q 417 379 500 449 q 276 256 333 310 q 218 185 218 201 q 228 158 218 168 q 254 149 238 149 q 490 172 328 149 q 699 194 651 194 q 746 161 746 194 q 572 73 746 117 q 222 29 399 29 q 126 77 169 29 q 82 172 82 125 q 142 288 82 218 q 288 431 203 358 q 458 574 374 503 q 665 804 665 744 q 602 848 665 831 q 467 865 539 865 q 335 855 396 865 q 261 844 275 844 q 201 876 231 844 q 172 935 172 908 q 264 978 169 960 q 376 986 313 986 q 649 944 524 986 z "},"ž":{"ha":600,"x_min":4,"x_max":626,"o":"m 75 654 q 136 695 75 681 q 303 710 197 710 q 478 682 410 710 q 534 631 508 669 q 560 568 560 593 q 495 447 560 515 q 354 326 431 379 q 213 225 278 274 q 149 160 149 176 q 185 136 149 136 q 379 147 264 136 q 517 158 494 158 q 571 126 571 158 q 432 51 571 82 q 164 21 293 21 q 54 66 104 21 q 4 149 4 111 q 74 249 4 186 q 228 369 144 313 q 451 564 451 525 q 310 590 451 590 q 224 583 275 590 q 149 575 172 575 q 101 604 126 575 q 75 654 75 633 m 586 1003 q 626 967 626 1003 q 610 931 626 947 q 554 890 594 915 q 497 853 514 865 q 453 816 481 840 q 408 780 425 792 q 378 768 392 768 q 260 858 350 768 q 169 999 169 947 q 182 1035 169 1021 q 214 1050 194 1050 q 253 1026 233 1050 q 308 958 274 1003 q 388 878 343 913 q 510 972 457 942 q 586 1003 564 1003 z "},"ƒ":{"ha":610,"x_min":-53,"x_max":726,"o":"m 72 -178 q -11 -140 31 -178 q -53 -62 -53 -103 q -31 -22 -53 -22 q 3 -48 -26 -22 q 68 -74 33 -74 q 140 33 107 -74 q 249 481 174 140 q 158 463 176 463 q 117 488 139 463 q 94 539 94 514 q 276 607 94 576 q 399 991 340 893 q 569 1089 457 1089 q 683 1034 639 1089 q 726 905 726 979 q 689 831 726 831 q 636 904 656 831 q 611 955 628 932 q 571 978 594 978 q 494 894 528 978 q 421 624 461 811 q 526 629 472 629 q 610 592 610 629 q 559 547 610 565 q 396 510 508 528 q 282 49 322 172 q 194 -126 242 -75 q 72 -178 147 -178 z "},"Ș":{"ha":749,"x_min":25,"x_max":724,"o":"m 668 297 q 565 106 668 183 q 330 29 463 29 q 111 98 197 29 q 25 228 25 167 q 50 269 25 269 q 139 203 72 269 q 205 158 163 179 q 294 138 247 138 q 467 188 392 138 q 543 296 543 238 q 493 392 543 333 q 383 502 443 450 q 272 614 322 554 q 222 708 222 674 q 236 782 222 743 q 267 839 250 821 q 435 949 321 899 q 628 999 550 999 q 696 972 668 999 q 724 917 724 946 q 694 894 724 903 q 606 873 665 886 q 501 842 547 860 q 342 724 342 781 q 506 553 342 693 q 617 427 567 499 q 668 297 668 356 m 179 -311 q 235 -248 179 -293 q 300 -169 292 -203 q 259 -140 290 -156 q 228 -103 228 -124 q 251 -62 228 -82 q 306 -43 274 -43 q 372 -73 339 -43 q 404 -143 404 -103 q 334 -275 404 -214 q 210 -336 264 -336 q 179 -311 179 -336 z "},"ș":{"ha":592,"x_min":8,"x_max":571,"o":"m 300 -135 q 230 -266 300 -206 q 106 -326 160 -326 q 74 -303 74 -326 q 131 -239 74 -283 q 196 -161 188 -194 q 154 -130 185 -146 q 124 -93 124 -114 q 147 -53 124 -72 q 203 -33 171 -33 q 267 -63 235 -33 q 300 -135 300 -93 m 440 710 q 529 658 488 710 q 571 567 571 606 q 549 543 571 543 q 501 567 533 543 q 436 592 469 592 q 331 553 403 592 q 260 471 260 514 q 388 361 260 439 q 476 283 436 331 q 515 180 515 235 q 440 73 515 125 q 263 21 364 21 q 85 69 163 21 q 8 161 8 118 q 17 190 8 179 q 40 200 26 200 q 79 182 54 200 q 235 128 154 128 q 353 147 317 128 q 389 197 389 165 q 349 263 389 228 q 260 326 308 299 q 172 394 213 354 q 132 476 132 435 q 248 630 132 550 q 440 710 364 710 z "},"Ț":{"ha":724,"x_min":85,"x_max":838,"o":"m 392 878 l 156 867 q 109 896 133 867 q 85 953 85 925 q 165 985 85 978 q 515 992 244 992 q 747 961 656 992 q 838 893 838 931 q 792 867 838 867 q 664 872 746 867 q 507 879 582 878 q 511 849 511 865 q 403 371 511 797 q 369 232 392 326 q 336 100 347 138 q 301 26 317 26 q 255 58 281 26 q 229 121 229 89 q 304 449 229 153 q 392 878 379 746 m 135 -103 q 135 -92 135 -103 q 158 -62 135 -82 q 214 -43 182 -43 q 279 -73 246 -43 q 313 -143 313 -103 q 242 -275 313 -214 q 117 -336 171 -336 q 86 -311 86 -336 q 142 -248 86 -293 q 207 -169 199 -203 q 167 -140 199 -156 q 135 -103 135 -124 z "},"ț":{"ha":506,"x_min":33,"x_max":546,"o":"m 310 582 q 238 331 283 476 q 193 159 193 185 q 224 133 193 133 q 352 163 276 133 q 436 193 428 193 q 461 167 461 193 q 378 74 461 126 q 229 21 296 21 q 118 58 163 21 q 74 133 74 94 q 90 233 74 172 q 138 393 106 293 q 186 557 169 493 q 99 542 121 542 q 55 565 76 542 q 33 608 33 588 q 214 672 33 642 q 239 876 239 788 q 268 918 239 918 q 325 888 290 918 q 360 821 360 858 q 336 689 360 783 q 463 696 415 696 q 546 660 546 696 q 501 625 546 639 q 310 582 456 611 m 86 -93 q 86 -83 86 -93 q 109 -53 86 -72 q 165 -33 132 -33 q 230 -63 197 -33 q 263 -135 263 -93 q 192 -266 263 -206 q 68 -326 122 -326 q 36 -303 36 -326 q 92 -238 36 -283 q 158 -161 149 -193 q 117 -130 147 -146 q 86 -93 86 -114 z "},"ʼ":{"ha":381,"x_min":71,"x_max":321,"o":"m 321 1033 q 240 857 321 946 q 108 768 160 768 q 71 799 71 768 q 102 846 71 815 q 165 917 133 876 q 197 992 197 957 q 185 1043 197 1026 q 158 1067 172 1060 q 118 1110 118 1083 q 140 1155 118 1136 q 190 1174 161 1174 q 283 1135 244 1174 q 321 1033 321 1097 z "},"ˆ":{"ha":465,"x_min":14,"x_max":451,"o":"m 215 1011 q 223 1015 215 1011 q 242 1024 231 1019 q 264 1028 254 1028 q 285 1021 274 1028 q 304 1006 297 1014 q 338 964 315 992 q 379 915 360 936 q 408 883 399 894 q 429 856 417 871 q 451 811 451 828 q 415 778 451 778 q 361 804 393 778 q 311 853 329 831 q 257 921 293 875 q 176 867 218 900 q 106 815 133 835 q 60 796 79 796 q 27 808 40 796 q 14 846 14 821 q 36 895 14 871 q 92 939 58 919 q 149 972 126 958 q 185 994 171 986 q 215 1011 199 1003 z "},"ˇ":{"ha":485,"x_min":14,"x_max":471,"o":"m 431 1003 q 471 967 471 1003 q 455 931 471 947 q 399 890 439 915 q 342 853 358 865 q 297 816 325 840 q 253 780 269 792 q 222 768 236 768 q 104 858 194 768 q 14 999 14 947 q 26 1035 14 1021 q 58 1050 39 1050 q 98 1026 78 1050 q 153 958 118 1003 q 232 878 188 913 q 355 972 301 942 q 431 1003 408 1003 z "},"ˉ":{"ha":507,"x_min":14,"x_max":493,"o":"m 352 908 q 399 908 352 908 q 469 903 446 908 q 493 879 493 897 q 452 849 493 861 q 331 826 411 838 q 206 806 250 814 q 87 788 111 788 q 38 811 63 789 q 14 853 14 833 q 136 893 14 878 q 352 908 258 908 z "},"˘":{"ha":422,"x_min":14,"x_max":408,"o":"m 121 949 q 126 936 121 949 q 154 903 131 924 q 215 882 178 882 q 283 903 251 882 q 336 946 314 925 q 376 967 358 967 q 408 935 408 967 q 338 838 408 889 q 198 788 268 788 q 71 837 128 788 q 14 939 14 886 q 34 994 14 974 q 72 1015 54 1015 q 100 994 89 1015 q 121 949 111 974 z "},"˙":{"ha":174,"x_min":14,"x_max":160,"o":"m 122 921 q 53 958 92 921 q 14 1022 14 994 q 35 1076 14 1050 q 80 1103 57 1103 q 131 1044 103 1103 q 160 954 160 985 q 147 933 160 944 q 122 921 135 921 z "},"˚":{"ha":275,"x_min":14,"x_max":261,"o":"m 133 839 q 141 839 133 839 q 164 858 150 839 q 178 903 178 878 q 167 944 178 929 q 140 958 157 958 q 109 938 124 958 q 94 893 94 918 q 105 853 94 868 q 133 839 115 839 m 128 765 q 103 765 128 765 q 46 800 78 765 q 14 889 14 835 q 55 990 14 943 q 147 1036 96 1036 q 230 1001 199 1036 q 261 912 261 965 q 220 812 261 858 q 128 765 179 765 z "},"˛":{"ha":306,"x_min":14,"x_max":292,"o":"m 213 71 q 244 60 229 71 q 258 33 258 50 q 192 -53 258 1 q 126 -139 126 -108 q 181 -165 126 -165 q 218 -157 196 -165 q 253 -149 240 -149 q 278 -161 265 -149 q 292 -189 292 -174 q 238 -240 292 -222 q 135 -257 185 -257 q 50 -231 86 -257 q 14 -168 14 -204 q 89 -17 14 -104 q 213 71 164 71 z "},"˜":{"ha":493,"x_min":14,"x_max":479,"o":"m 60 786 q 14 833 14 786 q 68 935 14 879 q 178 992 122 992 q 237 975 211 992 q 275 939 263 958 q 335 878 310 882 q 388 928 358 882 q 444 975 418 975 q 479 927 479 975 q 435 828 479 879 q 339 776 390 776 q 183 899 264 776 q 135 857 157 886 q 97 807 114 828 q 60 786 81 786 z "},"˝":{"ha":439,"x_min":14,"x_max":425,"o":"m 367 1199 q 377 1199 367 1199 q 406 1176 388 1199 q 425 1133 425 1154 q 418 1097 425 1111 q 404 1074 411 1082 q 377 1043 397 1065 q 349 1010 357 1021 q 329 987 340 1000 q 313 967 318 974 q 298 950 307 960 q 283 935 289 940 q 269 924 278 929 q 242 914 257 914 q 219 926 228 914 q 211 958 211 938 q 240 1029 211 978 q 281 1101 269 1081 q 298 1131 292 1121 q 312 1155 304 1142 q 324 1175 319 1168 q 336 1189 329 1182 q 367 1199 347 1199 m 69 1109 q 78 1133 69 1109 q 103 1183 88 1157 q 144 1210 118 1210 q 189 1187 169 1210 q 208 1145 208 1164 q 206 1118 208 1126 q 200 1103 203 1110 q 190 1085 197 1096 q 178 1067 183 1074 q 163 1044 174 1060 q 119 982 151 1029 q 72 924 86 935 q 44 913 58 913 q 22 925 31 913 q 14 951 14 938 q 17 977 14 964 q 25 1001 21 990 q 40 1037 29 1013 q 69 1109 50 1061 z "},"π":{"ha":996,"x_min":110,"x_max":1006,"o":"m 1006 713 q 961 674 1006 685 q 808 660 917 663 q 786 590 806 644 q 746 315 746 472 q 760 200 746 249 q 792 133 775 151 q 824 94 810 114 q 839 58 839 75 q 822 31 839 42 q 782 21 806 21 q 675 102 719 21 q 631 315 631 183 q 694 657 631 525 q 442 643 585 654 q 450 550 450 614 q 429 383 450 486 q 378 201 408 279 q 310 72 347 122 q 241 21 272 21 q 189 38 210 21 q 168 74 168 54 q 188 119 168 93 q 233 183 208 146 q 284 308 258 219 q 318 517 310 396 q 329 636 322 551 q 183 626 207 626 q 134 654 158 626 q 110 704 110 682 q 327 762 110 743 q 706 781 544 781 q 937 767 868 781 q 1006 713 1006 754 z "},"ँ":{"ha":0,"x_min":-282,"x_max":318,"o":"m -178 1238 l -182 1211 q -125 1115 -182 1154 q 8 1076 -68 1076 q 126 1088 85 1076 q 185 1118 167 1100 q 215 1157 204 1136 q 229 1196 226 1178 q 254 1238 236 1238 q 295 1218 272 1238 q 318 1182 318 1199 q 240 1053 318 1115 q 35 992 163 992 q -187 1057 -93 992 q -282 1236 -282 1122 q -249 1282 -282 1282 q -202 1267 -226 1282 q -178 1238 -178 1251 m -3 1331 q 49 1280 19 1331 q 78 1197 78 1229 q 53 1165 78 1165 q -10 1206 29 1165 q -49 1270 -49 1247 q -34 1312 -49 1293 q -3 1331 -19 1331 z "},"ं":{"ha":0,"x_min":-85,"x_max":43,"o":"m -37 1167 q 14 1115 -15 1167 q 43 1031 43 1064 q 18 997 43 997 q -46 1038 -7 997 q -85 1103 -85 1078 q -70 1147 -85 1128 q -37 1167 -56 1167 z "},"ः":{"ha":114,"x_min":60,"x_max":257,"o":"m 104 257 q 154 210 126 257 q 182 131 182 163 q 154 99 182 99 q 95 136 131 99 q 60 197 60 174 q 74 238 60 219 q 104 257 89 257 m 181 629 q 230 582 203 629 q 257 502 257 535 q 229 469 257 469 q 170 508 206 469 q 135 568 135 546 q 149 610 135 590 q 181 629 164 629 z "},"अ":{"ha":1039,"x_min":21,"x_max":1272,"o":"m 810 896 l 1197 896 q 1272 848 1272 896 q 1197 800 1272 800 l 1044 800 q 1001 603 1042 782 q 949 367 961 424 q 893 133 906 172 q 869 65 881 94 q 832 10 850 10 q 794 27 814 10 q 774 60 774 44 q 854 456 774 100 l 861 485 q 564 411 724 436 q 614 292 614 361 q 528 115 614 182 q 309 47 442 47 q 99 113 176 47 q 21 268 21 179 q 36 326 21 304 q 74 349 51 349 q 106 334 96 349 q 117 301 117 319 q 306 146 117 146 q 449 185 394 146 q 503 292 503 225 q 442 389 503 358 q 326 360 381 360 q 267 391 297 360 q 238 446 238 422 q 342 490 238 490 q 432 481 381 490 q 528 575 492 521 q 565 685 565 629 q 479 768 565 768 q 403 750 444 768 q 353 710 363 732 q 342 683 349 700 q 325 653 335 665 q 299 642 315 642 q 264 663 282 642 q 246 703 246 683 q 322 819 246 765 q 481 872 397 872 q 613 824 565 872 q 660 687 660 776 q 582 503 660 597 q 886 614 769 547 q 925 800 908 725 l 810 800 q 735 848 735 800 q 810 896 735 896 z "},"आ":{"ha":1432,"x_min":21,"x_max":1651,"o":"m 810 896 l 1576 896 q 1651 848 1651 896 q 1576 800 1651 800 l 1414 800 q 1328 381 1403 696 q 1312 312 1318 339 q 1297 247 1306 285 q 1281 183 1288 210 q 1267 128 1275 157 q 1252 79 1258 99 q 1239 43 1246 60 q 1217 10 1228 10 q 1178 33 1203 10 q 1154 72 1154 56 q 1166 142 1154 89 q 1198 283 1178 196 q 1228 426 1218 369 q 1253 556 1239 483 q 1299 800 1281 706 l 1044 800 q 1001 603 1042 782 q 949 367 961 424 q 893 133 906 172 q 869 65 881 94 q 832 10 850 10 q 794 27 814 10 q 774 60 774 44 q 854 456 774 100 l 861 485 q 564 411 724 436 q 614 292 614 361 q 528 115 614 182 q 309 47 442 47 q 99 113 176 47 q 21 268 21 179 q 36 326 21 304 q 74 349 51 349 q 106 334 96 349 q 117 301 117 319 q 306 146 117 146 q 449 185 394 146 q 503 292 503 225 q 442 389 503 358 q 326 360 381 360 q 267 391 297 360 q 238 446 238 422 q 342 490 238 490 q 432 481 381 490 q 528 575 492 521 q 565 685 565 629 q 479 768 565 768 q 403 750 444 768 q 353 710 363 732 q 342 683 349 700 q 325 653 335 665 q 299 642 315 642 q 264 663 282 642 q 246 703 246 683 q 322 819 246 765 q 481 872 397 872 q 613 824 565 872 q 660 687 660 776 q 582 503 660 597 q 886 614 769 547 q 925 800 908 725 l 810 800 q 735 848 735 800 q 810 896 735 896 z "},"इ":{"ha":713,"x_min":39,"x_max":903,"o":"m 564 636 l 565 778 l 565 800 l 182 800 q 107 848 107 800 q 182 896 107 896 l 826 896 q 903 848 903 896 q 826 800 903 800 l 660 800 q 667 726 667 776 q 653 606 667 675 q 603 521 636 521 q 560 539 592 521 q 376 590 464 590 q 329 565 329 590 q 444 450 329 519 q 540 390 492 422 q 621 310 588 357 q 654 208 654 263 q 476 46 654 83 q 503 -17 488 19 q 529 -80 518 -54 q 551 -133 540 -106 q 574 -206 574 -186 q 544 -236 574 -236 q 472 -158 511 -236 q 386 33 408 -33 q 336 32 369 32 q 125 86 211 32 q 39 231 39 140 q 84 329 39 292 q 204 367 129 367 q 336 304 279 367 q 439 135 393 242 q 549 218 549 158 q 496 304 549 260 q 381 383 443 349 q 265 472 318 417 q 213 581 213 526 q 363 688 213 688 q 564 636 468 688 m 339 125 l 347 125 q 278 238 314 199 q 196 276 243 276 q 133 222 133 276 q 190 151 133 176 q 339 125 246 125 z "},"ई":{"ha":753,"x_min":39,"x_max":903,"o":"m 564 636 l 565 778 l 565 800 l 182 800 q 107 848 107 800 q 182 896 107 896 l 507 896 q 425 1056 425 960 q 492 1213 425 1151 q 656 1275 560 1275 q 814 1226 751 1275 q 876 1128 876 1178 q 860 1104 876 1104 q 828 1122 850 1104 q 685 1178 760 1178 q 569 1144 610 1178 q 528 1058 528 1110 q 550 977 528 1007 q 612 924 572 947 q 657 896 651 901 l 826 896 q 903 848 903 896 q 826 800 903 800 l 660 800 q 667 726 667 776 q 653 606 667 675 q 603 521 636 521 q 560 539 592 521 q 376 590 464 590 q 329 565 329 590 q 444 450 329 519 q 540 390 492 422 q 621 310 588 357 q 654 208 654 263 q 476 46 654 83 q 503 -17 488 19 q 529 -80 518 -54 q 551 -133 540 -106 q 574 -206 574 -186 q 544 -236 574 -236 q 472 -158 511 -236 q 386 33 408 -33 q 336 32 369 32 q 125 86 211 32 q 39 231 39 140 q 84 329 39 292 q 204 367 129 367 q 336 304 279 367 q 439 135 393 242 q 549 218 549 158 q 496 304 549 260 q 381 383 443 349 q 265 472 318 417 q 213 581 213 526 q 363 688 213 688 q 564 636 468 688 m 339 125 l 347 125 q 278 238 314 199 q 196 276 243 276 q 133 222 133 276 q 190 151 133 176 q 339 125 246 125 z "},"उ":{"ha":824,"x_min":68,"x_max":1014,"o":"m 188 896 l 939 896 q 1014 848 1014 896 q 939 800 1014 800 l 760 800 q 788 685 788 754 q 663 451 788 556 q 750 294 750 396 q 656 119 750 192 q 408 47 561 47 q 161 119 254 47 q 68 310 68 190 q 97 411 68 369 q 165 453 126 453 q 204 421 204 453 q 188 369 204 404 q 172 301 172 335 q 238 187 172 228 q 409 146 304 146 q 577 188 514 146 q 640 298 640 229 q 578 400 640 367 q 457 372 518 372 q 399 403 428 372 q 369 458 369 435 q 472 503 369 503 q 558 493 519 503 q 690 679 690 575 q 672 744 690 719 q 621 769 654 769 q 540 714 558 769 q 513 659 524 671 q 486 647 501 647 q 454 669 471 647 q 438 713 438 692 q 469 800 438 757 l 188 800 q 113 848 113 800 q 188 896 113 896 z "},"ऊ":{"ha":1189,"x_min":68,"x_max":1313,"o":"m 188 896 l 1238 896 q 1313 848 1313 896 q 1238 800 1313 800 l 760 800 q 788 689 788 754 q 754 560 788 624 q 942 608 847 608 q 1099 542 1036 608 q 1161 382 1161 476 q 1088 148 1161 250 q 939 46 1014 46 q 881 67 906 46 q 856 113 856 88 q 874 122 856 122 q 1005 199 953 122 q 1057 369 1057 275 q 1021 470 1057 433 q 917 507 985 507 q 821 489 857 507 q 772 463 785 471 q 733 438 758 456 q 704 417 708 419 q 750 300 750 368 q 656 119 750 192 q 408 47 561 47 q 161 119 254 47 q 68 310 68 190 q 97 411 68 369 q 165 453 126 453 q 204 421 204 453 q 188 369 204 404 q 172 301 172 335 q 238 187 172 228 q 409 146 304 146 q 577 188 514 146 q 640 298 640 229 q 578 400 640 367 q 457 372 518 372 q 399 403 428 372 q 369 458 369 435 q 472 503 369 503 q 558 493 519 503 q 690 679 690 575 q 672 744 690 719 q 621 769 654 769 q 540 714 558 769 q 513 659 524 671 q 486 647 501 647 q 454 669 471 647 q 438 713 438 692 q 469 800 438 757 l 188 800 q 113 848 113 800 q 188 896 113 896 z "},"ऋ":{"ha":1178,"x_min":40,"x_max":1354,"o":"m 131 896 l 1278 896 q 1354 848 1354 896 q 1278 800 1354 800 l 739 800 q 668 454 731 718 q 738 436 704 436 q 814 472 771 436 q 867 540 857 507 q 865 566 865 547 q 875 602 865 585 q 906 619 885 619 q 972 553 939 619 q 1008 499 988 519 q 1056 478 1028 478 q 1094 491 1083 478 q 1120 504 1106 504 q 1153 484 1135 504 q 1171 439 1171 464 q 1142 400 1171 414 q 1004 280 1068 349 q 940 161 940 211 q 996 131 940 131 q 1096 151 1051 131 l 1140 172 q 1161 135 1161 172 q 1135 82 1161 99 q 1003 47 1076 47 q 892 77 929 47 q 854 161 854 107 q 1004 407 854 275 q 922 458 956 424 q 830 377 883 411 q 738 343 776 343 q 649 367 700 343 q 561 36 589 92 q 534 10 549 10 q 501 27 519 10 q 483 64 483 44 q 535 338 483 83 q 357 226 476 297 q 86 72 108 72 q 52 83 64 72 q 40 106 40 94 q 45 125 40 118 q 60 142 50 132 q 81 160 69 151 q 110 181 92 168 q 142 203 128 193 q 181 227 157 213 q 220 251 204 242 q 263 277 236 261 q 310 305 290 293 q 374 344 329 317 q 511 428 485 414 q 299 533 410 468 q 188 629 188 599 q 222 668 188 668 q 272 653 240 668 q 370 601 343 617 q 413 578 397 586 q 567 499 544 513 q 594 640 574 536 q 624 800 614 743 l 131 800 q 56 848 56 800 q 131 896 56 896 z "},"ऌ":{"ha":913,"x_min":67,"x_max":1163,"o":"m 453 294 q 422 328 419 294 q 428 361 424 343 q 442 449 442 418 q 346 542 442 542 q 226 478 268 542 q 183 326 183 414 q 217 181 183 239 q 297 117 251 124 q 365 110 342 110 q 413 69 413 110 q 310 14 413 14 q 144 101 207 14 q 82 321 82 189 q 152 549 82 453 q 350 646 222 646 q 514 510 497 646 q 731 642 586 642 l 738 642 q 783 800 744 718 l 142 800 q 67 848 67 800 q 142 896 67 896 l 1086 896 q 1163 848 1163 896 q 1086 800 1163 800 l 886 800 q 862 731 879 775 q 835 658 844 686 q 824 624 826 629 q 913 483 913 586 q 885 385 913 429 q 819 311 858 340 q 742 256 781 282 q 647 144 647 196 q 738 86 647 86 q 819 102 781 86 q 878 118 858 118 q 909 108 897 118 q 921 82 921 97 q 867 22 921 46 q 731 -3 813 -3 q 598 34 649 -3 q 547 140 547 71 q 574 224 547 186 q 640 289 601 263 q 715 340 678 315 q 807 469 807 401 q 715 543 807 543 q 626 517 664 543 q 569 456 589 492 q 535 383 550 419 q 453 294 499 294 z "}}}
